<svg id="Layer_1" data-name="Layer 1" xmlns="http://www.w3.org/2000/svg" width="1440" height="810" viewBox="0 0 1440 810">
  <g opacity="0.15">
    <path d="M0-4.5c7.13,0,7.13,10,14.26,10s7.13-10,14.25-10,7.13,10,14.26,10S49.89-4.5,57-4.5s7.13,10,14.26,10,7.12-10,14.25-10,7.13,10,14.26,10,7.13-10,14.25-10,7.13,10,14.26,10,7.13-10,14.25-10,7.13,10,14.26,10,7.13-10,14.25-10,7.13,10,14.26,10,7.13-10,14.26-10,7.12,10,14.25,10,7.13-10,14.26-10,7.12,10,14.25,10,7.13-10,14.26-10,7.13,10,14.26,10,7.12-10,14.25-10,7.13,10,14.26,10,7.12-10,14.25-10,7.13,10,14.26,10,7.13-10,14.26-10,7.12,10,14.25,10,7.13-10,14.26-10,7.13,10,14.25,10,7.13-10,14.26-10,7.13,10,14.26,10,7.12-10,14.25-10,7.13,10,14.26,10,7.13-10,14.26-10,7.12,10,14.25,10,7.13-10,14.26-10,7.13,10,14.26,10,7.12-10,14.25-10,7.13,10,14.26,10,7.13-10,14.26-10,7.12,10,14.25,10,7.13-10,14.26-10,7.13,10,14.26,10,7.13-10,14.25-10,7.13,10,14.26,10,7.13-10,14.26-10,7.13,10,14.25,10,7.13-10,14.26-10,7.13,10,14.26,10,7.13-10,14.25-10,7.13,10,14.26,10,7.13-10,14.25-10,7.13,10,14.26,10,7.12-10,14.25-10,7.13,10,14.25,10,7.13-10,14.26-10,7.13,10,14.26,10,7.12-10,14.25-10,7.13,10,14.25,10,7.13-10,14.26-10,7.13,10,14.26,10,7.12-10,14.25-10,7.13,10,14.26,10,7.13-10,14.26-10,7.12,10,14.25,10,7.13-10,14.26-10,7.13,10,14.25,10,7.13-10,14.26-10,7.13,10,14.26,10,7.13-10,14.26-10,7.12,10,14.25,10,7.13-10,14.26-10,7.13,10,14.26,10,7.13-10,14.26-10,7.13,10,14.26,10,7.13-10,14.26-10,7.12,10,14.25,10,7.13-10,14.26-10,7.13,10,14.26,10,7.13-10,14.26-10,7.13,10,14.26,10,7.13-10,14.26-10,7.13,10,14.26,10,7.13-10,14.26-10,7.13,10,14.26,10,7.13-10,14.26-10,7.13,10,14.26,10,7.13-10,14.25-10,7.13,10,14.26,10,7.13-10,14.26-10,7.13,10,14.26,10,7.13-10,14.26-10,7.13,10,14.26,10,7.13-10,14.26-10,7.13,10,14.27,10,7.13-10,14.26-10,7.13,10,14.26,10,7.13-10,14.26-10,7.13,10,14.26,10,7.14-10,14.27-10,7.13,10,14.26,10,7.13-10,14.27-10,7.13,10,14.27,10" fill="none" stroke="#c0459f" stroke-miterlimit="10"/>
    <path d="M0,15.26c7.13,0,7.13,10,14.26,10s7.13-10,14.25-10,7.13,10,14.26,10,7.12-10,14.25-10,7.13,10,14.26,10,7.12-10,14.25-10,7.13,10,14.26,10,7.13-10,14.25-10,7.13,10,14.26,10,7.13-10,14.25-10,7.13,10,14.26,10,7.13-10,14.25-10,7.13,10,14.26,10,7.13-10,14.26-10,7.12,10,14.25,10,7.13-10,14.26-10,7.12,10,14.25,10,7.13-10,14.26-10,7.13,10,14.26,10,7.12-10,14.25-10,7.13,10,14.26,10,7.12-10,14.25-10,7.13,10,14.26,10,7.13-10,14.26-10,7.12,10,14.25,10,7.13-10,14.26-10,7.13,10,14.25,10,7.13-10,14.26-10,7.13,10,14.26,10,7.12-10,14.25-10,7.13,10,14.26,10,7.13-10,14.26-10,7.12,10,14.25,10,7.13-10,14.26-10,7.13,10,14.26,10,7.12-10,14.25-10,7.13,10,14.26,10,7.13-10,14.26-10,7.12,10,14.25,10,7.13-10,14.26-10,7.13,10,14.26,10,7.13-10,14.25-10,7.13,10,14.26,10,7.13-10,14.26-10,7.13,10,14.25,10,7.13-10,14.26-10,7.13,10,14.26,10,7.13-10,14.25-10,7.13,10,14.26,10,7.13-10,14.25-10,7.13,10,14.26,10,7.12-10,14.25-10,7.13,10,14.25,10,7.13-10,14.26-10,7.13,10,14.26,10,7.12-10,14.25-10,7.13,10,14.25,10,7.13-10,14.26-10,7.13,10,14.26,10,7.12-10,14.25-10,7.13,10,14.26,10,7.13-10,14.26-10,7.12,10,14.25,10,7.13-10,14.26-10,7.13,10,14.25,10,7.13-10,14.26-10,7.13,10,14.26,10,7.13-10,14.26-10,7.12,10,14.25,10,7.13-10,14.26-10,7.13,10,14.26,10,7.13-10,14.26-10,7.13,10,14.26,10,7.13-10,14.26-10,7.12,10,14.25,10,7.13-10,14.26-10,7.13,10,14.26,10,7.13-10,14.26-10,7.13,10,14.26,10,7.13-10,14.26-10,7.13,10,14.26,10,7.13-10,14.26-10,7.13,10,14.26,10,7.13-10,14.26-10,7.13,10,14.26,10,7.13-10,14.25-10,7.13,10,14.26,10,7.13-10,14.26-10,7.13,10,14.26,10,7.13-10,14.26-10,7.13,10,14.26,10,7.13-10,14.26-10,7.13,10,14.27,10,7.13-10,14.26-10,7.13,10,14.26,10,7.13-10,14.26-10,7.13,10,14.26,10,7.14-10,14.27-10,7.13,10,14.26,10,7.13-10,14.27-10,7.13,10,14.27,10" fill="none" stroke="#c0459f" stroke-miterlimit="10"/>
    <path d="M0,35c7.13,0,7.13,10,14.26,10s7.13-10,14.25-10,7.13,10,14.26,10S49.89,35,57,35s7.13,10,14.26,10S78.4,35,85.53,35s7.13,10,14.26,10S106.92,35,114,35s7.13,10,14.26,10,7.13-10,14.25-10,7.13,10,14.26,10,7.13-10,14.25-10,7.13,10,14.26,10,7.13-10,14.26-10,7.12,10,14.25,10S221,35,228.09,35s7.12,10,14.25,10,7.13-10,14.26-10,7.13,10,14.26,10S278,35,285.11,35s7.13,10,14.26,10,7.12-10,14.25-10,7.13,10,14.26,10S335,35,342.14,35s7.12,10,14.25,10,7.13-10,14.26-10,7.13,10,14.25,10S392,35,399.16,35s7.13,10,14.26,10,7.12-10,14.25-10,7.13,10,14.26,10,7.13-10,14.26-10,7.12,10,14.25,10,7.13-10,14.26-10S491.83,45,499,45s7.12-10,14.25-10,7.13,10,14.26,10,7.13-10,14.26-10S548.85,45,556,45s7.13-10,14.26-10,7.13,10,14.26,10,7.13-10,14.25-10S605.88,45,613,45s7.13-10,14.26-10,7.13,10,14.25,10,7.13-10,14.26-10S662.91,45,670,45s7.13-10,14.25-10,7.13,10,14.26,10,7.13-10,14.25-10,7.13,10,14.26,10,7.12-10,14.25-10,7.13,10,14.25,10,7.13-10,14.26-10S777,45,784.08,45s7.12-10,14.25-10,7.13,10,14.25,10,7.13-10,14.26-10S834,45,841.1,45s7.12-10,14.25-10,7.13,10,14.26,10,7.13-10,14.26-10S891,45,898.12,45s7.13-10,14.26-10,7.13,10,14.25,10,7.13-10,14.26-10S948,45,955.15,45s7.13-10,14.26-10,7.12,10,14.25,10,7.13-10,14.26-10,7.13,10,14.26,10,7.13-10,14.26-10,7.13,10,14.26,10,7.13-10,14.26-10,7.12,10,14.25,10,7.13-10,14.26-10,7.13,10,14.26,10,7.13-10,14.26-10,7.13,10,14.26,10,7.13-10,14.26-10,7.13,10,14.26,10,7.13-10,14.26-10,7.13,10,14.26,10,7.13-10,14.26-10,7.13,10,14.26,10,7.13-10,14.25-10,7.13,10,14.26,10,7.13-10,14.26-10,7.13,10,14.26,10,7.13-10,14.26-10,7.13,10,14.26,10,7.13-10,14.26-10,7.13,10,14.27,10,7.13-10,14.26-10,7.13,10,14.26,10,7.13-10,14.26-10,7.13,10,14.26,10,7.14-10,14.27-10,7.13,10,14.26,10,7.13-10,14.27-10,7.13,10,14.27,10" fill="none" stroke="#c0459f" stroke-miterlimit="10"/>
    <path d="M0,54.77c7.13,0,7.13,10,14.26,10s7.13-10,14.25-10,7.13,10,14.26,10,7.12-10,14.25-10,7.13,10,14.26,10,7.12-10,14.25-10,7.13,10,14.26,10,7.13-10,14.25-10,7.13,10,14.26,10,7.13-10,14.25-10,7.13,10,14.26,10,7.13-10,14.25-10,7.13,10,14.26,10,7.13-10,14.26-10,7.12,10,14.25,10,7.13-10,14.26-10,7.12,10,14.25,10,7.13-10,14.26-10,7.13,10,14.26,10,7.12-10,14.25-10,7.13,10,14.26,10,7.12-10,14.25-10,7.13,10,14.26,10,7.13-10,14.26-10,7.12,10,14.25,10,7.13-10,14.26-10,7.13,10,14.25,10,7.13-10,14.26-10,7.13,10,14.26,10,7.12-10,14.25-10,7.13,10,14.26,10,7.13-10,14.26-10,7.12,10,14.25,10,7.13-10,14.26-10,7.13,10,14.26,10,7.12-10,14.25-10,7.13,10,14.26,10,7.13-10,14.26-10,7.12,10,14.25,10,7.13-10,14.26-10,7.13,10,14.26,10,7.13-10,14.25-10,7.13,10,14.26,10,7.13-10,14.26-10,7.13,10,14.25,10,7.13-10,14.26-10,7.13,10,14.26,10,7.13-10,14.25-10,7.13,10,14.26,10,7.13-10,14.25-10,7.13,10,14.26,10,7.12-10,14.25-10,7.13,10,14.25,10,7.13-10,14.26-10,7.13,10,14.26,10,7.12-10,14.25-10,7.13,10,14.25,10,7.13-10,14.26-10,7.13,10,14.26,10,7.12-10,14.25-10,7.13,10,14.26,10,7.13-10,14.26-10,7.12,10,14.25,10,7.13-10,14.26-10,7.13,10,14.25,10,7.13-10,14.26-10,7.13,10,14.26,10,7.13-10,14.26-10,7.12,10,14.25,10,7.13-10,14.26-10,7.13,10,14.26,10,7.13-10,14.26-10,7.13,10,14.26,10,7.13-10,14.26-10,7.12,10,14.25,10,7.13-10,14.26-10,7.13,10,14.26,10,7.13-10,14.26-10,7.13,10,14.26,10,7.13-10,14.26-10,7.13,10,14.26,10,7.13-10,14.26-10,7.13,10,14.26,10,7.13-10,14.26-10,7.13,10,14.26,10,7.13-10,14.25-10,7.13,10,14.26,10,7.13-10,14.26-10,7.13,10,14.26,10,7.13-10,14.26-10,7.13,10,14.26,10,7.13-10,14.26-10,7.13,10,14.27,10,7.13-10,14.26-10,7.13,10,14.26,10,7.13-10,14.26-10,7.13,10,14.26,10,7.14-10,14.27-10,7.13,10,14.26,10,7.13-10,14.27-10,7.13,10,14.27,10" fill="none" stroke="#c0459f" stroke-miterlimit="10"/>
    <path d="M0,74.52c7.13,0,7.13,10,14.26,10s7.13-10,14.25-10,7.13,10,14.26,10,7.12-10,14.25-10,7.13,10,14.26,10,7.12-10,14.25-10,7.13,10,14.26,10,7.13-10,14.25-10,7.13,10,14.26,10,7.13-10,14.25-10,7.13,10,14.26,10,7.13-10,14.25-10,7.13,10,14.26,10,7.13-10,14.26-10,7.12,10,14.25,10,7.13-10,14.26-10,7.12,10,14.25,10,7.13-10,14.26-10,7.13,10,14.26,10,7.12-10,14.25-10,7.13,10,14.26,10,7.12-10,14.25-10,7.13,10,14.26,10,7.13-10,14.26-10,7.12,10,14.25,10,7.13-10,14.26-10,7.13,10,14.25,10,7.13-10,14.26-10,7.13,10,14.26,10,7.12-10,14.25-10,7.13,10,14.26,10,7.13-10,14.26-10,7.12,10,14.25,10,7.13-10,14.26-10,7.13,10,14.26,10,7.12-10,14.25-10,7.13,10,14.26,10,7.13-10,14.26-10,7.12,10,14.25,10,7.13-10,14.26-10,7.13,10,14.26,10,7.13-10,14.25-10,7.13,10,14.26,10,7.13-10,14.26-10,7.13,10,14.25,10,7.13-10,14.26-10,7.13,10,14.26,10,7.13-10,14.25-10,7.13,10,14.26,10,7.13-10,14.25-10,7.13,10,14.26,10,7.12-10,14.25-10,7.13,10,14.25,10,7.13-10,14.26-10,7.13,10,14.26,10,7.12-10,14.25-10,7.13,10,14.25,10,7.13-10,14.26-10,7.13,10,14.26,10,7.12-10,14.25-10,7.13,10,14.26,10,7.13-10,14.26-10,7.12,10,14.25,10,7.13-10,14.26-10,7.13,10,14.25,10,7.13-10,14.26-10,7.13,10,14.26,10,7.13-10,14.26-10,7.12,10,14.25,10,7.13-10,14.26-10,7.13,10,14.26,10,7.13-10,14.26-10,7.13,10,14.26,10,7.13-10,14.26-10,7.12,10,14.25,10,7.13-10,14.26-10,7.13,10,14.26,10,7.13-10,14.26-10,7.13,10,14.26,10,7.13-10,14.26-10,7.13,10,14.26,10,7.13-10,14.26-10,7.13,10,14.26,10,7.13-10,14.26-10,7.13,10,14.26,10,7.13-10,14.25-10,7.13,10,14.26,10,7.13-10,14.26-10,7.13,10,14.26,10,7.13-10,14.26-10,7.13,10,14.26,10,7.13-10,14.26-10,7.13,10,14.27,10,7.13-10,14.26-10,7.13,10,14.26,10,7.13-10,14.26-10,7.13,10,14.26,10,7.14-10,14.27-10,7.13,10,14.26,10,7.13-10,14.27-10,7.13,10,14.27,10" fill="none" stroke="#c0459f" stroke-miterlimit="10"/>
    <path d="M0,94.28c7.13,0,7.13,10,14.26,10s7.13-10,14.25-10,7.13,10,14.26,10,7.12-10,14.25-10,7.13,10,14.26,10,7.12-10,14.25-10,7.13,10,14.26,10,7.13-10,14.25-10,7.13,10,14.26,10,7.13-10,14.25-10,7.13,10,14.26,10,7.13-10,14.25-10,7.13,10,14.26,10,7.13-10,14.26-10,7.12,10,14.25,10,7.13-10,14.26-10,7.12,10,14.25,10,7.13-10,14.26-10,7.13,10,14.26,10,7.12-10,14.25-10,7.13,10,14.26,10,7.12-10,14.25-10,7.13,10,14.26,10,7.13-10,14.26-10,7.12,10,14.25,10,7.13-10,14.26-10,7.13,10,14.25,10,7.13-10,14.26-10,7.13,10,14.26,10,7.12-10,14.25-10,7.13,10,14.26,10,7.13-10,14.26-10,7.12,10,14.25,10,7.13-10,14.26-10,7.13,10,14.26,10,7.12-10,14.25-10,7.13,10,14.26,10,7.13-10,14.26-10,7.12,10,14.25,10,7.13-10,14.26-10,7.13,10,14.26,10,7.13-10,14.25-10,7.13,10,14.26,10,7.13-10,14.26-10,7.13,10,14.25,10,7.13-10,14.26-10,7.13,10,14.26,10,7.13-10,14.25-10,7.13,10,14.26,10,7.13-10,14.25-10,7.13,10,14.26,10,7.12-10,14.25-10,7.13,10,14.25,10,7.13-10,14.26-10,7.13,10,14.26,10,7.12-10,14.25-10,7.13,10,14.25,10,7.13-10,14.26-10,7.13,10,14.26,10,7.12-10,14.25-10,7.13,10,14.26,10,7.13-10,14.26-10,7.12,10,14.25,10,7.13-10,14.26-10,7.13,10,14.25,10,7.13-10,14.26-10,7.13,10,14.26,10,7.13-10,14.26-10,7.12,10,14.25,10,7.13-10,14.26-10,7.13,10,14.26,10,7.13-10,14.26-10,7.13,10,14.26,10,7.13-10,14.26-10,7.12,10,14.25,10,7.13-10,14.26-10,7.13,10,14.26,10,7.13-10,14.26-10,7.13,10,14.26,10,7.13-10,14.26-10,7.13,10,14.26,10,7.13-10,14.26-10,7.13,10,14.26,10,7.13-10,14.26-10,7.13,10,14.26,10,7.13-10,14.25-10,7.13,10,14.26,10,7.13-10,14.26-10,7.13,10,14.26,10,7.13-10,14.26-10,7.13,10,14.26,10,7.13-10,14.26-10,7.13,10,14.27,10,7.13-10,14.26-10,7.13,10,14.26,10,7.13-10,14.26-10,7.13,10,14.26,10,7.14-10,14.27-10,7.13,10,14.26,10,7.13-10,14.27-10,7.13,10,14.27,10" fill="none" stroke="#c0459f" stroke-miterlimit="10"/>
    <path d="M0,114c7.13,0,7.13,10,14.26,10s7.13-10,14.25-10,7.13,10,14.26,10S49.89,114,57,114s7.13,10,14.26,10,7.12-10,14.25-10,7.13,10,14.26,10,7.13-10,14.25-10,7.13,10,14.26,10,7.13-10,14.25-10,7.13,10,14.26,10,7.13-10,14.25-10,7.13,10,14.26,10,7.13-10,14.26-10,7.12,10,14.25,10,7.13-10,14.26-10,7.12,10,14.25,10,7.13-10,14.26-10,7.13,10,14.26,10,7.12-10,14.25-10,7.13,10,14.26,10,7.12-10,14.25-10,7.13,10,14.26,10,7.13-10,14.26-10,7.12,10,14.25,10,7.13-10,14.26-10,7.13,10,14.25,10,7.13-10,14.26-10,7.13,10,14.26,10,7.12-10,14.25-10,7.13,10,14.26,10,7.13-10,14.26-10,7.12,10,14.25,10,7.13-10,14.26-10,7.13,10,14.26,10,7.12-10,14.25-10,7.13,10,14.26,10,7.13-10,14.26-10,7.12,10,14.25,10,7.13-10,14.26-10,7.13,10,14.26,10,7.13-10,14.25-10,7.13,10,14.26,10,7.13-10,14.26-10,7.13,10,14.25,10,7.13-10,14.26-10,7.13,10,14.26,10,7.13-10,14.25-10,7.13,10,14.26,10,7.13-10,14.25-10,7.13,10,14.26,10,7.12-10,14.25-10,7.13,10,14.25,10,7.13-10,14.26-10,7.13,10,14.26,10,7.12-10,14.25-10,7.13,10,14.25,10,7.13-10,14.26-10,7.13,10,14.26,10,7.12-10,14.25-10,7.13,10,14.26,10,7.13-10,14.26-10,7.12,10,14.25,10,7.13-10,14.26-10,7.13,10,14.25,10,7.13-10,14.26-10,7.13,10,14.26,10,7.13-10,14.26-10,7.12,10,14.25,10,7.13-10,14.26-10,7.13,10,14.26,10,7.13-10,14.26-10,7.13,10,14.26,10,7.13-10,14.26-10,7.12,10,14.25,10,7.13-10,14.26-10,7.13,10,14.26,10,7.13-10,14.26-10,7.13,10,14.26,10,7.13-10,14.26-10,7.13,10,14.26,10,7.13-10,14.26-10,7.13,10,14.26,10,7.13-10,14.26-10,7.13,10,14.26,10,7.13-10,14.25-10,7.13,10,14.26,10,7.13-10,14.26-10,7.13,10,14.26,10,7.13-10,14.26-10,7.13,10,14.26,10,7.13-10,14.26-10,7.13,10,14.27,10,7.13-10,14.26-10,7.13,10,14.26,10,7.13-10,14.26-10,7.13,10,14.26,10,7.14-10,14.27-10,7.13,10,14.26,10,7.13-10,14.27-10,7.13,10,14.27,10" fill="none" stroke="#c0459f" stroke-miterlimit="10"/>
    <path d="M0,133.79c7.13,0,7.13,10,14.26,10s7.13-10,14.25-10,7.13,10,14.26,10,7.12-10,14.25-10,7.13,10,14.26,10,7.12-10,14.25-10,7.13,10,14.26,10,7.13-10,14.25-10,7.13,10,14.26,10,7.13-10,14.25-10,7.13,10,14.26,10,7.13-10,14.25-10,7.13,10,14.26,10,7.13-10,14.26-10,7.12,10,14.25,10,7.13-10,14.26-10,7.12,10,14.25,10,7.13-10,14.26-10,7.13,10,14.26,10,7.12-10,14.25-10,7.13,10,14.26,10,7.12-10,14.25-10,7.13,10,14.26,10,7.13-10,14.26-10,7.12,10,14.25,10,7.13-10,14.26-10,7.13,10,14.25,10,7.13-10,14.26-10,7.13,10,14.26,10,7.12-10,14.25-10,7.13,10,14.26,10,7.13-10,14.26-10,7.12,10,14.25,10,7.13-10,14.26-10,7.13,10,14.26,10,7.12-10,14.25-10,7.13,10,14.26,10,7.13-10,14.26-10,7.12,10,14.25,10,7.13-10,14.26-10,7.13,10,14.26,10,7.13-10,14.25-10,7.13,10,14.26,10,7.13-10,14.26-10,7.13,10,14.25,10,7.13-10,14.26-10,7.13,10,14.26,10,7.13-10,14.25-10,7.13,10,14.26,10,7.13-10,14.25-10,7.13,10,14.26,10,7.12-10,14.25-10,7.13,10,14.25,10,7.13-10,14.26-10,7.13,10,14.26,10,7.12-10,14.25-10,7.13,10,14.25,10,7.13-10,14.26-10,7.13,10,14.26,10,7.12-10,14.25-10,7.13,10,14.26,10,7.13-10,14.26-10,7.12,10,14.25,10,7.13-10,14.26-10,7.13,10,14.25,10,7.13-10,14.26-10,7.13,10,14.26,10,7.13-10,14.26-10,7.12,10,14.25,10,7.13-10,14.26-10,7.13,10,14.26,10,7.13-10,14.26-10,7.13,10,14.26,10,7.13-10,14.26-10,7.12,10,14.25,10,7.13-10,14.26-10,7.13,10,14.26,10,7.13-10,14.26-10,7.13,10,14.26,10,7.13-10,14.26-10,7.13,10,14.26,10,7.13-10,14.26-10,7.13,10,14.26,10,7.13-10,14.26-10,7.13,10,14.26,10,7.13-10,14.25-10,7.13,10,14.26,10,7.13-10,14.26-10,7.13,10,14.26,10,7.13-10,14.26-10,7.13,10,14.26,10,7.13-10,14.26-10,7.13,10,14.27,10,7.13-10,14.26-10,7.13,10,14.26,10,7.13-10,14.26-10,7.13,10,14.26,10,7.14-10,14.27-10,7.13,10,14.26,10,7.13-10,14.27-10,7.13,10,14.27,10" fill="none" stroke="#c0459f" stroke-miterlimit="10"/>
    <path d="M0,153.55c7.13,0,7.13,10,14.26,10s7.13-10,14.25-10,7.13,10,14.26,10,7.12-10,14.25-10,7.13,10,14.26,10,7.12-10,14.25-10,7.13,10,14.26,10,7.13-10,14.25-10,7.13,10,14.26,10,7.13-10,14.25-10,7.13,10,14.26,10,7.13-10,14.25-10,7.13,10,14.26,10,7.13-10,14.26-10,7.12,10,14.25,10,7.13-10,14.26-10,7.12,10,14.25,10,7.13-10,14.26-10,7.13,10,14.26,10,7.12-10,14.25-10,7.13,10,14.26,10,7.12-10,14.25-10,7.13,10,14.26,10,7.13-10,14.26-10,7.12,10,14.25,10,7.13-10,14.26-10,7.13,10,14.25,10,7.13-10,14.26-10,7.13,10,14.26,10,7.12-10,14.25-10,7.13,10,14.26,10,7.13-10,14.26-10,7.12,10,14.25,10,7.13-10,14.26-10,7.13,10,14.26,10,7.12-10,14.25-10,7.13,10,14.26,10,7.13-10,14.26-10,7.12,10,14.25,10,7.13-10,14.26-10,7.13,10,14.26,10,7.13-10,14.25-10,7.13,10,14.26,10,7.13-10,14.26-10,7.13,10,14.25,10,7.13-10,14.26-10,7.13,10,14.26,10,7.13-10,14.25-10,7.13,10,14.26,10,7.13-10,14.25-10,7.13,10,14.26,10,7.12-10,14.25-10,7.13,10,14.25,10,7.13-10,14.26-10,7.13,10,14.26,10,7.12-10,14.25-10,7.13,10,14.25,10,7.13-10,14.26-10,7.13,10,14.26,10,7.12-10,14.25-10,7.13,10,14.26,10,7.13-10,14.26-10,7.12,10,14.25,10,7.13-10,14.26-10,7.13,10,14.25,10,7.13-10,14.26-10,7.13,10,14.26,10,7.13-10,14.26-10,7.12,10,14.25,10,7.13-10,14.26-10,7.13,10,14.26,10,7.13-10,14.26-10,7.13,10,14.26,10,7.13-10,14.26-10,7.12,10,14.25,10,7.13-10,14.26-10,7.13,10,14.26,10,7.13-10,14.26-10,7.13,10,14.26,10,7.13-10,14.26-10,7.13,10,14.26,10,7.13-10,14.26-10,7.13,10,14.26,10,7.13-10,14.26-10,7.13,10,14.26,10,7.13-10,14.25-10,7.13,10,14.26,10,7.13-10,14.26-10,7.13,10,14.26,10,7.13-10,14.26-10,7.13,10,14.26,10,7.13-10,14.26-10,7.13,10,14.27,10,7.13-10,14.26-10,7.13,10,14.26,10,7.13-10,14.26-10,7.13,10,14.26,10,7.14-10,14.27-10,7.13,10,14.26,10,7.13-10,14.27-10,7.13,10,14.27,10" fill="none" stroke="#c0459f" stroke-miterlimit="10"/>
    <path d="M0,173.3c7.13,0,7.13,10,14.26,10s7.13-10,14.25-10,7.13,10,14.26,10,7.12-10,14.25-10,7.13,10,14.26,10,7.12-10,14.25-10,7.13,10,14.26,10,7.13-10,14.25-10,7.13,10,14.26,10,7.13-10,14.25-10,7.13,10,14.26,10,7.13-10,14.25-10,7.13,10,14.26,10,7.13-10,14.26-10,7.12,10,14.25,10,7.13-10,14.26-10,7.12,10,14.25,10,7.13-10,14.26-10,7.13,10,14.26,10,7.12-10,14.25-10,7.13,10,14.26,10,7.12-10,14.25-10,7.13,10,14.26,10,7.13-10,14.26-10,7.12,10,14.25,10,7.13-10,14.26-10,7.13,10,14.25,10,7.13-10,14.26-10,7.13,10,14.26,10,7.12-10,14.25-10,7.13,10,14.26,10,7.13-10,14.26-10,7.12,10,14.25,10,7.13-10,14.26-10,7.13,10,14.26,10,7.12-10,14.25-10,7.13,10,14.26,10,7.13-10,14.26-10,7.12,10,14.25,10,7.13-10,14.26-10,7.13,10,14.26,10,7.13-10,14.25-10,7.13,10,14.26,10,7.13-10,14.26-10,7.13,10,14.25,10,7.13-10,14.26-10,7.13,10,14.26,10,7.13-10,14.25-10,7.13,10,14.26,10,7.13-10,14.25-10,7.13,10,14.26,10,7.12-10,14.25-10,7.13,10,14.25,10,7.13-10,14.26-10,7.13,10,14.26,10,7.12-10,14.25-10,7.13,10,14.25,10,7.13-10,14.26-10,7.13,10,14.26,10,7.12-10,14.25-10,7.13,10,14.26,10,7.13-10,14.26-10,7.12,10,14.25,10,7.13-10,14.26-10,7.13,10,14.25,10,7.13-10,14.26-10,7.13,10,14.26,10,7.13-10,14.26-10,7.12,10,14.25,10,7.13-10,14.26-10,7.13,10,14.26,10,7.13-10,14.26-10,7.13,10,14.26,10,7.13-10,14.26-10,7.12,10,14.25,10,7.13-10,14.26-10,7.13,10,14.26,10,7.13-10,14.26-10,7.13,10,14.26,10,7.13-10,14.26-10,7.13,10,14.26,10,7.13-10,14.26-10,7.13,10,14.26,10,7.13-10,14.26-10,7.13,10,14.26,10,7.13-10,14.25-10,7.13,10,14.26,10,7.13-10,14.26-10,7.13,10,14.26,10,7.13-10,14.26-10,7.13,10,14.26,10,7.13-10,14.26-10,7.13,10,14.27,10,7.13-10,14.26-10,7.13,10,14.26,10,7.13-10,14.26-10,7.13,10,14.26,10,7.14-10,14.27-10,7.13,10,14.26,10,7.13-10,14.27-10,7.13,10,14.27,10" fill="none" stroke="#c0459f" stroke-miterlimit="10"/>
    <path d="M0,193.06c7.13,0,7.13,10,14.26,10s7.13-10,14.25-10,7.13,10,14.26,10,7.12-10,14.25-10,7.13,10,14.26,10,7.12-10,14.25-10,7.13,10,14.26,10,7.13-10,14.25-10,7.13,10,14.26,10,7.13-10,14.25-10,7.13,10,14.26,10,7.13-10,14.25-10,7.13,10,14.26,10,7.13-10,14.26-10,7.12,10,14.25,10,7.13-10,14.26-10,7.12,10,14.25,10,7.13-10,14.26-10,7.13,10,14.26,10,7.12-10,14.25-10,7.13,10,14.26,10,7.12-10,14.25-10,7.13,10,14.26,10,7.13-10,14.26-10,7.12,10,14.25,10,7.13-10,14.26-10,7.13,10,14.25,10,7.13-10,14.26-10,7.13,10,14.26,10,7.12-10,14.25-10,7.13,10,14.26,10,7.13-10,14.26-10,7.12,10,14.25,10,7.13-10,14.26-10,7.13,10,14.26,10,7.12-10,14.25-10,7.13,10,14.26,10,7.13-10,14.26-10,7.12,10,14.25,10,7.13-10,14.26-10,7.13,10,14.26,10,7.13-10,14.25-10,7.13,10,14.26,10,7.13-10,14.26-10,7.13,10,14.25,10,7.13-10,14.26-10,7.13,10,14.26,10,7.13-10,14.25-10,7.13,10,14.26,10,7.13-10,14.25-10,7.13,10,14.26,10,7.12-10,14.25-10,7.13,10,14.25,10,7.13-10,14.26-10,7.13,10,14.26,10,7.12-10,14.25-10,7.13,10,14.25,10,7.13-10,14.26-10,7.13,10,14.26,10,7.12-10,14.25-10,7.13,10,14.26,10,7.13-10,14.26-10,7.12,10,14.25,10,7.13-10,14.26-10,7.13,10,14.25,10,7.13-10,14.26-10,7.13,10,14.26,10,7.13-10,14.26-10,7.12,10,14.25,10,7.13-10,14.26-10,7.13,10,14.26,10,7.13-10,14.26-10,7.13,10,14.26,10,7.13-10,14.26-10,7.12,10,14.25,10,7.13-10,14.26-10,7.13,10,14.26,10,7.13-10,14.26-10,7.13,10,14.26,10,7.13-10,14.26-10,7.13,10,14.26,10,7.13-10,14.26-10,7.13,10,14.26,10,7.13-10,14.26-10,7.13,10,14.26,10,7.13-10,14.25-10,7.13,10,14.26,10,7.13-10,14.26-10,7.13,10,14.26,10,7.13-10,14.26-10,7.13,10,14.26,10,7.13-10,14.26-10,7.13,10,14.27,10,7.13-10,14.26-10,7.13,10,14.26,10,7.13-10,14.26-10,7.13,10,14.26,10,7.14-10,14.27-10,7.13,10,14.26,10,7.13-10,14.27-10,7.13,10,14.27,10" fill="none" stroke="#c0459f" stroke-miterlimit="10"/>
    <path d="M0,212.82c7.13,0,7.13,10,14.26,10s7.13-10,14.25-10,7.13,10,14.26,10,7.12-10,14.25-10,7.13,10,14.26,10,7.12-10,14.25-10,7.13,10,14.26,10,7.13-10,14.25-10,7.13,10,14.26,10,7.13-10,14.25-10,7.13,10,14.26,10,7.13-10,14.25-10,7.13,10,14.26,10,7.13-10,14.26-10,7.12,10,14.25,10,7.13-10,14.26-10,7.12,10,14.25,10,7.13-10,14.26-10,7.13,10,14.26,10,7.12-10,14.25-10,7.13,10,14.26,10,7.12-10,14.25-10,7.13,10,14.26,10,7.13-10,14.26-10,7.12,10,14.25,10,7.13-10,14.26-10,7.13,10,14.25,10,7.13-10,14.26-10,7.13,10,14.26,10,7.12-10,14.25-10,7.13,10,14.26,10,7.13-10,14.26-10,7.12,10,14.25,10,7.13-10,14.26-10,7.13,10,14.26,10,7.12-10,14.25-10,7.13,10,14.26,10,7.13-10,14.26-10,7.12,10,14.25,10,7.13-10,14.26-10,7.13,10,14.26,10,7.13-10,14.25-10,7.13,10,14.26,10,7.13-10,14.26-10,7.13,10,14.25,10,7.13-10,14.26-10,7.13,10,14.26,10,7.13-10,14.25-10,7.13,10,14.26,10,7.13-10,14.25-10,7.13,10,14.26,10,7.12-10,14.25-10,7.13,10,14.25,10,7.13-10,14.26-10,7.13,10,14.26,10,7.12-10,14.25-10,7.13,10,14.25,10,7.13-10,14.26-10,7.13,10,14.26,10,7.12-10,14.25-10,7.13,10,14.26,10,7.13-10,14.26-10,7.12,10,14.25,10,7.13-10,14.26-10,7.13,10,14.25,10,7.13-10,14.26-10,7.13,10,14.26,10,7.13-10,14.26-10,7.12,10,14.25,10,7.13-10,14.26-10,7.13,10,14.26,10,7.13-10,14.26-10,7.13,10,14.26,10,7.13-10,14.26-10,7.12,10,14.25,10,7.13-10,14.26-10,7.13,10,14.26,10,7.13-10,14.26-10,7.13,10,14.26,10,7.13-10,14.26-10,7.13,10,14.26,10,7.13-10,14.26-10,7.13,10,14.26,10,7.13-10,14.26-10,7.13,10,14.26,10,7.13-10,14.25-10,7.13,10,14.26,10,7.13-10,14.26-10,7.13,10,14.26,10,7.13-10,14.26-10,7.13,10,14.26,10,7.13-10,14.26-10,7.13,10,14.27,10,7.13-10,14.26-10,7.13,10,14.26,10,7.13-10,14.26-10,7.13,10,14.26,10,7.14-10,14.27-10,7.13,10,14.26,10,7.13-10,14.27-10,7.13,10,14.27,10" fill="none" stroke="#c0459f" stroke-miterlimit="10"/>
    <path d="M0,232.57c7.13,0,7.13,10,14.26,10s7.13-10,14.25-10,7.13,10,14.26,10,7.12-10,14.25-10,7.13,10,14.26,10,7.12-10,14.25-10,7.13,10,14.26,10,7.13-10,14.25-10,7.13,10,14.26,10,7.13-10,14.25-10,7.13,10,14.26,10,7.13-10,14.25-10,7.13,10,14.26,10,7.13-10,14.26-10,7.12,10,14.25,10,7.13-10,14.26-10,7.12,10,14.25,10,7.13-10,14.26-10,7.13,10,14.26,10,7.12-10,14.25-10,7.13,10,14.26,10,7.12-10,14.25-10,7.13,10,14.26,10,7.13-10,14.26-10,7.12,10,14.25,10,7.13-10,14.26-10,7.13,10,14.25,10,7.13-10,14.26-10,7.13,10,14.26,10,7.12-10,14.25-10,7.13,10,14.26,10,7.13-10,14.26-10,7.12,10,14.25,10,7.13-10,14.26-10,7.13,10,14.26,10,7.12-10,14.25-10,7.13,10,14.26,10,7.13-10,14.26-10,7.12,10,14.25,10,7.13-10,14.26-10,7.13,10,14.26,10,7.13-10,14.25-10,7.13,10,14.26,10,7.13-10,14.26-10,7.13,10,14.25,10,7.13-10,14.26-10,7.13,10,14.26,10,7.13-10,14.25-10,7.13,10,14.26,10,7.13-10,14.25-10,7.13,10,14.26,10,7.12-10,14.25-10,7.13,10,14.25,10,7.13-10,14.26-10,7.13,10,14.26,10,7.12-10,14.25-10,7.13,10,14.25,10,7.13-10,14.26-10,7.13,10,14.26,10,7.12-10,14.25-10,7.13,10,14.26,10,7.13-10,14.26-10,7.12,10,14.25,10,7.13-10,14.26-10,7.13,10,14.25,10,7.13-10,14.26-10,7.13,10,14.26,10,7.13-10,14.26-10,7.12,10,14.25,10,7.13-10,14.26-10,7.13,10,14.26,10,7.13-10,14.26-10,7.13,10,14.26,10,7.13-10,14.26-10,7.12,10,14.25,10,7.13-10,14.26-10,7.13,10,14.26,10,7.13-10,14.26-10,7.13,10,14.26,10,7.13-10,14.26-10,7.13,10,14.26,10,7.13-10,14.26-10,7.13,10,14.26,10,7.13-10,14.26-10,7.13,10,14.26,10,7.13-10,14.25-10,7.13,10,14.26,10,7.13-10,14.26-10,7.13,10,14.26,10,7.13-10,14.26-10,7.13,10,14.26,10,7.13-10,14.26-10,7.13,10,14.27,10,7.13-10,14.26-10,7.13,10,14.26,10,7.13-10,14.26-10,7.13,10,14.26,10,7.14-10,14.27-10,7.13,10,14.26,10,7.13-10,14.27-10,7.13,10,14.27,10" fill="none" stroke="#c0459f" stroke-miterlimit="10"/>
    <path d="M0,252.33c7.13,0,7.13,10,14.26,10s7.13-10,14.25-10,7.13,10,14.26,10,7.12-10,14.25-10,7.13,10,14.26,10,7.12-10,14.25-10,7.13,10,14.26,10,7.13-10,14.25-10,7.13,10,14.26,10,7.13-10,14.25-10,7.13,10,14.26,10,7.13-10,14.25-10,7.13,10,14.26,10,7.13-10,14.26-10,7.12,10,14.25,10,7.13-10,14.26-10,7.12,10,14.25,10,7.13-10,14.26-10,7.13,10,14.26,10,7.12-10,14.25-10,7.13,10,14.26,10,7.12-10,14.25-10,7.13,10,14.26,10,7.13-10,14.26-10,7.12,10,14.25,10,7.13-10,14.26-10,7.13,10,14.25,10,7.13-10,14.26-10,7.13,10,14.26,10,7.12-10,14.25-10,7.13,10,14.26,10,7.13-10,14.26-10,7.12,10,14.25,10,7.13-10,14.26-10,7.13,10,14.26,10,7.12-10,14.25-10,7.13,10,14.26,10,7.13-10,14.26-10,7.12,10,14.25,10,7.13-10,14.26-10,7.13,10,14.26,10,7.13-10,14.25-10,7.13,10,14.26,10,7.13-10,14.26-10,7.13,10,14.25,10,7.13-10,14.26-10,7.13,10,14.26,10,7.13-10,14.25-10,7.13,10,14.26,10,7.13-10,14.25-10,7.13,10,14.26,10,7.12-10,14.25-10,7.13,10,14.25,10,7.13-10,14.26-10,7.13,10,14.26,10,7.12-10,14.25-10,7.13,10,14.25,10,7.13-10,14.26-10,7.13,10,14.26,10,7.12-10,14.25-10,7.13,10,14.26,10,7.13-10,14.26-10,7.12,10,14.25,10,7.13-10,14.26-10,7.13,10,14.25,10,7.13-10,14.26-10,7.13,10,14.26,10,7.13-10,14.26-10,7.12,10,14.25,10,7.13-10,14.26-10,7.13,10,14.26,10,7.13-10,14.26-10,7.13,10,14.26,10,7.13-10,14.26-10,7.12,10,14.25,10,7.13-10,14.26-10,7.13,10,14.26,10,7.13-10,14.26-10,7.13,10,14.26,10,7.13-10,14.26-10,7.13,10,14.26,10,7.13-10,14.26-10,7.13,10,14.26,10,7.13-10,14.26-10,7.13,10,14.26,10,7.13-10,14.25-10,7.13,10,14.26,10,7.13-10,14.26-10,7.13,10,14.26,10,7.13-10,14.26-10,7.13,10,14.26,10,7.13-10,14.26-10,7.13,10,14.27,10,7.13-10,14.26-10,7.13,10,14.26,10,7.13-10,14.26-10,7.13,10,14.26,10,7.14-10,14.27-10,7.13,10,14.26,10,7.13-10,14.27-10,7.13,10,14.27,10" fill="none" stroke="#c0459f" stroke-miterlimit="10"/>
    <path d="M0,272.09c7.13,0,7.13,10,14.26,10s7.13-10,14.25-10,7.13,10,14.26,10,7.12-10,14.25-10,7.13,10,14.26,10,7.12-10,14.25-10,7.13,10,14.26,10,7.13-10,14.25-10,7.13,10,14.26,10,7.13-10,14.25-10,7.13,10,14.26,10,7.13-10,14.25-10,7.13,10,14.26,10,7.13-10,14.26-10,7.12,10,14.25,10,7.13-10,14.26-10,7.12,10,14.25,10,7.13-10,14.26-10,7.13,10,14.26,10,7.12-10,14.25-10,7.13,10,14.26,10,7.12-10,14.25-10,7.13,10,14.26,10,7.13-10,14.26-10,7.12,10,14.25,10,7.13-10,14.26-10,7.13,10,14.25,10,7.13-10,14.26-10,7.13,10,14.26,10,7.12-10,14.25-10,7.13,10,14.26,10,7.13-10,14.26-10,7.12,10,14.25,10,7.13-10,14.26-10,7.13,10,14.26,10,7.12-10,14.25-10,7.13,10,14.26,10,7.13-10,14.26-10,7.12,10,14.25,10,7.13-10,14.26-10,7.13,10,14.26,10,7.13-10,14.25-10,7.13,10,14.26,10,7.13-10,14.26-10,7.13,10,14.25,10,7.13-10,14.26-10,7.13,10,14.26,10,7.13-10,14.25-10,7.13,10,14.26,10,7.13-10,14.25-10,7.13,10,14.26,10,7.12-10,14.25-10,7.13,10,14.25,10,7.13-10,14.26-10,7.13,10,14.26,10,7.12-10,14.25-10,7.13,10,14.25,10,7.13-10,14.26-10,7.13,10,14.26,10,7.12-10,14.25-10,7.13,10,14.26,10,7.13-10,14.26-10,7.12,10,14.25,10,7.13-10,14.26-10,7.13,10,14.25,10,7.13-10,14.26-10,7.13,10,14.26,10,7.13-10,14.26-10,7.12,10,14.25,10,7.13-10,14.26-10,7.13,10,14.26,10,7.13-10,14.26-10,7.13,10,14.26,10,7.13-10,14.26-10,7.12,10,14.25,10,7.13-10,14.26-10,7.13,10,14.26,10,7.13-10,14.26-10,7.13,10,14.26,10,7.13-10,14.26-10,7.13,10,14.26,10,7.13-10,14.26-10,7.13,10,14.26,10,7.13-10,14.26-10,7.13,10,14.26,10,7.13-10,14.25-10,7.13,10,14.26,10,7.13-10,14.26-10,7.13,10,14.26,10,7.13-10,14.26-10,7.13,10,14.26,10,7.13-10,14.26-10,7.13,10,14.27,10,7.13-10,14.26-10,7.13,10,14.26,10,7.13-10,14.26-10,7.13,10,14.26,10,7.14-10,14.27-10,7.13,10,14.26,10,7.13-10,14.27-10,7.13,10,14.27,10" fill="none" stroke="#c0459f" stroke-miterlimit="10"/>
    <path d="M0,291.84c7.13,0,7.13,10,14.26,10s7.13-10,14.25-10,7.13,10,14.26,10,7.12-10,14.25-10,7.13,10,14.26,10,7.12-10,14.25-10,7.13,10,14.26,10,7.13-10,14.25-10,7.13,10,14.26,10,7.13-10,14.25-10,7.13,10,14.26,10,7.13-10,14.25-10,7.13,10,14.26,10,7.13-10,14.26-10,7.12,10,14.25,10,7.13-10,14.26-10,7.12,10,14.25,10,7.13-10,14.26-10,7.13,10,14.26,10,7.12-10,14.25-10,7.13,10,14.26,10,7.12-10,14.25-10,7.13,10,14.26,10,7.13-10,14.26-10,7.12,10,14.25,10,7.13-10,14.26-10,7.13,10,14.25,10,7.13-10,14.26-10,7.13,10,14.26,10,7.12-10,14.25-10,7.13,10,14.26,10,7.13-10,14.26-10,7.12,10,14.25,10,7.13-10,14.26-10,7.13,10,14.26,10,7.12-10,14.25-10,7.13,10,14.26,10,7.13-10,14.26-10,7.12,10,14.25,10,7.13-10,14.26-10,7.13,10,14.26,10,7.13-10,14.25-10,7.13,10,14.26,10,7.13-10,14.26-10,7.13,10,14.25,10,7.13-10,14.26-10,7.13,10,14.26,10,7.13-10,14.25-10,7.13,10,14.26,10,7.13-10,14.25-10,7.13,10,14.26,10,7.12-10,14.25-10,7.13,10,14.25,10,7.13-10,14.26-10,7.13,10,14.26,10,7.12-10,14.25-10,7.13,10,14.25,10,7.13-10,14.26-10,7.13,10,14.26,10,7.12-10,14.25-10,7.13,10,14.26,10,7.13-10,14.26-10,7.12,10,14.25,10,7.13-10,14.26-10,7.13,10,14.25,10,7.13-10,14.26-10,7.13,10,14.26,10,7.13-10,14.26-10,7.12,10,14.25,10,7.13-10,14.26-10,7.13,10,14.26,10,7.13-10,14.26-10,7.13,10,14.26,10,7.13-10,14.26-10,7.12,10,14.25,10,7.13-10,14.26-10,7.13,10,14.26,10,7.13-10,14.26-10,7.13,10,14.26,10,7.13-10,14.26-10,7.13,10,14.26,10,7.13-10,14.26-10,7.13,10,14.26,10,7.13-10,14.26-10,7.13,10,14.26,10,7.13-10,14.25-10,7.13,10,14.26,10,7.13-10,14.26-10,7.13,10,14.26,10,7.13-10,14.26-10,7.13,10,14.26,10,7.13-10,14.26-10,7.13,10,14.27,10,7.13-10,14.26-10,7.13,10,14.26,10,7.13-10,14.26-10,7.13,10,14.26,10,7.14-10,14.27-10,7.13,10,14.26,10,7.13-10,14.27-10,7.13,10,14.27,10" fill="none" stroke="#c0459f" stroke-miterlimit="10"/>
    <path d="M0,311.6c7.13,0,7.13,10,14.26,10s7.13-10,14.25-10,7.13,10,14.26,10,7.12-10,14.25-10,7.13,10,14.26,10,7.12-10,14.25-10,7.13,10,14.26,10,7.13-10,14.25-10,7.13,10,14.26,10,7.13-10,14.25-10,7.13,10,14.26,10,7.13-10,14.25-10,7.13,10,14.26,10,7.13-10,14.26-10,7.12,10,14.25,10,7.13-10,14.26-10,7.12,10,14.25,10,7.13-10,14.26-10,7.13,10,14.26,10,7.12-10,14.25-10,7.13,10,14.26,10,7.12-10,14.25-10,7.13,10,14.26,10,7.13-10,14.26-10,7.12,10,14.25,10,7.13-10,14.26-10,7.13,10,14.25,10,7.13-10,14.26-10,7.13,10,14.26,10,7.12-10,14.25-10,7.13,10,14.26,10,7.13-10,14.26-10,7.12,10,14.25,10,7.13-10,14.26-10,7.13,10,14.26,10,7.12-10,14.25-10,7.13,10,14.26,10,7.13-10,14.26-10,7.12,10,14.25,10,7.13-10,14.26-10,7.13,10,14.26,10,7.13-10,14.25-10,7.13,10,14.26,10,7.13-10,14.26-10,7.13,10,14.25,10,7.13-10,14.26-10,7.13,10,14.26,10,7.13-10,14.25-10,7.13,10,14.26,10,7.13-10,14.25-10,7.13,10,14.26,10,7.12-10,14.25-10,7.13,10,14.25,10,7.13-10,14.26-10,7.13,10,14.26,10,7.12-10,14.25-10,7.13,10,14.25,10,7.13-10,14.26-10,7.13,10,14.26,10,7.12-10,14.25-10,7.13,10,14.26,10,7.13-10,14.26-10,7.12,10,14.25,10,7.13-10,14.26-10,7.13,10,14.25,10,7.13-10,14.26-10,7.13,10,14.26,10,7.13-10,14.26-10,7.12,10,14.25,10,7.13-10,14.26-10,7.13,10,14.26,10,7.13-10,14.26-10,7.13,10,14.26,10,7.13-10,14.26-10,7.12,10,14.25,10,7.13-10,14.26-10,7.13,10,14.26,10,7.13-10,14.26-10,7.13,10,14.26,10,7.13-10,14.26-10,7.13,10,14.26,10,7.13-10,14.26-10,7.13,10,14.26,10,7.13-10,14.26-10,7.13,10,14.26,10,7.13-10,14.25-10,7.13,10,14.26,10,7.13-10,14.26-10,7.13,10,14.26,10,7.13-10,14.26-10,7.13,10,14.26,10,7.13-10,14.26-10,7.13,10,14.27,10,7.13-10,14.26-10,7.13,10,14.26,10,7.13-10,14.26-10,7.13,10,14.26,10,7.14-10,14.27-10,7.13,10,14.26,10,7.13-10,14.27-10,7.13,10,14.27,10" fill="none" stroke="#c0459f" stroke-miterlimit="10"/>
    <path d="M0,331.35c7.13,0,7.13,10,14.26,10s7.13-10,14.25-10,7.13,10,14.26,10,7.12-10,14.25-10,7.13,10,14.26,10,7.12-10,14.25-10,7.13,10,14.26,10,7.13-10,14.25-10,7.13,10,14.26,10,7.13-10,14.25-10,7.13,10,14.26,10,7.13-10,14.25-10,7.13,10,14.26,10,7.13-10,14.26-10,7.12,10,14.25,10,7.13-10,14.26-10,7.12,10,14.25,10,7.13-10,14.26-10,7.13,10,14.26,10,7.12-10,14.25-10,7.13,10,14.26,10,7.12-10,14.25-10,7.13,10,14.26,10,7.13-10,14.26-10,7.12,10,14.25,10,7.13-10,14.26-10,7.13,10,14.25,10,7.13-10,14.26-10,7.13,10,14.26,10,7.12-10,14.25-10,7.13,10,14.26,10,7.13-10,14.26-10,7.12,10,14.25,10,7.13-10,14.26-10,7.13,10,14.26,10,7.12-10,14.25-10,7.13,10,14.26,10,7.13-10,14.26-10,7.12,10,14.25,10,7.13-10,14.26-10,7.13,10,14.26,10,7.13-10,14.25-10,7.13,10,14.26,10,7.13-10,14.26-10,7.13,10,14.25,10,7.13-10,14.26-10,7.13,10,14.26,10,7.13-10,14.25-10,7.13,10,14.26,10,7.13-10,14.25-10,7.13,10,14.26,10,7.12-10,14.25-10,7.13,10,14.25,10,7.13-10,14.26-10,7.13,10,14.26,10,7.12-10,14.25-10,7.13,10,14.25,10,7.13-10,14.26-10,7.13,10,14.26,10,7.12-10,14.25-10,7.13,10,14.26,10,7.13-10,14.26-10,7.12,10,14.25,10,7.13-10,14.26-10,7.13,10,14.25,10,7.13-10,14.26-10,7.13,10,14.26,10,7.13-10,14.26-10,7.12,10,14.25,10,7.13-10,14.26-10,7.13,10,14.26,10,7.13-10,14.26-10,7.13,10,14.26,10,7.13-10,14.26-10,7.12,10,14.25,10,7.13-10,14.26-10,7.13,10,14.26,10,7.13-10,14.26-10,7.13,10,14.26,10,7.13-10,14.26-10,7.13,10,14.26,10,7.13-10,14.26-10,7.13,10,14.26,10,7.13-10,14.26-10,7.13,10,14.26,10,7.13-10,14.25-10,7.13,10,14.26,10,7.13-10,14.26-10,7.13,10,14.26,10,7.13-10,14.26-10,7.13,10,14.26,10,7.13-10,14.26-10,7.13,10,14.27,10,7.13-10,14.26-10,7.13,10,14.26,10,7.13-10,14.26-10,7.13,10,14.26,10,7.14-10,14.27-10,7.13,10,14.26,10,7.13-10,14.27-10,7.13,10,14.27,10" fill="none" stroke="#c0459f" stroke-miterlimit="10"/>
    <path d="M0,351.11c7.13,0,7.13,10,14.26,10s7.13-10,14.25-10,7.13,10,14.26,10,7.12-10,14.25-10,7.13,10,14.26,10,7.12-10,14.25-10,7.13,10,14.26,10,7.13-10,14.25-10,7.13,10,14.26,10,7.13-10,14.25-10,7.13,10,14.26,10,7.13-10,14.25-10,7.13,10,14.26,10,7.13-10,14.26-10,7.12,10,14.25,10,7.13-10,14.26-10,7.12,10,14.25,10,7.13-10,14.26-10,7.13,10,14.26,10,7.12-10,14.25-10,7.13,10,14.26,10,7.12-10,14.25-10,7.13,10,14.26,10,7.13-10,14.26-10,7.12,10,14.25,10,7.13-10,14.26-10,7.13,10,14.25,10,7.13-10,14.26-10,7.13,10,14.26,10,7.12-10,14.25-10,7.13,10,14.26,10,7.13-10,14.26-10,7.12,10,14.25,10,7.13-10,14.26-10,7.13,10,14.26,10,7.12-10,14.25-10,7.13,10,14.26,10,7.13-10,14.26-10,7.12,10,14.25,10,7.13-10,14.26-10,7.13,10,14.26,10,7.13-10,14.25-10,7.13,10,14.26,10,7.13-10,14.26-10,7.13,10,14.25,10,7.13-10,14.26-10,7.13,10,14.26,10,7.13-10,14.25-10,7.13,10,14.26,10,7.13-10,14.25-10,7.13,10,14.26,10,7.12-10,14.25-10,7.13,10,14.25,10,7.13-10,14.26-10,7.13,10,14.26,10,7.12-10,14.25-10,7.13,10,14.25,10,7.13-10,14.26-10,7.13,10,14.26,10,7.12-10,14.25-10,7.13,10,14.26,10,7.13-10,14.26-10,7.12,10,14.25,10,7.13-10,14.26-10,7.13,10,14.25,10,7.13-10,14.26-10,7.13,10,14.26,10,7.13-10,14.26-10,7.12,10,14.25,10,7.13-10,14.26-10,7.13,10,14.26,10,7.13-10,14.26-10,7.13,10,14.26,10,7.13-10,14.26-10,7.12,10,14.25,10,7.13-10,14.26-10,7.13,10,14.26,10,7.13-10,14.26-10,7.13,10,14.26,10,7.13-10,14.26-10,7.13,10,14.26,10,7.13-10,14.26-10,7.13,10,14.26,10,7.13-10,14.26-10,7.13,10,14.26,10,7.13-10,14.25-10,7.13,10,14.26,10,7.13-10,14.26-10,7.13,10,14.26,10,7.13-10,14.26-10,7.13,10,14.26,10,7.13-10,14.26-10,7.13,10,14.27,10,7.13-10,14.26-10,7.13,10,14.26,10,7.13-10,14.26-10,7.13,10,14.26,10,7.14-10,14.27-10,7.13,10,14.26,10,7.13-10,14.27-10,7.13,10,14.27,10" fill="none" stroke="#c0459f" stroke-miterlimit="10"/>
    <path d="M0,370.87c7.13,0,7.13,10,14.26,10s7.13-10,14.25-10,7.13,10,14.26,10,7.12-10,14.25-10,7.13,10,14.26,10,7.12-10,14.25-10,7.13,10,14.26,10,7.13-10,14.25-10,7.13,10,14.26,10,7.13-10,14.25-10,7.13,10,14.26,10,7.13-10,14.25-10,7.13,10,14.26,10,7.13-10,14.26-10,7.12,10,14.25,10,7.13-10,14.26-10,7.12,10,14.25,10,7.13-10,14.26-10,7.13,10,14.26,10,7.12-10,14.25-10,7.13,10,14.26,10,7.12-10,14.25-10,7.13,10,14.26,10,7.13-10,14.26-10,7.12,10,14.25,10,7.13-10,14.26-10,7.13,10,14.25,10,7.13-10,14.26-10,7.13,10,14.26,10,7.12-10,14.25-10,7.13,10,14.26,10,7.13-10,14.26-10,7.12,10,14.25,10,7.13-10,14.26-10,7.13,10,14.26,10,7.12-10,14.25-10,7.13,10,14.26,10,7.13-10,14.26-10,7.12,10,14.25,10,7.13-10,14.26-10,7.13,10,14.26,10,7.13-10,14.25-10,7.13,10,14.26,10,7.13-10,14.26-10,7.13,10,14.25,10,7.13-10,14.26-10,7.13,10,14.26,10,7.13-10,14.25-10,7.13,10,14.26,10,7.13-10,14.25-10,7.13,10,14.26,10,7.12-10,14.25-10,7.13,10,14.25,10,7.13-10,14.26-10,7.13,10,14.26,10,7.12-10,14.25-10,7.13,10,14.25,10,7.13-10,14.26-10,7.13,10,14.26,10,7.12-10,14.25-10,7.13,10,14.26,10,7.13-10,14.26-10,7.12,10,14.25,10,7.13-10,14.26-10,7.13,10,14.25,10,7.13-10,14.26-10,7.13,10,14.26,10,7.13-10,14.26-10,7.12,10,14.25,10,7.13-10,14.26-10,7.13,10,14.26,10,7.13-10,14.26-10,7.13,10,14.26,10,7.13-10,14.26-10,7.12,10,14.25,10,7.13-10,14.26-10,7.13,10,14.26,10,7.13-10,14.26-10,7.13,10,14.26,10,7.13-10,14.26-10,7.13,10,14.26,10,7.13-10,14.26-10,7.13,10,14.26,10,7.13-10,14.26-10,7.13,10,14.26,10,7.13-10,14.25-10,7.13,10,14.26,10,7.13-10,14.26-10,7.13,10,14.26,10,7.13-10,14.26-10,7.13,10,14.26,10,7.13-10,14.26-10,7.13,10,14.27,10,7.13-10,14.26-10,7.13,10,14.26,10,7.13-10,14.26-10,7.13,10,14.26,10,7.14-10,14.27-10,7.13,10,14.26,10,7.13-10,14.27-10,7.13,10,14.27,10" fill="none" stroke="#c0459f" stroke-miterlimit="10"/>
    <path d="M0,390.62c7.13,0,7.13,10,14.26,10s7.13-10,14.25-10,7.13,10,14.26,10,7.12-10,14.25-10,7.13,10,14.26,10,7.12-10,14.25-10,7.13,10,14.26,10,7.13-10,14.25-10,7.13,10,14.26,10,7.13-10,14.25-10,7.13,10,14.26,10,7.13-10,14.25-10,7.13,10,14.26,10,7.13-10,14.26-10,7.12,10,14.25,10,7.13-10,14.26-10,7.12,10,14.25,10,7.13-10,14.26-10,7.13,10,14.26,10,7.12-10,14.25-10,7.13,10,14.26,10,7.12-10,14.25-10,7.13,10,14.26,10,7.13-10,14.26-10,7.12,10,14.25,10,7.13-10,14.26-10,7.13,10,14.25,10,7.13-10,14.26-10,7.13,10,14.26,10,7.12-10,14.25-10,7.13,10,14.26,10,7.13-10,14.26-10,7.12,10,14.25,10,7.13-10,14.26-10,7.13,10,14.26,10,7.12-10,14.25-10,7.13,10,14.26,10,7.13-10,14.26-10,7.12,10,14.25,10,7.13-10,14.26-10,7.13,10,14.26,10,7.13-10,14.25-10,7.13,10,14.26,10,7.13-10,14.26-10,7.13,10,14.25,10,7.13-10,14.26-10,7.13,10,14.26,10,7.13-10,14.25-10,7.13,10,14.26,10,7.13-10,14.25-10,7.13,10,14.26,10,7.12-10,14.25-10,7.13,10,14.25,10,7.13-10,14.26-10,7.13,10,14.26,10,7.12-10,14.25-10,7.13,10,14.25,10,7.13-10,14.26-10,7.13,10,14.26,10,7.12-10,14.25-10,7.13,10,14.26,10,7.13-10,14.26-10,7.12,10,14.25,10,7.13-10,14.26-10,7.13,10,14.25,10,7.13-10,14.26-10,7.13,10,14.26,10,7.13-10,14.26-10,7.12,10,14.25,10,7.13-10,14.26-10,7.13,10,14.26,10,7.13-10,14.26-10,7.13,10,14.26,10,7.13-10,14.26-10,7.12,10,14.25,10,7.13-10,14.26-10,7.13,10,14.26,10,7.13-10,14.26-10,7.13,10,14.26,10,7.13-10,14.26-10,7.13,10,14.26,10,7.13-10,14.26-10,7.13,10,14.26,10,7.13-10,14.26-10,7.13,10,14.26,10,7.13-10,14.25-10,7.13,10,14.26,10,7.13-10,14.26-10,7.13,10,14.26,10,7.13-10,14.26-10,7.13,10,14.26,10,7.13-10,14.26-10,7.13,10,14.27,10,7.13-10,14.26-10,7.13,10,14.26,10,7.13-10,14.26-10,7.13,10,14.26,10,7.14-10,14.27-10,7.13,10,14.26,10,7.13-10,14.27-10,7.13,10,14.27,10" fill="none" stroke="#c0459f" stroke-miterlimit="10"/>
    <path d="M0,410.38c7.13,0,7.13,10,14.26,10s7.13-10,14.25-10,7.13,10,14.26,10,7.12-10,14.25-10,7.13,10,14.26,10,7.12-10,14.25-10,7.13,10,14.26,10,7.13-10,14.25-10,7.13,10,14.26,10,7.13-10,14.25-10,7.13,10,14.26,10,7.13-10,14.25-10,7.13,10,14.26,10,7.13-10,14.26-10,7.12,10,14.25,10,7.13-10,14.26-10,7.12,10,14.25,10,7.13-10,14.26-10,7.13,10,14.26,10,7.12-10,14.25-10,7.13,10,14.26,10,7.12-10,14.25-10,7.13,10,14.26,10,7.13-10,14.26-10,7.12,10,14.25,10,7.13-10,14.26-10,7.13,10,14.25,10,7.13-10,14.26-10,7.13,10,14.26,10,7.12-10,14.25-10,7.13,10,14.26,10,7.13-10,14.26-10,7.12,10,14.25,10,7.13-10,14.26-10,7.13,10,14.26,10,7.12-10,14.25-10,7.13,10,14.26,10,7.13-10,14.26-10,7.12,10,14.25,10,7.13-10,14.26-10,7.13,10,14.26,10,7.13-10,14.25-10,7.13,10,14.26,10,7.13-10,14.26-10,7.13,10,14.25,10,7.13-10,14.26-10,7.13,10,14.26,10,7.13-10,14.25-10,7.13,10,14.26,10,7.13-10,14.25-10,7.13,10,14.26,10,7.12-10,14.25-10,7.13,10,14.25,10,7.13-10,14.26-10,7.13,10,14.26,10,7.12-10,14.25-10,7.13,10,14.25,10,7.13-10,14.26-10,7.13,10,14.26,10,7.12-10,14.25-10,7.13,10,14.26,10,7.13-10,14.26-10,7.12,10,14.25,10,7.13-10,14.26-10,7.13,10,14.25,10,7.13-10,14.26-10,7.13,10,14.26,10,7.13-10,14.26-10,7.12,10,14.25,10,7.13-10,14.26-10,7.13,10,14.26,10,7.13-10,14.26-10,7.13,10,14.26,10,7.13-10,14.26-10,7.12,10,14.25,10,7.13-10,14.26-10,7.13,10,14.26,10,7.13-10,14.26-10,7.13,10,14.26,10,7.13-10,14.26-10,7.13,10,14.26,10,7.13-10,14.26-10,7.13,10,14.26,10,7.13-10,14.26-10,7.13,10,14.26,10,7.13-10,14.25-10,7.13,10,14.26,10,7.13-10,14.26-10,7.13,10,14.26,10,7.13-10,14.26-10,7.13,10,14.26,10,7.13-10,14.26-10,7.13,10,14.27,10,7.13-10,14.26-10,7.13,10,14.26,10,7.13-10,14.26-10,7.13,10,14.26,10,7.14-10,14.27-10,7.13,10,14.26,10,7.13-10,14.27-10,7.13,10,14.27,10" fill="none" stroke="#c0459f" stroke-miterlimit="10"/>
    <path d="M0,430.13c7.13,0,7.13,10,14.26,10s7.13-10,14.25-10,7.13,10,14.26,10,7.12-10,14.25-10,7.13,10,14.26,10,7.12-10,14.25-10,7.13,10,14.26,10,7.13-10,14.25-10,7.13,10,14.26,10,7.13-10,14.25-10,7.13,10,14.26,10,7.13-10,14.25-10,7.13,10,14.26,10,7.13-10,14.26-10,7.12,10,14.25,10,7.13-10,14.26-10,7.12,10,14.25,10,7.13-10,14.26-10,7.13,10,14.26,10,7.12-10,14.25-10,7.13,10,14.26,10,7.12-10,14.25-10,7.13,10,14.26,10,7.13-10,14.26-10,7.12,10,14.25,10,7.13-10,14.26-10,7.13,10,14.25,10,7.13-10,14.26-10,7.13,10,14.26,10,7.12-10,14.25-10,7.13,10,14.26,10,7.13-10,14.26-10,7.12,10,14.25,10,7.13-10,14.26-10,7.13,10,14.26,10,7.12-10,14.25-10,7.13,10,14.26,10,7.13-10,14.26-10,7.12,10,14.25,10,7.13-10,14.26-10,7.13,10,14.26,10,7.13-10,14.25-10,7.13,10,14.26,10,7.13-10,14.26-10,7.13,10,14.25,10,7.13-10,14.26-10,7.13,10,14.26,10,7.13-10,14.25-10,7.13,10,14.26,10,7.13-10,14.25-10,7.13,10,14.26,10,7.12-10,14.25-10,7.13,10,14.25,10,7.13-10,14.26-10,7.13,10,14.26,10,7.12-10,14.25-10,7.13,10,14.25,10,7.13-10,14.26-10,7.13,10,14.26,10,7.12-10,14.25-10,7.13,10,14.26,10,7.13-10,14.26-10,7.12,10,14.25,10,7.13-10,14.26-10,7.13,10,14.25,10,7.13-10,14.26-10,7.13,10,14.26,10,7.13-10,14.26-10,7.12,10,14.25,10,7.13-10,14.26-10,7.13,10,14.26,10,7.13-10,14.26-10,7.13,10,14.26,10,7.13-10,14.26-10,7.12,10,14.25,10,7.13-10,14.26-10,7.13,10,14.26,10,7.13-10,14.26-10,7.13,10,14.26,10,7.13-10,14.26-10,7.13,10,14.26,10,7.13-10,14.26-10,7.13,10,14.26,10,7.13-10,14.26-10,7.13,10,14.26,10,7.13-10,14.25-10,7.13,10,14.26,10,7.13-10,14.26-10,7.13,10,14.26,10,7.13-10,14.26-10,7.13,10,14.26,10,7.13-10,14.26-10,7.13,10,14.27,10,7.13-10,14.26-10,7.13,10,14.26,10,7.13-10,14.26-10,7.13,10,14.26,10,7.14-10,14.27-10,7.13,10,14.26,10,7.13-10,14.27-10,7.13,10,14.27,10" fill="none" stroke="#c0459f" stroke-miterlimit="10"/>
    <path d="M0,449.89c7.13,0,7.13,10,14.26,10s7.13-10,14.25-10,7.13,10,14.26,10,7.12-10,14.25-10,7.13,10,14.26,10,7.12-10,14.25-10,7.13,10,14.26,10,7.13-10,14.25-10,7.13,10,14.26,10,7.13-10,14.25-10,7.13,10,14.26,10,7.13-10,14.25-10,7.13,10,14.26,10,7.13-10,14.26-10,7.12,10,14.25,10,7.13-10,14.26-10,7.12,10,14.25,10,7.13-10,14.26-10,7.13,10,14.26,10,7.12-10,14.25-10,7.13,10,14.26,10,7.12-10,14.25-10,7.13,10,14.26,10,7.13-10,14.26-10,7.12,10,14.25,10,7.13-10,14.26-10,7.13,10,14.25,10,7.13-10,14.26-10,7.13,10,14.26,10,7.12-10,14.25-10,7.13,10,14.26,10,7.13-10,14.26-10,7.12,10,14.25,10,7.13-10,14.26-10,7.13,10,14.26,10,7.12-10,14.25-10,7.13,10,14.26,10,7.13-10,14.26-10,7.12,10,14.25,10,7.13-10,14.26-10,7.13,10,14.26,10,7.13-10,14.25-10,7.13,10,14.26,10,7.13-10,14.26-10,7.13,10,14.25,10,7.13-10,14.26-10,7.13,10,14.26,10,7.13-10,14.25-10,7.13,10,14.26,10,7.13-10,14.25-10,7.13,10,14.26,10,7.12-10,14.25-10,7.13,10,14.25,10,7.13-10,14.26-10,7.13,10,14.26,10,7.12-10,14.25-10,7.13,10,14.25,10,7.13-10,14.26-10,7.13,10,14.26,10,7.12-10,14.25-10,7.13,10,14.26,10,7.13-10,14.26-10,7.12,10,14.25,10,7.13-10,14.26-10,7.13,10,14.25,10,7.13-10,14.26-10,7.13,10,14.26,10,7.13-10,14.26-10,7.12,10,14.25,10,7.13-10,14.26-10,7.13,10,14.26,10,7.13-10,14.26-10,7.13,10,14.26,10,7.13-10,14.26-10,7.12,10,14.25,10,7.13-10,14.26-10,7.13,10,14.26,10,7.13-10,14.26-10,7.13,10,14.26,10,7.13-10,14.26-10,7.13,10,14.26,10,7.13-10,14.26-10,7.13,10,14.26,10,7.13-10,14.26-10,7.13,10,14.26,10,7.13-10,14.25-10,7.13,10,14.26,10,7.13-10,14.26-10,7.13,10,14.26,10,7.13-10,14.26-10,7.13,10,14.26,10,7.13-10,14.26-10,7.13,10,14.27,10,7.13-10,14.26-10,7.13,10,14.26,10,7.13-10,14.26-10,7.13,10,14.26,10,7.14-10,14.27-10,7.13,10,14.26,10,7.13-10,14.27-10,7.13,10,14.27,10" fill="none" stroke="#c0459f" stroke-miterlimit="10"/>
    <path d="M0,469.65c7.13,0,7.13,10,14.26,10s7.13-10,14.25-10,7.13,10,14.26,10,7.12-10,14.25-10,7.13,10,14.26,10,7.12-10,14.25-10,7.13,10,14.26,10,7.13-10,14.25-10,7.13,10,14.26,10,7.13-10,14.25-10,7.13,10,14.26,10,7.13-10,14.25-10,7.13,10,14.26,10,7.13-10,14.26-10,7.12,10,14.25,10,7.13-10,14.26-10,7.12,10,14.25,10,7.13-10,14.26-10,7.13,10,14.26,10,7.12-10,14.25-10,7.13,10,14.26,10,7.12-10,14.25-10,7.13,10,14.26,10,7.13-10,14.26-10,7.12,10,14.25,10,7.13-10,14.26-10,7.13,10,14.25,10,7.13-10,14.26-10,7.13,10,14.26,10,7.12-10,14.25-10,7.13,10,14.26,10,7.13-10,14.26-10,7.12,10,14.25,10,7.13-10,14.26-10,7.13,10,14.26,10,7.12-10,14.25-10,7.13,10,14.26,10,7.13-10,14.26-10,7.12,10,14.25,10,7.13-10,14.26-10,7.13,10,14.26,10,7.13-10,14.25-10,7.13,10,14.26,10,7.13-10,14.26-10,7.13,10,14.25,10,7.13-10,14.26-10,7.13,10,14.26,10,7.13-10,14.25-10,7.13,10,14.26,10,7.13-10,14.25-10,7.13,10,14.26,10,7.12-10,14.25-10,7.13,10,14.25,10,7.13-10,14.26-10,7.13,10,14.26,10,7.12-10,14.25-10,7.13,10,14.25,10,7.13-10,14.26-10,7.13,10,14.26,10,7.12-10,14.25-10,7.13,10,14.26,10,7.13-10,14.26-10,7.12,10,14.25,10,7.13-10,14.26-10,7.13,10,14.25,10,7.13-10,14.26-10,7.13,10,14.26,10,7.13-10,14.26-10,7.12,10,14.25,10,7.13-10,14.26-10,7.13,10,14.26,10,7.13-10,14.26-10,7.13,10,14.26,10,7.13-10,14.26-10,7.12,10,14.25,10,7.13-10,14.26-10,7.13,10,14.26,10,7.13-10,14.26-10,7.13,10,14.26,10,7.13-10,14.26-10,7.13,10,14.26,10,7.13-10,14.26-10,7.13,10,14.26,10,7.13-10,14.26-10,7.13,10,14.26,10,7.13-10,14.25-10,7.13,10,14.26,10,7.13-10,14.26-10,7.13,10,14.26,10,7.13-10,14.26-10,7.13,10,14.26,10,7.13-10,14.26-10,7.13,10,14.27,10,7.13-10,14.26-10,7.13,10,14.26,10,7.13-10,14.26-10,7.13,10,14.26,10,7.14-10,14.27-10,7.13,10,14.26,10,7.13-10,14.27-10,7.13,10,14.27,10" fill="none" stroke="#c0459f" stroke-miterlimit="10"/>
    <path d="M0,489.4c7.13,0,7.13,10,14.26,10s7.13-10,14.25-10,7.13,10,14.26,10,7.12-10,14.25-10,7.13,10,14.26,10,7.12-10,14.25-10,7.13,10,14.26,10,7.13-10,14.25-10,7.13,10,14.26,10,7.13-10,14.25-10,7.13,10,14.26,10,7.13-10,14.25-10,7.13,10,14.26,10,7.13-10,14.26-10,7.12,10,14.25,10,7.13-10,14.26-10,7.12,10,14.25,10,7.13-10,14.26-10,7.13,10,14.26,10,7.12-10,14.25-10,7.13,10,14.26,10,7.12-10,14.25-10,7.13,10,14.26,10,7.13-10,14.26-10,7.12,10,14.25,10,7.13-10,14.26-10,7.13,10,14.25,10,7.13-10,14.26-10,7.13,10,14.26,10,7.12-10,14.25-10,7.13,10,14.26,10,7.13-10,14.26-10,7.12,10,14.25,10,7.13-10,14.26-10,7.13,10,14.26,10,7.12-10,14.25-10,7.13,10,14.26,10,7.13-10,14.26-10,7.12,10,14.25,10,7.13-10,14.26-10,7.13,10,14.26,10,7.13-10,14.25-10,7.13,10,14.26,10,7.13-10,14.26-10,7.13,10,14.25,10,7.13-10,14.26-10,7.13,10,14.26,10,7.13-10,14.25-10,7.13,10,14.26,10,7.13-10,14.25-10,7.13,10,14.26,10,7.12-10,14.25-10,7.13,10,14.25,10,7.13-10,14.26-10,7.13,10,14.26,10,7.12-10,14.25-10,7.13,10,14.25,10,7.13-10,14.26-10,7.13,10,14.26,10,7.12-10,14.25-10,7.13,10,14.26,10,7.13-10,14.26-10,7.12,10,14.25,10,7.13-10,14.26-10,7.13,10,14.25,10,7.13-10,14.26-10,7.13,10,14.26,10,7.13-10,14.26-10,7.12,10,14.25,10,7.13-10,14.26-10,7.13,10,14.26,10,7.13-10,14.26-10,7.13,10,14.26,10,7.13-10,14.26-10,7.12,10,14.25,10,7.13-10,14.26-10,7.13,10,14.26,10,7.13-10,14.26-10,7.13,10,14.26,10,7.13-10,14.26-10,7.13,10,14.26,10,7.13-10,14.26-10,7.13,10,14.26,10,7.13-10,14.26-10,7.13,10,14.26,10,7.13-10,14.25-10,7.13,10,14.26,10,7.13-10,14.26-10,7.13,10,14.26,10,7.13-10,14.26-10,7.13,10,14.26,10,7.13-10,14.26-10,7.13,10,14.27,10,7.13-10,14.26-10,7.13,10,14.26,10,7.13-10,14.26-10,7.13,10,14.26,10,7.14-10,14.27-10,7.13,10,14.26,10,7.13-10,14.27-10,7.13,10,14.27,10" fill="none" stroke="#c0459f" stroke-miterlimit="10"/>
    <path d="M0,509.16c7.13,0,7.13,10,14.26,10s7.13-10,14.25-10,7.13,10,14.26,10,7.12-10,14.25-10,7.13,10,14.26,10,7.12-10,14.25-10,7.13,10,14.26,10,7.13-10,14.25-10,7.13,10,14.26,10,7.13-10,14.25-10,7.13,10,14.26,10,7.13-10,14.25-10,7.13,10,14.26,10,7.13-10,14.26-10,7.12,10,14.25,10,7.13-10,14.26-10,7.12,10,14.25,10,7.13-10,14.26-10,7.13,10,14.26,10,7.12-10,14.25-10,7.13,10,14.26,10,7.12-10,14.25-10,7.13,10,14.26,10,7.13-10,14.26-10,7.12,10,14.25,10,7.13-10,14.26-10,7.13,10,14.25,10,7.13-10,14.26-10,7.13,10,14.26,10,7.12-10,14.25-10,7.13,10,14.26,10,7.13-10,14.26-10,7.12,10,14.25,10,7.13-10,14.26-10,7.13,10,14.26,10,7.12-10,14.25-10,7.13,10,14.26,10,7.13-10,14.26-10,7.12,10,14.25,10,7.13-10,14.26-10,7.13,10,14.26,10,7.13-10,14.25-10,7.13,10,14.26,10,7.13-10,14.26-10,7.13,10,14.25,10,7.13-10,14.26-10,7.13,10,14.26,10,7.13-10,14.25-10,7.13,10,14.26,10,7.13-10,14.25-10,7.13,10,14.26,10,7.12-10,14.25-10,7.13,10,14.25,10,7.13-10,14.26-10,7.13,10,14.26,10,7.12-10,14.25-10,7.13,10,14.25,10,7.13-10,14.26-10,7.13,10,14.26,10,7.12-10,14.25-10,7.13,10,14.26,10,7.13-10,14.26-10,7.12,10,14.25,10,7.13-10,14.26-10,7.13,10,14.25,10,7.13-10,14.26-10,7.13,10,14.26,10,7.13-10,14.26-10,7.12,10,14.25,10,7.13-10,14.26-10,7.13,10,14.26,10,7.13-10,14.26-10,7.13,10,14.26,10,7.13-10,14.26-10,7.12,10,14.25,10,7.13-10,14.26-10,7.13,10,14.26,10,7.13-10,14.26-10,7.13,10,14.26,10,7.13-10,14.26-10,7.13,10,14.26,10,7.13-10,14.26-10,7.13,10,14.26,10,7.13-10,14.26-10,7.13,10,14.26,10,7.13-10,14.25-10,7.13,10,14.26,10,7.13-10,14.26-10,7.13,10,14.26,10,7.13-10,14.26-10,7.13,10,14.26,10,7.13-10,14.26-10,7.13,10,14.27,10,7.13-10,14.26-10,7.13,10,14.26,10,7.13-10,14.26-10,7.13,10,14.26,10,7.14-10,14.27-10,7.13,10,14.26,10,7.13-10,14.27-10,7.13,10,14.27,10" fill="none" stroke="#c0459f" stroke-miterlimit="10"/>
    <path d="M0,528.91c7.13,0,7.13,10,14.26,10s7.13-10,14.25-10,7.13,10,14.26,10,7.12-10,14.25-10,7.13,10,14.26,10,7.12-10,14.25-10,7.13,10,14.26,10,7.13-10,14.25-10,7.13,10,14.26,10,7.13-10,14.25-10,7.13,10,14.26,10,7.13-10,14.25-10,7.13,10,14.26,10,7.13-10,14.26-10,7.12,10,14.25,10,7.13-10,14.26-10,7.12,10,14.25,10,7.13-10,14.26-10,7.13,10,14.26,10,7.12-10,14.25-10,7.13,10,14.26,10,7.12-10,14.25-10,7.13,10,14.26,10,7.13-10,14.26-10,7.12,10,14.25,10,7.13-10,14.26-10,7.13,10,14.25,10,7.13-10,14.26-10,7.13,10,14.26,10,7.12-10,14.25-10,7.13,10,14.26,10,7.13-10,14.26-10,7.12,10,14.25,10,7.13-10,14.26-10,7.13,10,14.26,10,7.12-10,14.25-10,7.13,10,14.26,10,7.13-10,14.26-10,7.12,10,14.25,10,7.13-10,14.26-10,7.13,10,14.26,10,7.13-10,14.25-10,7.13,10,14.26,10,7.13-10,14.26-10,7.13,10,14.25,10,7.13-10,14.26-10,7.13,10,14.26,10,7.13-10,14.25-10,7.13,10,14.26,10,7.13-10,14.25-10,7.13,10,14.26,10,7.12-10,14.25-10,7.13,10,14.25,10,7.13-10,14.26-10,7.13,10,14.26,10,7.12-10,14.25-10,7.13,10,14.25,10,7.13-10,14.26-10,7.13,10,14.26,10,7.12-10,14.25-10,7.13,10,14.26,10,7.13-10,14.26-10,7.12,10,14.25,10,7.13-10,14.26-10,7.13,10,14.25,10,7.13-10,14.26-10,7.13,10,14.26,10,7.13-10,14.26-10,7.12,10,14.25,10,7.13-10,14.26-10,7.13,10,14.26,10,7.13-10,14.26-10,7.13,10,14.26,10,7.13-10,14.26-10,7.12,10,14.25,10,7.13-10,14.26-10,7.13,10,14.26,10,7.13-10,14.26-10,7.13,10,14.26,10,7.13-10,14.26-10,7.13,10,14.26,10,7.13-10,14.26-10,7.13,10,14.26,10,7.13-10,14.26-10,7.13,10,14.26,10,7.13-10,14.25-10,7.13,10,14.26,10,7.13-10,14.26-10,7.13,10,14.26,10,7.13-10,14.26-10,7.13,10,14.26,10,7.13-10,14.26-10,7.13,10,14.27,10,7.13-10,14.26-10,7.13,10,14.26,10,7.13-10,14.26-10,7.13,10,14.26,10,7.14-10,14.27-10,7.13,10,14.26,10,7.13-10,14.27-10,7.13,10,14.27,10" fill="none" stroke="#c0459f" stroke-miterlimit="10"/>
    <path d="M0,548.67c7.13,0,7.13,10,14.26,10s7.13-10,14.25-10,7.13,10,14.26,10,7.12-10,14.25-10,7.13,10,14.26,10,7.12-10,14.25-10,7.13,10,14.26,10,7.13-10,14.25-10,7.13,10,14.26,10,7.13-10,14.25-10,7.13,10,14.26,10,7.13-10,14.25-10,7.13,10,14.26,10,7.13-10,14.26-10,7.12,10,14.25,10,7.13-10,14.26-10,7.12,10,14.25,10,7.13-10,14.26-10,7.13,10,14.26,10,7.12-10,14.25-10,7.13,10,14.26,10,7.12-10,14.25-10,7.13,10,14.26,10,7.13-10,14.26-10,7.12,10,14.25,10,7.13-10,14.26-10,7.13,10,14.25,10,7.13-10,14.26-10,7.13,10,14.26,10,7.12-10,14.25-10,7.13,10,14.26,10,7.13-10,14.26-10,7.12,10,14.25,10,7.13-10,14.26-10,7.13,10,14.26,10,7.12-10,14.25-10,7.13,10,14.26,10,7.13-10,14.26-10,7.12,10,14.25,10,7.13-10,14.26-10,7.13,10,14.26,10,7.13-10,14.25-10,7.13,10,14.26,10,7.13-10,14.26-10,7.13,10,14.25,10,7.13-10,14.26-10,7.13,10,14.26,10,7.13-10,14.25-10,7.13,10,14.26,10,7.13-10,14.25-10,7.13,10,14.26,10,7.12-10,14.25-10,7.13,10,14.25,10,7.13-10,14.26-10,7.13,10,14.26,10,7.12-10,14.25-10,7.13,10,14.25,10,7.13-10,14.26-10,7.13,10,14.26,10,7.12-10,14.25-10,7.13,10,14.26,10,7.13-10,14.26-10,7.12,10,14.25,10,7.13-10,14.26-10,7.13,10,14.25,10,7.13-10,14.26-10,7.13,10,14.26,10,7.13-10,14.26-10,7.12,10,14.25,10,7.13-10,14.26-10,7.13,10,14.26,10,7.13-10,14.26-10,7.13,10,14.26,10,7.13-10,14.26-10,7.12,10,14.25,10,7.13-10,14.26-10,7.13,10,14.26,10,7.13-10,14.26-10,7.13,10,14.26,10,7.13-10,14.26-10,7.13,10,14.26,10,7.13-10,14.26-10,7.13,10,14.26,10,7.13-10,14.26-10,7.13,10,14.26,10,7.13-10,14.25-10,7.13,10,14.26,10,7.13-10,14.26-10,7.13,10,14.26,10,7.13-10,14.26-10,7.13,10,14.26,10,7.13-10,14.26-10,7.13,10,14.27,10,7.13-10,14.26-10,7.13,10,14.26,10,7.13-10,14.26-10,7.13,10,14.26,10,7.14-10,14.27-10,7.13,10,14.26,10,7.13-10,14.27-10,7.13,10,14.27,10" fill="none" stroke="#c0459f" stroke-miterlimit="10"/>
    <path d="M0,568.43c7.13,0,7.13,10,14.26,10s7.13-10,14.25-10,7.13,10,14.26,10,7.12-10,14.25-10,7.13,10,14.26,10,7.12-10,14.25-10,7.13,10,14.26,10,7.13-10,14.25-10,7.13,10,14.26,10,7.13-10,14.25-10,7.13,10,14.26,10,7.13-10,14.25-10,7.13,10,14.26,10,7.13-10,14.26-10,7.12,10,14.25,10,7.13-10,14.26-10,7.12,10,14.25,10,7.13-10,14.26-10,7.13,10,14.26,10,7.12-10,14.25-10,7.13,10,14.26,10,7.12-10,14.25-10,7.13,10,14.26,10,7.13-10,14.26-10,7.12,10,14.25,10,7.13-10,14.26-10,7.13,10,14.25,10,7.13-10,14.26-10,7.13,10,14.26,10,7.12-10,14.25-10,7.13,10,14.26,10,7.13-10,14.26-10,7.12,10,14.25,10,7.13-10,14.26-10,7.13,10,14.26,10,7.12-10,14.25-10,7.13,10,14.26,10,7.13-10,14.26-10,7.12,10,14.25,10,7.13-10,14.26-10,7.13,10,14.26,10,7.13-10,14.25-10,7.13,10,14.26,10,7.13-10,14.26-10,7.13,10,14.25,10,7.13-10,14.26-10,7.13,10,14.26,10,7.13-10,14.25-10,7.13,10,14.26,10,7.13-10,14.25-10,7.13,10,14.26,10,7.12-10,14.25-10,7.13,10,14.25,10,7.13-10,14.26-10,7.13,10,14.26,10,7.12-10,14.25-10,7.13,10,14.25,10,7.13-10,14.26-10,7.13,10,14.26,10,7.12-10,14.25-10,7.13,10,14.26,10,7.13-10,14.26-10,7.12,10,14.25,10,7.13-10,14.26-10,7.13,10,14.25,10,7.13-10,14.26-10,7.13,10,14.26,10,7.13-10,14.26-10,7.12,10,14.25,10,7.13-10,14.26-10,7.13,10,14.26,10,7.13-10,14.26-10,7.13,10,14.26,10,7.13-10,14.26-10,7.12,10,14.25,10,7.13-10,14.26-10,7.13,10,14.26,10,7.13-10,14.26-10,7.13,10,14.26,10,7.13-10,14.26-10,7.13,10,14.26,10,7.13-10,14.26-10,7.13,10,14.26,10,7.13-10,14.26-10,7.13,10,14.26,10,7.13-10,14.25-10,7.13,10,14.26,10,7.13-10,14.26-10,7.13,10,14.26,10,7.13-10,14.26-10,7.13,10,14.26,10,7.13-10,14.26-10,7.13,10,14.27,10,7.13-10,14.26-10,7.13,10,14.26,10,7.13-10,14.26-10,7.13,10,14.26,10,7.14-10,14.27-10,7.13,10,14.26,10,7.13-10,14.27-10,7.13,10,14.27,10" fill="none" stroke="#c0459f" stroke-miterlimit="10"/>
    <path d="M0,588.18c7.13,0,7.13,10,14.26,10s7.13-10,14.25-10,7.13,10,14.26,10,7.12-10,14.25-10,7.13,10,14.26,10,7.12-10,14.25-10,7.13,10,14.26,10,7.13-10,14.25-10,7.13,10,14.26,10,7.13-10,14.25-10,7.13,10,14.26,10,7.13-10,14.25-10,7.13,10,14.26,10,7.13-10,14.26-10,7.12,10,14.25,10,7.13-10,14.26-10,7.12,10,14.25,10,7.13-10,14.26-10,7.13,10,14.26,10,7.12-10,14.25-10,7.13,10,14.26,10,7.12-10,14.25-10,7.13,10,14.26,10,7.13-10,14.26-10,7.12,10,14.25,10,7.13-10,14.26-10,7.13,10,14.25,10,7.13-10,14.26-10,7.13,10,14.26,10,7.12-10,14.25-10,7.13,10,14.26,10,7.13-10,14.26-10,7.12,10,14.25,10,7.13-10,14.26-10,7.13,10,14.26,10,7.12-10,14.25-10,7.13,10,14.26,10,7.13-10,14.26-10,7.12,10,14.25,10,7.13-10,14.26-10,7.13,10,14.26,10,7.13-10,14.25-10,7.13,10,14.26,10,7.13-10,14.26-10,7.13,10,14.25,10,7.13-10,14.26-10,7.13,10,14.26,10,7.13-10,14.25-10,7.13,10,14.26,10,7.13-10,14.25-10,7.13,10,14.26,10,7.12-10,14.25-10,7.13,10,14.25,10,7.13-10,14.26-10,7.13,10,14.26,10,7.12-10,14.25-10,7.13,10,14.25,10,7.13-10,14.26-10,7.13,10,14.26,10,7.12-10,14.25-10,7.13,10,14.26,10,7.13-10,14.26-10,7.12,10,14.25,10,7.13-10,14.26-10,7.13,10,14.25,10,7.13-10,14.26-10,7.13,10,14.26,10,7.13-10,14.26-10,7.12,10,14.25,10,7.13-10,14.26-10,7.13,10,14.26,10,7.13-10,14.26-10,7.13,10,14.26,10,7.13-10,14.26-10,7.12,10,14.25,10,7.13-10,14.26-10,7.13,10,14.26,10,7.13-10,14.26-10,7.13,10,14.26,10,7.13-10,14.26-10,7.13,10,14.26,10,7.13-10,14.26-10,7.13,10,14.26,10,7.13-10,14.26-10,7.13,10,14.26,10,7.13-10,14.25-10,7.13,10,14.26,10,7.13-10,14.26-10,7.13,10,14.26,10,7.13-10,14.26-10,7.13,10,14.26,10,7.13-10,14.26-10,7.13,10,14.27,10,7.13-10,14.26-10,7.13,10,14.26,10,7.13-10,14.26-10,7.13,10,14.26,10,7.14-10,14.27-10,7.13,10,14.26,10,7.13-10,14.27-10,7.13,10,14.27,10" fill="none" stroke="#c0459f" stroke-miterlimit="10"/>
    <path d="M0,607.94c7.13,0,7.13,10,14.26,10s7.13-10,14.25-10,7.13,10,14.26,10,7.12-10,14.25-10,7.13,10,14.26,10,7.12-10,14.25-10,7.13,10,14.26,10,7.13-10,14.25-10,7.13,10,14.26,10,7.13-10,14.25-10,7.13,10,14.26,10,7.13-10,14.25-10,7.13,10,14.26,10,7.13-10,14.26-10,7.12,10,14.25,10,7.13-10,14.26-10,7.12,10,14.25,10,7.13-10,14.26-10,7.13,10,14.26,10,7.12-10,14.25-10,7.13,10,14.26,10,7.12-10,14.25-10,7.13,10,14.26,10,7.13-10,14.26-10,7.12,10,14.25,10,7.13-10,14.26-10,7.13,10,14.25,10,7.13-10,14.26-10,7.13,10,14.26,10,7.12-10,14.25-10,7.13,10,14.26,10,7.13-10,14.26-10,7.12,10,14.25,10,7.13-10,14.26-10,7.13,10,14.26,10,7.12-10,14.25-10,7.13,10,14.26,10,7.13-10,14.26-10,7.12,10,14.25,10,7.13-10,14.26-10,7.13,10,14.26,10,7.13-10,14.25-10,7.13,10,14.26,10,7.13-10,14.26-10,7.13,10,14.25,10,7.13-10,14.26-10,7.13,10,14.26,10,7.13-10,14.25-10,7.13,10,14.26,10,7.13-10,14.25-10,7.13,10,14.26,10,7.12-10,14.25-10,7.13,10,14.25,10,7.13-10,14.26-10,7.13,10,14.26,10,7.12-10,14.25-10,7.13,10,14.25,10,7.13-10,14.26-10,7.13,10,14.26,10,7.12-10,14.25-10,7.13,10,14.26,10,7.13-10,14.26-10,7.12,10,14.25,10,7.13-10,14.26-10,7.13,10,14.25,10,7.13-10,14.26-10,7.13,10,14.26,10,7.13-10,14.26-10,7.12,10,14.25,10,7.13-10,14.26-10,7.13,10,14.26,10,7.13-10,14.26-10,7.13,10,14.26,10,7.13-10,14.26-10,7.12,10,14.25,10,7.13-10,14.26-10,7.13,10,14.26,10,7.13-10,14.26-10,7.13,10,14.26,10,7.13-10,14.26-10,7.13,10,14.26,10,7.13-10,14.26-10,7.13,10,14.26,10,7.13-10,14.26-10,7.13,10,14.26,10,7.13-10,14.25-10,7.13,10,14.26,10,7.13-10,14.26-10,7.13,10,14.26,10,7.13-10,14.26-10,7.13,10,14.26,10,7.13-10,14.26-10,7.13,10,14.27,10,7.13-10,14.26-10,7.13,10,14.26,10,7.13-10,14.26-10,7.13,10,14.26,10,7.14-10,14.27-10,7.13,10,14.26,10,7.13-10,14.27-10,7.13,10,14.27,10" fill="none" stroke="#c0459f" stroke-miterlimit="10"/>
    <path d="M0,627.7c7.13,0,7.13,10,14.26,10s7.13-10,14.25-10,7.13,10,14.26,10,7.12-10,14.25-10,7.13,10,14.26,10,7.12-10,14.25-10,7.13,10,14.26,10,7.13-10,14.25-10,7.13,10,14.26,10,7.13-10,14.25-10,7.13,10,14.26,10,7.13-10,14.25-10,7.13,10,14.26,10,7.13-10,14.26-10,7.12,10,14.25,10,7.13-10,14.26-10,7.12,10,14.25,10,7.13-10,14.26-10,7.13,10,14.26,10,7.12-10,14.25-10,7.13,10,14.26,10,7.12-10,14.25-10,7.13,10,14.26,10,7.13-10,14.26-10,7.12,10,14.25,10,7.13-10,14.26-10,7.13,10,14.25,10,7.13-10,14.26-10,7.13,10,14.26,10,7.12-10,14.25-10,7.13,10,14.26,10,7.13-10,14.26-10,7.12,10,14.25,10,7.13-10,14.26-10,7.13,10,14.26,10,7.12-10,14.25-10,7.13,10,14.26,10,7.13-10,14.26-10,7.12,10,14.25,10,7.13-10,14.26-10,7.13,10,14.26,10,7.13-10,14.25-10,7.13,10,14.26,10,7.13-10,14.26-10,7.13,10,14.25,10,7.13-10,14.26-10,7.13,10,14.26,10,7.13-10,14.25-10,7.13,10,14.26,10,7.13-10,14.25-10,7.13,10,14.26,10,7.12-10,14.25-10,7.13,10,14.25,10,7.13-10,14.26-10,7.13,10,14.26,10,7.12-10,14.25-10,7.13,10,14.25,10,7.13-10,14.26-10,7.13,10,14.26,10,7.12-10,14.25-10,7.13,10,14.26,10,7.13-10,14.26-10,7.12,10,14.25,10,7.13-10,14.26-10,7.13,10,14.25,10,7.13-10,14.26-10,7.13,10,14.26,10,7.13-10,14.26-10,7.12,10,14.25,10,7.13-10,14.26-10,7.13,10,14.26,10,7.13-10,14.26-10,7.13,10,14.26,10,7.13-10,14.26-10,7.12,10,14.25,10,7.13-10,14.26-10,7.13,10,14.26,10,7.13-10,14.26-10,7.13,10,14.26,10,7.13-10,14.26-10,7.13,10,14.26,10,7.13-10,14.26-10,7.13,10,14.26,10,7.13-10,14.26-10,7.13,10,14.26,10,7.13-10,14.25-10,7.13,10,14.26,10,7.13-10,14.26-10,7.13,10,14.26,10,7.13-10,14.26-10,7.13,10,14.26,10,7.13-10,14.26-10,7.13,10,14.27,10,7.13-10,14.26-10,7.13,10,14.26,10,7.13-10,14.26-10,7.13,10,14.26,10,7.14-10,14.27-10,7.13,10,14.26,10,7.13-10,14.27-10,7.13,10,14.27,10" fill="none" stroke="#c0459f" stroke-miterlimit="10"/>
    <path d="M0,647.45c7.13,0,7.13,10,14.26,10s7.13-10,14.25-10,7.13,10,14.26,10,7.12-10,14.25-10,7.13,10,14.26,10,7.12-10,14.25-10,7.13,10,14.26,10,7.13-10,14.25-10,7.13,10,14.26,10,7.13-10,14.25-10,7.13,10,14.26,10,7.13-10,14.25-10,7.13,10,14.26,10,7.13-10,14.26-10,7.12,10,14.25,10,7.13-10,14.26-10,7.12,10,14.25,10,7.13-10,14.26-10,7.13,10,14.26,10,7.12-10,14.25-10,7.13,10,14.26,10,7.12-10,14.25-10,7.13,10,14.26,10,7.13-10,14.26-10,7.12,10,14.25,10,7.13-10,14.26-10,7.13,10,14.25,10,7.13-10,14.26-10,7.13,10,14.26,10,7.12-10,14.25-10,7.13,10,14.26,10,7.13-10,14.26-10,7.12,10,14.25,10,7.13-10,14.26-10,7.13,10,14.26,10,7.12-10,14.25-10,7.13,10,14.26,10,7.13-10,14.26-10,7.12,10,14.25,10,7.13-10,14.26-10,7.13,10,14.26,10,7.13-10,14.25-10,7.13,10,14.26,10,7.13-10,14.26-10,7.13,10,14.25,10,7.13-10,14.26-10,7.13,10,14.26,10,7.13-10,14.25-10,7.13,10,14.26,10,7.13-10,14.25-10,7.13,10,14.26,10,7.12-10,14.25-10,7.13,10,14.25,10,7.13-10,14.26-10,7.13,10,14.26,10,7.12-10,14.25-10,7.13,10,14.25,10,7.13-10,14.26-10,7.13,10,14.26,10,7.12-10,14.25-10,7.13,10,14.26,10,7.13-10,14.26-10,7.12,10,14.25,10,7.13-10,14.26-10,7.13,10,14.25,10,7.13-10,14.26-10,7.13,10,14.26,10,7.13-10,14.26-10,7.12,10,14.25,10,7.13-10,14.26-10,7.13,10,14.26,10,7.13-10,14.26-10,7.13,10,14.26,10,7.13-10,14.26-10,7.12,10,14.25,10,7.13-10,14.26-10,7.13,10,14.26,10,7.13-10,14.26-10,7.13,10,14.26,10,7.13-10,14.26-10,7.13,10,14.26,10,7.13-10,14.26-10,7.13,10,14.26,10,7.13-10,14.26-10,7.13,10,14.26,10,7.13-10,14.25-10,7.13,10,14.26,10,7.13-10,14.26-10,7.13,10,14.26,10,7.13-10,14.26-10,7.13,10,14.26,10,7.13-10,14.26-10,7.13,10,14.27,10,7.13-10,14.26-10,7.13,10,14.26,10,7.13-10,14.26-10,7.13,10,14.26,10,7.14-10,14.27-10,7.13,10,14.26,10,7.13-10,14.27-10,7.13,10,14.27,10" fill="none" stroke="#c0459f" stroke-miterlimit="10"/>
    <path d="M0,667.21c7.13,0,7.13,10,14.26,10s7.13-10,14.25-10,7.13,10,14.26,10,7.12-10,14.25-10,7.13,10,14.26,10,7.12-10,14.25-10,7.13,10,14.26,10,7.13-10,14.25-10,7.13,10,14.26,10,7.13-10,14.25-10,7.13,10,14.26,10,7.13-10,14.25-10,7.13,10,14.26,10,7.13-10,14.26-10,7.12,10,14.25,10,7.13-10,14.26-10,7.12,10,14.25,10,7.13-10,14.26-10,7.13,10,14.26,10,7.12-10,14.25-10,7.13,10,14.26,10,7.12-10,14.25-10,7.13,10,14.26,10,7.13-10,14.26-10,7.12,10,14.25,10,7.13-10,14.26-10,7.13,10,14.25,10,7.13-10,14.26-10,7.13,10,14.26,10,7.12-10,14.25-10,7.13,10,14.26,10,7.13-10,14.26-10,7.12,10,14.25,10,7.13-10,14.26-10,7.13,10,14.26,10,7.12-10,14.25-10,7.13,10,14.26,10,7.13-10,14.26-10,7.12,10,14.25,10,7.13-10,14.26-10,7.13,10,14.26,10,7.13-10,14.25-10,7.13,10,14.26,10,7.13-10,14.26-10,7.13,10,14.25,10,7.13-10,14.26-10,7.13,10,14.26,10,7.13-10,14.25-10,7.13,10,14.26,10,7.13-10,14.25-10,7.13,10,14.26,10,7.12-10,14.25-10,7.13,10,14.25,10,7.13-10,14.26-10,7.13,10,14.26,10,7.12-10,14.25-10,7.13,10,14.25,10,7.13-10,14.26-10,7.13,10,14.26,10,7.12-10,14.25-10,7.13,10,14.26,10,7.13-10,14.26-10,7.12,10,14.25,10,7.13-10,14.26-10,7.13,10,14.25,10,7.13-10,14.26-10,7.13,10,14.26,10,7.13-10,14.26-10,7.12,10,14.25,10,7.13-10,14.26-10,7.13,10,14.26,10,7.13-10,14.26-10,7.13,10,14.26,10,7.13-10,14.26-10,7.12,10,14.25,10,7.13-10,14.26-10,7.13,10,14.26,10,7.13-10,14.26-10,7.13,10,14.26,10,7.13-10,14.26-10,7.13,10,14.26,10,7.13-10,14.26-10,7.13,10,14.26,10,7.13-10,14.26-10,7.13,10,14.26,10,7.13-10,14.25-10,7.13,10,14.26,10,7.13-10,14.26-10,7.13,10,14.26,10,7.13-10,14.26-10,7.13,10,14.26,10,7.13-10,14.26-10,7.13,10,14.27,10,7.13-10,14.26-10,7.13,10,14.26,10,7.13-10,14.26-10,7.13,10,14.26,10,7.14-10,14.27-10,7.13,10,14.26,10,7.13-10,14.27-10,7.13,10,14.27,10" fill="none" stroke="#c0459f" stroke-miterlimit="10"/>
    <path d="M0,687c7.13,0,7.13,10,14.26,10s7.13-10,14.25-10,7.13,10,14.26,10S49.89,687,57,687s7.13,10,14.26,10,7.12-10,14.25-10,7.13,10,14.26,10,7.13-10,14.25-10,7.13,10,14.26,10,7.13-10,14.25-10,7.13,10,14.26,10,7.13-10,14.25-10,7.13,10,14.26,10,7.13-10,14.26-10,7.12,10,14.25,10,7.13-10,14.26-10,7.12,10,14.25,10,7.13-10,14.26-10,7.13,10,14.26,10,7.12-10,14.25-10,7.13,10,14.26,10,7.12-10,14.25-10,7.13,10,14.26,10,7.13-10,14.26-10,7.12,10,14.25,10,7.13-10,14.26-10,7.13,10,14.25,10,7.13-10,14.26-10,7.13,10,14.26,10,7.12-10,14.25-10,7.13,10,14.26,10,7.13-10,14.26-10,7.12,10,14.25,10,7.13-10,14.26-10,7.13,10,14.26,10,7.12-10,14.25-10,7.13,10,14.26,10,7.13-10,14.26-10,7.12,10,14.25,10,7.13-10,14.26-10,7.13,10,14.26,10,7.13-10,14.25-10,7.13,10,14.26,10,7.13-10,14.26-10,7.13,10,14.25,10,7.13-10,14.26-10,7.13,10,14.26,10,7.13-10,14.25-10,7.13,10,14.26,10,7.13-10,14.25-10,7.13,10,14.26,10,7.12-10,14.25-10,7.13,10,14.25,10,7.13-10,14.26-10,7.13,10,14.26,10,7.12-10,14.25-10,7.13,10,14.25,10,7.13-10,14.26-10,7.13,10,14.26,10,7.12-10,14.25-10,7.13,10,14.26,10,7.13-10,14.26-10,7.12,10,14.25,10,7.13-10,14.26-10,7.13,10,14.25,10,7.13-10,14.26-10,7.13,10,14.26,10,7.13-10,14.26-10,7.12,10,14.25,10,7.13-10,14.26-10,7.13,10,14.26,10,7.13-10,14.26-10,7.13,10,14.26,10,7.13-10,14.26-10,7.12,10,14.25,10,7.13-10,14.26-10,7.13,10,14.26,10,7.13-10,14.26-10,7.13,10,14.26,10,7.13-10,14.26-10,7.13,10,14.26,10,7.13-10,14.26-10,7.13,10,14.26,10,7.13-10,14.26-10,7.13,10,14.26,10,7.13-10,14.25-10,7.13,10,14.26,10,7.13-10,14.26-10,7.13,10,14.26,10,7.13-10,14.26-10,7.13,10,14.26,10,7.13-10,14.26-10,7.13,10,14.27,10,7.13-10,14.26-10,7.13,10,14.26,10,7.13-10,14.26-10,7.13,10,14.26,10,7.14-10,14.27-10,7.13,10,14.26,10,7.13-10,14.27-10,7.13,10,14.27,10" fill="none" stroke="#c0459f" stroke-miterlimit="10"/>
    <path d="M0,706.72c7.13,0,7.13,10,14.26,10s7.13-10,14.25-10,7.13,10,14.26,10,7.12-10,14.25-10,7.13,10,14.26,10,7.12-10,14.25-10,7.13,10,14.26,10,7.13-10,14.25-10,7.13,10,14.26,10,7.13-10,14.25-10,7.13,10,14.26,10,7.13-10,14.25-10,7.13,10,14.26,10,7.13-10,14.26-10,7.12,10,14.25,10,7.13-10,14.26-10,7.12,10,14.25,10,7.13-10,14.26-10,7.13,10,14.26,10,7.12-10,14.25-10,7.13,10,14.26,10,7.12-10,14.25-10,7.13,10,14.26,10,7.13-10,14.26-10,7.12,10,14.25,10,7.13-10,14.26-10,7.13,10,14.25,10,7.13-10,14.26-10,7.13,10,14.26,10,7.12-10,14.25-10,7.13,10,14.26,10,7.13-10,14.26-10,7.12,10,14.25,10,7.13-10,14.26-10,7.13,10,14.26,10,7.12-10,14.25-10,7.13,10,14.26,10,7.13-10,14.26-10,7.12,10,14.25,10,7.13-10,14.26-10,7.13,10,14.26,10,7.13-10,14.25-10,7.13,10,14.26,10,7.13-10,14.26-10,7.13,10,14.25,10,7.13-10,14.26-10,7.13,10,14.26,10,7.13-10,14.25-10,7.13,10,14.26,10,7.13-10,14.25-10,7.13,10,14.26,10,7.12-10,14.25-10,7.13,10,14.25,10,7.13-10,14.26-10,7.13,10,14.26,10,7.12-10,14.25-10,7.13,10,14.25,10,7.13-10,14.26-10,7.13,10,14.26,10,7.12-10,14.25-10,7.13,10,14.26,10,7.13-10,14.26-10,7.12,10,14.25,10,7.13-10,14.26-10,7.13,10,14.25,10,7.13-10,14.26-10,7.13,10,14.26,10,7.13-10,14.26-10,7.12,10,14.25,10,7.13-10,14.26-10,7.13,10,14.26,10,7.13-10,14.26-10,7.13,10,14.26,10,7.13-10,14.26-10,7.12,10,14.25,10,7.13-10,14.26-10,7.13,10,14.26,10,7.13-10,14.26-10,7.13,10,14.26,10,7.13-10,14.26-10,7.13,10,14.26,10,7.13-10,14.26-10,7.13,10,14.26,10,7.13-10,14.26-10,7.13,10,14.26,10,7.13-10,14.25-10,7.13,10,14.26,10,7.13-10,14.26-10,7.13,10,14.26,10,7.13-10,14.26-10,7.13,10,14.26,10,7.13-10,14.26-10,7.13,10,14.27,10,7.13-10,14.26-10,7.13,10,14.26,10,7.13-10,14.26-10,7.13,10,14.26,10,7.14-10,14.27-10,7.13,10,14.26,10,7.13-10,14.27-10,7.13,10,14.27,10" fill="none" stroke="#c0459f" stroke-miterlimit="10"/>
    <path d="M0,726.48c7.13,0,7.13,10,14.26,10s7.13-10,14.25-10,7.13,10,14.26,10,7.12-10,14.25-10,7.13,10,14.26,10,7.12-10,14.25-10,7.13,10,14.26,10,7.13-10,14.25-10,7.13,10,14.26,10,7.13-10,14.25-10,7.13,10,14.26,10,7.13-10,14.25-10,7.13,10,14.26,10,7.13-10,14.26-10,7.12,10,14.25,10,7.13-10,14.26-10,7.12,10,14.25,10,7.13-10,14.26-10,7.13,10,14.26,10,7.12-10,14.25-10,7.13,10,14.26,10,7.12-10,14.25-10,7.13,10,14.26,10,7.13-10,14.26-10,7.12,10,14.25,10,7.13-10,14.26-10,7.13,10,14.25,10,7.13-10,14.26-10,7.13,10,14.26,10,7.12-10,14.25-10,7.13,10,14.26,10,7.13-10,14.26-10,7.12,10,14.25,10,7.13-10,14.26-10,7.13,10,14.26,10,7.12-10,14.25-10,7.13,10,14.26,10,7.13-10,14.26-10,7.12,10,14.25,10,7.13-10,14.26-10,7.13,10,14.26,10,7.13-10,14.25-10,7.13,10,14.26,10,7.13-10,14.26-10,7.13,10,14.25,10,7.13-10,14.26-10,7.13,10,14.26,10,7.13-10,14.25-10,7.13,10,14.26,10,7.13-10,14.25-10,7.13,10,14.26,10,7.12-10,14.25-10,7.13,10,14.25,10,7.13-10,14.26-10,7.13,10,14.26,10,7.12-10,14.25-10,7.13,10,14.25,10,7.13-10,14.26-10,7.13,10,14.26,10,7.12-10,14.25-10,7.13,10,14.26,10,7.13-10,14.26-10,7.12,10,14.25,10,7.13-10,14.26-10,7.13,10,14.25,10,7.13-10,14.26-10,7.13,10,14.26,10,7.13-10,14.26-10,7.12,10,14.25,10,7.13-10,14.26-10,7.13,10,14.26,10,7.13-10,14.26-10,7.13,10,14.26,10,7.13-10,14.26-10,7.12,10,14.25,10,7.13-10,14.26-10,7.13,10,14.26,10,7.13-10,14.26-10,7.13,10,14.26,10,7.13-10,14.26-10,7.13,10,14.26,10,7.13-10,14.26-10,7.13,10,14.26,10,7.13-10,14.26-10,7.13,10,14.26,10,7.13-10,14.25-10,7.13,10,14.26,10,7.13-10,14.26-10,7.13,10,14.26,10,7.13-10,14.26-10,7.13,10,14.26,10,7.13-10,14.26-10,7.13,10,14.27,10,7.13-10,14.26-10,7.13,10,14.26,10,7.13-10,14.26-10,7.13,10,14.26,10,7.14-10,14.27-10,7.13,10,14.26,10,7.13-10,14.27-10,7.13,10,14.27,10" fill="none" stroke="#c0459f" stroke-miterlimit="10"/>
    <path d="M0,746.23c7.13,0,7.13,10,14.26,10s7.13-10,14.25-10,7.13,10,14.26,10,7.12-10,14.25-10,7.13,10,14.26,10,7.12-10,14.25-10,7.13,10,14.26,10,7.13-10,14.25-10,7.13,10,14.26,10,7.13-10,14.25-10,7.13,10,14.26,10,7.13-10,14.25-10,7.13,10,14.26,10,7.13-10,14.26-10,7.12,10,14.25,10,7.13-10,14.26-10,7.12,10,14.25,10,7.13-10,14.26-10,7.13,10,14.26,10,7.12-10,14.25-10,7.13,10,14.26,10,7.12-10,14.25-10,7.13,10,14.26,10,7.13-10,14.26-10,7.12,10,14.25,10,7.13-10,14.26-10,7.13,10,14.25,10,7.13-10,14.26-10,7.13,10,14.26,10,7.12-10,14.25-10,7.13,10,14.26,10,7.13-10,14.26-10,7.12,10,14.25,10,7.13-10,14.26-10,7.13,10,14.26,10,7.12-10,14.25-10,7.13,10,14.26,10,7.13-10,14.26-10,7.12,10,14.25,10,7.13-10,14.26-10,7.13,10,14.26,10,7.13-10,14.25-10,7.13,10,14.26,10,7.13-10,14.26-10,7.13,10,14.25,10,7.13-10,14.26-10,7.13,10,14.26,10,7.13-10,14.25-10,7.13,10,14.26,10,7.13-10,14.25-10,7.13,10,14.26,10,7.12-10,14.25-10,7.13,10,14.25,10,7.13-10,14.26-10,7.13,10,14.26,10,7.12-10,14.25-10,7.13,10,14.25,10,7.13-10,14.26-10,7.13,10,14.26,10,7.12-10,14.25-10,7.13,10,14.26,10,7.13-10,14.26-10,7.12,10,14.25,10,7.13-10,14.26-10,7.13,10,14.25,10,7.13-10,14.26-10,7.13,10,14.26,10,7.13-10,14.26-10,7.12,10,14.25,10,7.13-10,14.26-10,7.13,10,14.26,10,7.13-10,14.26-10,7.13,10,14.26,10,7.13-10,14.26-10,7.12,10,14.25,10,7.13-10,14.26-10,7.13,10,14.26,10,7.13-10,14.26-10,7.13,10,14.26,10,7.13-10,14.26-10,7.13,10,14.26,10,7.13-10,14.26-10,7.13,10,14.26,10,7.13-10,14.26-10,7.13,10,14.26,10,7.13-10,14.25-10,7.13,10,14.26,10,7.13-10,14.26-10,7.13,10,14.26,10,7.13-10,14.26-10,7.13,10,14.26,10,7.13-10,14.26-10,7.13,10,14.27,10,7.13-10,14.26-10,7.13,10,14.26,10,7.13-10,14.26-10,7.13,10,14.26,10,7.14-10,14.27-10,7.13,10,14.26,10,7.13-10,14.27-10,7.13,10,14.27,10" fill="none" stroke="#c0459f" stroke-miterlimit="10"/>
    <path d="M0,766c7.13,0,7.13,10,14.26,10s7.13-10,14.25-10,7.13,10,14.26,10S49.89,766,57,766s7.13,10,14.26,10,7.12-10,14.25-10,7.13,10,14.26,10,7.13-10,14.25-10,7.13,10,14.26,10,7.13-10,14.25-10,7.13,10,14.26,10,7.13-10,14.25-10,7.13,10,14.26,10,7.13-10,14.26-10,7.12,10,14.25,10,7.13-10,14.26-10,7.12,10,14.25,10,7.13-10,14.26-10,7.13,10,14.26,10,7.12-10,14.25-10,7.13,10,14.26,10,7.12-10,14.25-10,7.13,10,14.26,10,7.13-10,14.26-10,7.12,10,14.25,10,7.13-10,14.26-10,7.13,10,14.25,10,7.13-10,14.26-10,7.13,10,14.26,10,7.12-10,14.25-10,7.13,10,14.26,10,7.13-10,14.26-10,7.12,10,14.25,10,7.13-10,14.26-10,7.13,10,14.26,10,7.12-10,14.25-10,7.13,10,14.26,10,7.13-10,14.26-10,7.12,10,14.25,10,7.13-10,14.26-10,7.13,10,14.26,10,7.13-10,14.25-10,7.13,10,14.26,10,7.13-10,14.26-10,7.13,10,14.25,10,7.13-10,14.26-10,7.13,10,14.26,10,7.13-10,14.25-10,7.13,10,14.26,10,7.13-10,14.25-10,7.13,10,14.26,10,7.12-10,14.25-10,7.13,10,14.25,10,7.13-10,14.26-10,7.13,10,14.26,10,7.12-10,14.25-10,7.13,10,14.25,10,7.13-10,14.26-10,7.13,10,14.26,10,7.12-10,14.25-10,7.13,10,14.26,10,7.13-10,14.26-10,7.12,10,14.25,10,7.13-10,14.26-10,7.13,10,14.25,10,7.13-10,14.26-10,7.13,10,14.26,10,7.13-10,14.26-10,7.12,10,14.25,10,7.13-10,14.26-10,7.13,10,14.26,10,7.13-10,14.26-10,7.13,10,14.26,10,7.13-10,14.26-10,7.12,10,14.25,10,7.13-10,14.26-10,7.13,10,14.26,10,7.13-10,14.26-10,7.13,10,14.26,10,7.13-10,14.26-10,7.13,10,14.26,10,7.13-10,14.26-10,7.13,10,14.26,10,7.13-10,14.26-10,7.13,10,14.26,10,7.13-10,14.25-10,7.13,10,14.26,10,7.13-10,14.26-10,7.13,10,14.26,10,7.13-10,14.26-10,7.13,10,14.26,10,7.13-10,14.26-10,7.13,10,14.27,10,7.13-10,14.26-10,7.13,10,14.26,10,7.13-10,14.26-10,7.13,10,14.26,10,7.14-10,14.27-10,7.13,10,14.26,10,7.13-10,14.27-10,7.13,10,14.27,10" fill="none" stroke="#c0459f" stroke-miterlimit="10"/>
    <path d="M0,785.74c7.13,0,7.13,10,14.26,10s7.13-10,14.25-10,7.13,10,14.26,10,7.12-10,14.25-10,7.13,10,14.26,10,7.12-10,14.25-10,7.13,10,14.26,10,7.13-10,14.25-10,7.13,10,14.26,10,7.13-10,14.25-10,7.13,10,14.26,10,7.13-10,14.25-10,7.13,10,14.26,10,7.13-10,14.26-10,7.12,10,14.25,10,7.13-10,14.26-10,7.12,10,14.25,10,7.13-10,14.26-10,7.13,10,14.26,10,7.12-10,14.25-10,7.13,10,14.26,10,7.12-10,14.25-10,7.13,10,14.26,10,7.13-10,14.26-10,7.12,10,14.25,10,7.13-10,14.26-10,7.13,10,14.25,10,7.13-10,14.26-10,7.13,10,14.26,10,7.12-10,14.25-10,7.13,10,14.26,10,7.13-10,14.26-10,7.12,10,14.25,10,7.13-10,14.26-10,7.13,10,14.26,10,7.12-10,14.25-10,7.13,10,14.26,10,7.13-10,14.26-10,7.12,10,14.25,10,7.13-10,14.26-10,7.13,10,14.26,10,7.13-10,14.25-10,7.13,10,14.26,10,7.13-10,14.26-10,7.13,10,14.25,10,7.13-10,14.26-10,7.13,10,14.26,10,7.13-10,14.25-10,7.13,10,14.26,10,7.13-10,14.25-10,7.13,10,14.26,10,7.12-10,14.25-10,7.13,10,14.25,10,7.13-10,14.26-10,7.13,10,14.26,10,7.12-10,14.25-10,7.13,10,14.25,10,7.13-10,14.26-10,7.13,10,14.26,10,7.12-10,14.25-10,7.13,10,14.26,10,7.13-10,14.26-10,7.12,10,14.25,10,7.13-10,14.26-10,7.13,10,14.25,10,7.13-10,14.26-10,7.13,10,14.26,10,7.13-10,14.26-10,7.12,10,14.25,10,7.13-10,14.26-10,7.13,10,14.26,10,7.13-10,14.26-10,7.13,10,14.26,10,7.13-10,14.26-10,7.12,10,14.25,10,7.13-10,14.26-10,7.13,10,14.26,10,7.13-10,14.26-10,7.13,10,14.26,10,7.13-10,14.26-10,7.13,10,14.26,10,7.13-10,14.26-10,7.13,10,14.26,10,7.13-10,14.26-10,7.13,10,14.26,10,7.13-10,14.25-10,7.13,10,14.26,10,7.13-10,14.26-10,7.13,10,14.26,10,7.13-10,14.26-10,7.13,10,14.26,10,7.13-10,14.26-10,7.13,10,14.27,10,7.13-10,14.26-10,7.13,10,14.26,10,7.13-10,14.26-10,7.13,10,14.26,10,7.14-10,14.27-10,7.13,10,14.26,10,7.13-10,14.27-10,7.13,10,14.27,10" fill="none" stroke="#c0459f" stroke-miterlimit="10"/>
    <path d="M0,805.5c7.13,0,7.13,10,14.26,10s7.13-10,14.25-10,7.13,10,14.26,10,7.12-10,14.25-10,7.13,10,14.26,10,7.12-10,14.25-10,7.13,10,14.26,10,7.13-10,14.25-10,7.13,10,14.26,10,7.13-10,14.25-10,7.13,10,14.26,10,7.13-10,14.25-10,7.13,10,14.26,10,7.13-10,14.26-10,7.12,10,14.25,10,7.13-10,14.26-10,7.12,10,14.25,10,7.13-10,14.26-10,7.13,10,14.26,10,7.12-10,14.25-10,7.13,10,14.26,10,7.12-10,14.25-10,7.13,10,14.26,10,7.13-10,14.26-10,7.12,10,14.25,10,7.13-10,14.26-10,7.13,10,14.25,10,7.13-10,14.26-10,7.13,10,14.26,10,7.12-10,14.25-10,7.13,10,14.26,10,7.13-10,14.26-10,7.12,10,14.25,10,7.13-10,14.26-10,7.13,10,14.26,10,7.12-10,14.25-10,7.13,10,14.26,10,7.13-10,14.26-10,7.12,10,14.25,10,7.13-10,14.26-10,7.13,10,14.26,10,7.13-10,14.25-10,7.13,10,14.26,10,7.13-10,14.26-10,7.13,10,14.25,10,7.13-10,14.26-10,7.13,10,14.26,10,7.13-10,14.25-10,7.13,10,14.26,10,7.13-10,14.25-10,7.13,10,14.26,10,7.12-10,14.25-10,7.13,10,14.25,10,7.13-10,14.26-10,7.13,10,14.26,10,7.12-10,14.25-10,7.13,10,14.25,10,7.13-10,14.26-10,7.13,10,14.26,10,7.12-10,14.25-10,7.13,10,14.26,10,7.13-10,14.26-10,7.12,10,14.25,10,7.13-10,14.26-10,7.13,10,14.25,10,7.13-10,14.26-10,7.13,10,14.26,10,7.13-10,14.26-10,7.12,10,14.25,10,7.13-10,14.26-10,7.13,10,14.26,10,7.13-10,14.26-10,7.13,10,14.26,10,7.13-10,14.26-10,7.12,10,14.25,10,7.13-10,14.26-10,7.13,10,14.26,10,7.13-10,14.26-10,7.13,10,14.26,10,7.13-10,14.26-10,7.13,10,14.26,10,7.13-10,14.26-10,7.13,10,14.26,10,7.13-10,14.26-10,7.13,10,14.26,10,7.13-10,14.25-10,7.13,10,14.26,10,7.13-10,14.26-10,7.13,10,14.26,10,7.13-10,14.26-10,7.13,10,14.26,10,7.13-10,14.26-10,7.13,10,14.27,10,7.13-10,14.26-10,7.13,10,14.26,10,7.13-10,14.26-10,7.13,10,14.26,10,7.14-10,14.27-10,7.13,10,14.26,10,7.13-10,14.27-10,7.13,10,14.27,10" fill="none" stroke="#c0459f" stroke-miterlimit="10"/>
  </g>
</svg>
