<svg xmlns="http://www.w3.org/2000/svg" width="3in" height="3in" viewBox="0 0 216 216">
  <g style="isolation: isolate">
    <g id="sushi">
      <g>
        <g opacity="0.16" style="mix-blend-mode: darken">
          <path d="M178.22,126.92c-3.91-2.19-8.16.1-12.11,2.06C131.9,146,95,136.6,60,124.26c-6.5-2.29-13.53-4.61-19.61-.23s-9.72,18.64-5,26.27a11.26,11.26,0,0,0,5.43,4.85c20.69,7.73,39.57,5.65,63.83,4.25,23.83-1.38,37.94-.22,61.72-2.34,2.65-.23,11.56-4.37,11.48-8.67C177.84,148.39,186,131.29,178.22,126.92Z" fill="#231f20"/>
        </g>
        <g>
          <path d="M38.85,141.46a34.45,34.45,0,0,1-5.4-12.13,6.77,6.77,0,0,0-4.69-2,23.89,23.89,0,0,0,1.32-14.53c1,.8,2.07-1,1.76-2.37s-1.25-2.39-1.37-3.76,1.33-2.47,2-1.7v-.58a23.17,23.17,0,0,1,1.27-13.32l.43.18c.36-1.13.76-2.23,1.21-3.29l-1.5-1.19a11.55,11.55,0,0,1,2.3-.57c4.72-9.55,13.43-16,23.38-16h95.21c9.72,0,18.25,6.18,23,15.37a5.46,5.46,0,0,1,2.95-1.16c2.43-.09,4.83,3.33,3.35,5.59a19.18,19.18,0,0,1-1.5,1.62c-1.28,1.56-1.21,4.15-.34,6a14.71,14.71,0,0,0,3.82,4.62l-4.22,1.17v5.2a109,109,0,0,1,2.51,23l-3.86-1a33.33,33.33,0,0,1-7.74,14c0,1.21-.07,2.43-.11,3.65a2.92,2.92,0,0,1-.73,2.3,1.89,1.89,0,0,1-1.58.13c-1.32-.28-2.63-.64-3.92-1a23.37,23.37,0,0,1-11.67,3.2h-8.31c-1.53,1.39-3.67.88-5.69,0h-9a3.32,3.32,0,0,0-.27.77c-.13-.27-.27-.53-.41-.77H113.5c-2.23,1.1-4.23.52-6.64.73-3.14.28-6.39.8-9.29-.73H76.08a47,47,0,0,1-12.41,2.43,12.25,12.25,0,0,0-1.21-2.43H59.53a23.86,23.86,0,0,1-14.43-5c-1.44.39-2.86.86-4.26,1.37C40.18,146.68,39.51,144.07,38.85,141.46Z" fill="#ededee"/>
          <path d="M48.8,135c1.53,1.39,3.67.88,5.69,0h9a3.49,3.49,0,0,1,.27.77,7.08,7.08,0,0,1,.41-.77h17.6a19.53,19.53,0,0,0,6.89,2.29,16.3,16.3,0,0,0,9-2.29h21.49a46.59,46.59,0,0,0,12.41,2.43,12.25,12.25,0,0,1,1.21-2.43h2.93a23.91,23.91,0,0,0,14.43-5c1.44.38,2.86.86,4.25,1.37.67-2.61,1.33-5.22,2-7.83a34.45,34.45,0,0,0,5.4-12.13,6.81,6.81,0,0,1,4.69-2,23.89,23.89,0,0,1-1.32-14.53c-1,.8-2.07-1-1.76-2.37s1.25-2.39,1.37-3.76-1.33-2.46-2-1.69v-.59a23.15,23.15,0,0,0-1.27-13.31l-.43.17c-.27-.84-.57-1.67-.89-2.48,7.4,1.83,13.72,7.28,17.58,14.7a5.46,5.46,0,0,1,2.95-1.16c2.43-.09,4.83,3.33,3.35,5.59a19.18,19.18,0,0,1-1.5,1.62c-1.28,1.56-1.21,4.15-.34,6a14.71,14.71,0,0,0,3.82,4.62l-4.22,1.17v5.2a109,109,0,0,1,2.51,23l-3.86-1a33.33,33.33,0,0,1-7.74,14c0,1.21-.07,2.43-.11,3.65a2.92,2.92,0,0,1-.73,2.3,1.89,1.89,0,0,1-1.58.13c-1.32-.28-2.63-.64-3.92-1a23.37,23.37,0,0,1-11.67,3.2h-8.31c-1.53,1.39-3.67.88-5.69,0h-9a3.32,3.32,0,0,0-.27.77c-.13-.27-.27-.53-.41-.77H113.5c-2.23,1.1-4.23.52-6.64.73-3.14.28-6.39.8-9.29-.73H76.08a47,47,0,0,1-12.41,2.43,12.25,12.25,0,0,0-1.21-2.43H59.53a23.86,23.86,0,0,1-14.43-5c-1.44.39-2.86.86-4.26,1.37-.66-2.6-1.33-5.21-2-7.82A33.5,33.5,0,0,1,35,134.32a22.81,22.81,0,0,0,5.49.69Z" fill="#e3e6ec"/>
          <path d="M47.81,106H162.37a15.19,15.19,0,0,0,15.15-15.15l4.1-23.13a15.2,15.2,0,0,0-15.16-15.15H54.14c-8.33,0-13.83,8.7-15.15,15.15L32.65,90.83C30.62,99,39.47,106,47.81,106Z" fill="#e9b26f"/>
          <path d="M53.23,87.34H154.37a11.09,11.09,0,0,0,11-11.06l3.15-12.68a11.08,11.08,0,0,0-11-11.05H56.37a11.08,11.08,0,0,0-11,11.05L42.17,76.28A11.1,11.1,0,0,0,53.23,87.34Z" fill="#edc443"/>
          <path d="M125.28,52.55c-9.83,35-10.39,68.9-3.18,100.38-7.39.93-17,3.23-39,.17-3.16-2.87-10.26-67.16,5.65-100.55Z" fill="#383208"/>
          <path d="M118.8,134.72l3.33,18.21c-7.38.93-17,3.23-39,.17-1-.91-2.39-7.95-3.32-18.2C101.83,138,111.41,135.65,118.8,134.72Z" fill="#322c03"/>
        </g>
      </g>
    </g>
  </g>
</svg>
