<svg id="Layer_1" data-name="Layer 1" xmlns="http://www.w3.org/2000/svg" width="20" height="20" viewBox="0 0 20 20">
  <path id="Path_5-2" data-name="Path 5-2" d="M8.94,19.57l4.55.43,0-2.39c.2-.08.41-.17.61-.27l1.52,1.48,3.53-3.22-1.75-1.66a4,4,0,0,0,.2-.48l2.42,0-.44-4.55-1.89,0a6.12,6.12,0,0,0-.33-.75L19.13,6.4,15.6,3.49,14.06,5a8,8,0,0,0-.75-.32l0-2.41L8.51,2l.06,2.59c-.23.1-.46.2-.68.32L6.4,3.49,2.87,6.4l2,1.92-.1.25L2,8.51l.22,4.77,2.22,0c.06.2.14.4.22.6l-1.79,1.7L6.4,18.83l1.53-1.5a8,8,0,0,0,1,.38Zm-1.3-8.79a3.27,3.27,0,0,1,6.51.22A3.34,3.34,0,0,1,11,14.36a3.73,3.73,0,0,1-3.36-3.58Z" fill="#c0459f"/>
  <path id="Path_5-2-2" data-name="Path 5-2" d="M6.94,17.57l4.55.43,0-2.39c.2-.08.41-.17.61-.27l1.52,1.48,3.53-3.22-1.75-1.66a4,4,0,0,0,.2-.48l2.42,0-.44-4.55-1.89-.05a6.12,6.12,0,0,0-.33-.75L17.13,4.4,13.6,1.49,12.06,3a8,8,0,0,0-.75-.32l0-2.41L6.51,0l.06,2.59c-.23.1-.46.2-.68.32L4.4,1.49.87,4.4l2,1.92-.1.25L0,6.51l.22,4.77,2.22,0c.06.2.14.4.22.6L.87,13.61,4.4,16.83l1.53-1.5a8,8,0,0,0,1,.38ZM5.64,8.78A3.27,3.27,0,0,1,12.15,9,3.34,3.34,0,0,1,9,12.36,3.73,3.73,0,0,1,5.64,8.78Z" fill="#fff"/>
</svg>
