<svg xmlns="http://www.w3.org/2000/svg" width="3in" height="3in" viewBox="0 0 216 216">
  <g style="isolation: isolate">
    <g id="sushi">
      <g>
        <g opacity="0.16" style="mix-blend-mode: darken">
          <path d="M180,160.14a3.73,3.73,0,0,0-2.15-2.62c-2.83-.78-3.53-1.62-6-.13-11.77-8.14-35.28-13.69-62.38-13.69C70.55,143.7,39,155.13,39,169.22s31.53,25.52,70.42,25.52,70.42-11.43,70.42-25.52a10.74,10.74,0,0,0-2-6.05C179.86,161.18,180.34,162.09,180,160.14Z" fill="#231f20"/>
        </g>
        <g>
          <ellipse cx="106.08" cy="65.79" rx="78.56" ry="25.47" fill="#53020d"/>
          <ellipse cx="106.7" cy="173.77" rx="48.47" ry="15.04" fill="#902430"/>
          <ellipse cx="105.72" cy="79.24" rx="72.89" ry="21.8" fill="#a36836"/>
          <path d="M138.57,84.32a3.53,3.53,0,0,1,.79-4.24,7.87,7.87,0,0,1,4.23-1.83,21.63,21.63,0,0,1,7.9.08c.93-3.17-1.47-6.66-4.62-7.66s-6.65.08-9.32,2A31,31,0,0,0,131,80a17.51,17.51,0,0,1,3.57-12.64c-5.31-.46-10.41,1.84-15.57,3.17a6.5,6.5,0,0,1-2.8.26c-1.34-.26-2.39-1.27-3.54-2-3.76-2.48-8.62-2.19-13.13-2.33a117,117,0,0,1-16-2l-11.1-1.88a11.58,11.58,0,0,0-5.55,0c-1.77.59-3.3,2.38-2.91,4.21,10.08.42,20.18-.28,30.28-.13s20.33,1.19,29.71,4.92c.69.27,1.47.67,1.58,1.4a2,2,0,0,1-.78,1.61c-3.13,3-7.9,3.48-12.27,3.62-6.22.2-12.55.13-18.53-1.59-4-1.14-7.86-3-12-3.29-7-.47-13.35,3.57-20.19,4.88a20.12,20.12,0,0,0-5.33,1.32c-1.64.82-3,2.53-2.78,4.35a4.29,4.29,0,0,0,3.17,3.25,11.23,11.23,0,0,0,4.76.05A68.78,68.78,0,0,0,97.25,70.42a3,3,0,0,1,1.52-.9,3,3,0,0,1,1.74.56l16.4,9.45a2.86,2.86,0,0,0,1.46.51c.89,0,1.51-.88,2-1.63,2.72-4.28,5.76-8.73,10.38-10.81,6.64-3,14.3-.23,21.13,2.3q8.32,3.09,16.82,5.71c-.59-3.92-5.62-5.85-9.38-4.57s-6.35,4.68-8.4,8.08c-1.27,2.12-2.76,4.56-5.21,4.9a5.52,5.52,0,0,1-3.24-.69c-3.59-1.86-5.48-5.79-7.88-9a4.43,4.43,0,0,0-1.65-1.54c-1.77-.77-3.64.78-4.93,2.21a170.58,170.58,0,0,0-10.88,13.4c-1.41,1.94-2.88,4-5.08,5-2.38,1-5.13.57-7.64-.14-3.41-1-7-2.58-8.63-5.73a1.64,1.64,0,0,1-.2-1.46,1.75,1.75,0,0,1,.8-.69c4.66-2.48,10.21-2.37,15.39-3.4s10.76-4.07,11.6-9.28a4,4,0,0,0-.29-2.56,4.18,4.18,0,0,0-1.22-1.26c-2.49-1.78-5.72-2.07-8.78-2.31l-11.49-.87a5.45,5.45,0,0,0-3.18.4,6.27,6.27,0,0,0-1.91,2.34A17.74,17.74,0,0,1,89.42,75C83,78.23,75.24,76.65,68.2,75l-9.39-2.2a3.26,3.26,0,0,0-2.07,0c-.64.29-1,1.24-.47,1.71,4.51-4.42,11.1-6.09,17.42-6.33s12.61.78,18.93.87,12.94-.84,18.1-4.5c1.86-1.31,3.5-3,5.56-3.94a17.07,17.07,0,0,1,7.31-1.21c2.16,0,4.8.43,5.54,2.46.59,1.62-.44,3.41-1.72,4.57s-2.87,2-3.9,3.4c-2.09,2.8-1.2,7,1.12,9.62s5.69,4,9,5.17a5.88,5.88,0,0,0-6.54-6.43,17.37,17.37,0,0,0-3.74,1.49c-9.3,4.12-20.65-1.14-30.12,2.58a5.43,5.43,0,0,1-3.14.66c-2.15-.51-2.48-3.51-4.16-4.94" fill="#ab6d39"/>
          <path d="M27.52,107.72c1.45,10,4.45,17.78,4.91,27.86s3.31,21.82,9.32,29.93c18.64,18.62,107.18,22.57,128-.4,6-8.11,7.89-18.55,8.35-28.63s3-21.87,4.46-31.86c2.23-15.3,6.31-28.95,2.56-43.95-4.68-12.78-35.43-22.94-79.29-22.94s-75.31,8.59-79.4,23.33C22.62,76.06,25.3,92.41,27.52,107.72Zm4.91-42.51c0-12,32.64-21.79,72.89-21.79s72.9,9.75,72.9,21.79S145.58,87,105.32,87,32.43,77.25,32.43,65.21Z" fill="#a92733"/>
          <path d="M128.77,71.35c-.14,1.87,11,3.78,16.79.46,7.1-4.06,37.67-38.75,43.16-18.1a22.13,22.13,0,0,0,.79,3.47c.48,1.09,1.69,2,2.73,1.5a2.61,2.61,0,0,0,.95-.89c3-4.17,1-10.56-3-13.67-10.68-8.35-23.17-2.2-33,4.21-12.81,8.34-17.66,12.08-28.39,23" fill="#d1d3d4"/>
          <g>
            <path d="M190.88,56a2.54,2.54,0,0,0,1-.89,9,9,0,0,0,.78-8.3c2.21,3.33,2.85,7.82.58,11a2.61,2.61,0,0,1-.95.89c-1,.49-2.25-.41-2.73-1.5a6.81,6.81,0,0,1-.42-1.53A1.75,1.75,0,0,0,190.88,56Z" fill="#bcbec0"/>
            <path d="M144.2,69.11c7-4,36.5-37.41,42.81-19.22-8.38-11.62-34.9,18.19-41.45,21.94-5.82,3.33-12.56,1.78-12.18,1.4C137,74.21,140.14,71.43,144.2,69.11Z" fill="#bcbec0"/>
          </g>
          <path d="M82.6,68.8A15,15,0,0,0,74.24,71l1.06,4a17.62,17.62,0,0,1,8.36-2.23Z" fill="#6da342"/>
          <path d="M81.9,68.8h.7l1.06,4A17.62,17.62,0,0,0,75.3,75L75,73.88A17.64,17.64,0,0,1,82.75,72Z" fill="#63963b"/>
          <path d="M69.07,68.27a15.05,15.05,0,0,0-8.18-2.83l-1.34,3.88a17.51,17.51,0,0,1,8.18,2.83Z" fill="#6da342"/>
          <path d="M67.18,70.73l1-3,.84.56-1.34,3.88a17.51,17.51,0,0,0-8.18-2.83L60,68A17.56,17.56,0,0,1,67.18,70.73Z" fill="#63963b"/>
          <path d="M95.24,81.86a15.12,15.12,0,0,0,8.52,1.53l.72-4A17.55,17.55,0,0,1,96,77.82Z" fill="#6da342"/>
          <path d="M102.9,82.25l.51-2.86c.36,0,.71,0,1.07,0l-.72,4a15.12,15.12,0,0,1-8.52-1.53l.12-.69A14.9,14.9,0,0,0,102.9,82.25Z" fill="#63963b"/>
          <path d="M126.07,62.32a15,15,0,0,0-8.65.36l.17,4.09a17.72,17.72,0,0,1,8.65-.36Z" fill="#6da342"/>
          <path d="M125.41,65.35l-.13-3.2c.26.05.52.1.79.17l.17,4.09a17.72,17.72,0,0,0-8.65.36l0-1.26A17.57,17.57,0,0,1,125.41,65.35Z" fill="#63963b"/>
          <g>
            <path d="M121.18,73.27a15.92,15.92,0,0,1,1,4.2L117,75.64a6.37,6.37,0,0,1-3.09-1.84c-.75-1-.59-2.51-1.4-3.47Z" fill="#c6b692"/>
            <path d="M122.14,77.47a42.45,42.45,0,0,0,8.27-3c-.71-2.23.85-4.94-.75-6.64l-8.48,5.42Z" fill="#b9aa89"/>
            <path d="M122.67,63.25a1.08,1.08,0,0,0-.67-.13c-.32.08-.35.52-.61.71-1.1.84-1.55.64-2.79,1.19s-2.91.79-3.51,2-1.41,2.78-2.55,3.26a38.3,38.3,0,0,0,7,2.91,3.64,3.64,0,0,0,3,0c.63-.41,1-1.18,1.64-1.53a3.65,3.65,0,0,1,1.35-.31c1.38-.15,3.4-2.37,4.16-3.53a19.06,19.06,0,0,0-2.79-2.43A19.57,19.57,0,0,0,122.67,63.25Z" fill="#d9c69f"/>
          </g>
          <path d="M114.26,77.57a15,15,0,0,0-6.83-5.31l-2.51,3.23a17.79,17.79,0,0,1,6.83,5.32Z" fill="#6da342"/>
          <path d="M111.75,79.21l1.89-2.44c.22.26.42.52.62.8l-2.51,3.24a17.79,17.79,0,0,0-6.83-5.32l.88-1.14A17.81,17.81,0,0,1,111.75,79.21Z" fill="#63963b"/>
          <path d="M123.78,79.7a15.07,15.07,0,0,0,7.93,3.47l1.64-3.76a17.64,17.64,0,0,1-7.93-3.47Z" fill="#6da342"/>
          <path d="M131,81.78l1.15-2.62c.39.1.79.18,1.2.25l-1.64,3.76a15.07,15.07,0,0,1-7.93-3.47l.28-.63A15,15,0,0,0,131,81.78Z" fill="#63963b"/>
          <path d="M146.41,73.18a15,15,0,0,0,8.46-1.83l-.87-4a17.6,17.6,0,0,1-8.46,1.84Z" fill="#6da342"/>
          <g>
            <path d="M93.41,56.85c2.15.91,4.16,1.25,6,2.61,1,.76,1,1.31,2.22,1.52a2.17,2.17,0,0,1,.87.28,1.88,1.88,0,0,1,.21,2.38,12.24,12.24,0,0,1-4.78,5C94.46,64.94,92.94,60.72,93.41,56.85Z" fill="#b9aa89"/>
            <path d="M98,68.59c-.47-.83-1-2.12-1.43-3A20.35,20.35,0,0,1,94,60.16c-.26-1.1-.34-2.23-.63-3.31a2.7,2.7,0,0,0-2.15,1.64c-.44.86-.4,2-1,2.76-1.48,2.06-2.4,2.22-4.25,4.1C90,67,93.78,69.3,98,68.59" fill="#c6b692"/>
          </g>
          <g>
            <path d="M91.54,75.8c1.61,2,1.71,2.33,3.31,4.1a1.07,1.07,0,0,1,.26.91.71.71,0,0,1-.36.43c-1.31.84-2.06,2.41-3.51,3-1.18.48-1.86.12-3.06.54,1.42-2.29,2.36-6.23,3.36-9" fill="#c6b692"/>
            <path d="M87.84,74.79c1.22.3,2.28.55,3.5.86a.37.37,0,0,1,.22.12,1.22,1.22,0,0,1,.18.61,5.29,5.29,0,0,1-.2,2.28,17.34,17.34,0,0,1-1,2.25c-.56.81-.37,1.35-.87,2.3a4.37,4.37,0,0,1-.92,1.36,1.47,1.47,0,0,1-1.41.06c-1-.32-2.63-1-3.65-1.37a17.88,17.88,0,0,1-3-1.09A2.32,2.32,0,0,1,79,80.08a5.66,5.66,0,0,1,.26-1.62c.25-1.1.48-2.21.71-3.32a7.71,7.71,0,0,1,.79-2.67,1.2,1.2,0,0,1,.68-.45,3.11,3.11,0,0,1,2.82.67c.57.42,1.13.93,1.71,1.32a6.31,6.31,0,0,0,1.85.78" fill="#d9c69f"/>
          </g>
          <path d="M89,68.73a15,15,0,0,0,6.2,6L98,71.83a17.55,17.55,0,0,1-6.2-6Z" fill="#6da342"/>
          <path d="M91.1,66.56l.74-.76a17.55,17.55,0,0,0,6.2,6l-2.86,2.94c-.28-.15-.55-.31-.82-.47l2.4-2.47A17.52,17.52,0,0,1,91.1,66.56Z" fill="#63963b"/>
          <path d="M101.51,67.35a15.08,15.08,0,0,0,8.08-3.12l-1.48-3.82A17.63,17.63,0,0,1,100,63.53Z" fill="#6da342"/>
          <path d="M107.37,60.9c.25-.16.5-.32.74-.49l1.48,3.82a15.08,15.08,0,0,1-8.08,3.12l-.27-.7a15,15,0,0,0,7.19-3Z" fill="#63963b"/>
          <path d="M165.52,158.6c6-8.11,7.89-18.55,8.35-28.63s3-21.87,4.46-31.86c2.16-14.83,6-28.11,2.86-42.57a15.12,15.12,0,0,1,3.88,5.59c3.75,15-.33,28.65-2.56,43.95-1.45,10-4,21.78-4.46,31.86s-2.34,20.52-8.35,28.63c-20.77,23-109.31,19-127.95.4a38.93,38.93,0,0,1-4-6.77C56.87,177.65,144.83,181.48,165.52,158.6Z" fill="#9e232f"/>
          <path d="M153,67.81c.35-.14.7-.3,1-.47l.87,4a15,15,0,0,1-8.46,1.83l-.2-.91a15,15,0,0,0,7.31-1.88Z" fill="#63963b"/>
        </g>
      </g>
    </g>
  </g>
</svg>
