<svg xmlns="http://www.w3.org/2000/svg" xmlns:xlink="http://www.w3.org/1999/xlink" width="3in" height="3in" viewBox="0 0 216 216">
  <defs>
    <clipPath id="clip-path">
      <path d="M185.18,80.2c-2.65-10.56.84-20.12-1.56-33.78-.9-5.13-1.55-10.53-4.52-14.8-5.79-8.33-17.63-9-27.78-8.91L60.84,23.77c-9.76.12-21.11,1-26.6,9.12-4.42,6.53-1.35,15.09-1.76,23a155.32,155.32,0,0,0,1.68,28.72c.45,2.44,1,5,2.6,6.86,2,2.21,5.07,2.92,8,3.31,14.57,2,35.13,1.82,49.8.84,32.93-2.22,54.08,1.64,87-.32C190.57,95.59,185.18,80.2,185.18,80.2Z" fill="none"/>
    </clipPath>
    <clipPath id="clip-path-2">
      <path d="M17.5,125.8C19,116,15,107.6,15.91,95c.37-4.74.47-9.7,2.79-13.84,4.52-8.09,15.21-9.78,24.44-10.57l82.27-7.08c8.89-.77,19.27-.94,25,5.91C155,74.94,153,83,154,90.1a142.63,142.63,0,0,1,1,26.25c-.19,2.25-.42,4.62-1.75,6.45-1.58,2.18-4.35,3.1-7,3.72-13.06,3.07-31.74,4.78-45.15,5.19-30.11.92-49,6.31-79.07,7.45C14,140.26,17.5,125.8,17.5,125.8Z" fill="none"/>
    </clipPath>
    <clipPath id="clip-path-3">
      <path d="M198.74,168.75c-2.49-9.91.78-18.88-1.47-31.7-.85-4.8-1.45-9.87-4.24-13.88-5.43-7.82-16.54-8.48-26.06-8.36l-84.9,1c-9.16.11-19.81,1-24.95,8.55-4.16,6.13-1.27,14.16-1.66,21.55a145.39,145.39,0,0,0,1.58,27c.42,2.29.9,4.69,2.43,6.43,1.84,2.08,4.76,2.74,7.51,3.11,13.67,1.83,33,1.71,46.72.79,30.89-2.08,50.74,1.54,81.65-.3C203.79,183.19,198.74,168.75,198.74,168.75Z" fill="none"/>
    </clipPath>
  </defs>
  <g style="isolation: isolate">
    <g id="sushi">
      <g>
        <g opacity="0.16" style="mix-blend-mode: darken">
          <path d="M175.37,84.21c4.43,0,9.17.16,12.78,2.66s5.1,8.32,1.71,11.1c-2,1.61-4.77,1.67-7.33,1.66L143,99.39c-2.24,0-4.81.12-6.18,1.85-1.08,1.35-1,3.22-.92,4.93l2.27,37c.11,1.8.26,3.7,1.35,5.16s3.26,2.29,5.21,2.84c17.63,4.92,37.88,5.38,51.2,17.68,5.5,5.08,8.46,15.31,1.83,18.89-2.13,1.15-4.68,1.18-7.12,1.19l-104.33.28c-6.21,0-12.58,0-18.38-2.16s-11-7-11.62-13c-1.33-12.81,14.38-26.1,10.82-38.5-15.48-1.94-38.41-1.38-35.92-6.06-6.6,1.4-14.78,3.73-15.43,10.29,5,6.81,34.43,3.11,43.6,1.24,16.53-3.36,14.32-10.54,26.27-22.18C107,98,138.59,82.3,167,92.41" fill="#231f20"/>
        </g>
        <g>
          <g>
            <path d="M184.9,80.2c-2.65-10.56.83-20.12-1.57-33.78-.9-5.13-1.54-10.53-4.51-14.8-5.79-8.33-17.63-9-27.78-8.91L60.56,23.77c-9.77.12-21.11,1-26.6,9.12-4.43,6.53-1.35,15.09-1.76,23a155.32,155.32,0,0,0,1.68,28.72c.45,2.44.95,5,2.59,6.86,2,2.21,5.08,2.92,8,3.31,14.57,2,35.13,1.82,49.8.84,32.92-2.22,54.08,1.64,87-.32C190.29,95.59,184.9,80.2,184.9,80.2Z" fill="#dae0d4"/>
            <path d="M83.17,79.79c32.93-2.21,54.08,1.65,87-.32,9,.32,3.61-15.07,3.61-15.07-2.65-10.56.84-20.12-1.56-33.78-.3-1.68-.57-3.38-.9-5.07a17.89,17.89,0,0,1,8,6.23c3,4.27,3.62,9.67,4.52,14.79,2.4,13.66-1.09,23.22,1.56,33.78,0,0,5.39,15.39-3.61,15.07-32.94,2-54.09-1.89-87,.32-14.67,1-35.23,1.12-49.8-.84-2.92-.39-6-1.1-8-3.31-1.64-1.85-2.15-4.42-2.6-6.85-.29-1.6-.56-3.58-.8-5.76C48.15,80.9,68.58,80.77,83.17,79.79Z" fill="#cbd1bd"/>
            <g clip-path="url(#clip-path)">
              <g>
                <path d="M150.49,45.79q2.88-5.46,5.81-10.88,6.63-12.33,13.5-24.55c1-1.72,3.63-.17,2.65,1.56q-5.76,10.26-11.37,20.6-2.85,5.25-5.66,10.53c-.88,1.65-1.76,3.29-2.62,5s-2,3.64-1.59,5.63c.32,1.7,1.53,3.18,2.53,4.52,1.19,1.58,2.45,3.11,3.72,4.61,2.36,2.76,4.82,5.44,7.25,8.13a154.43,154.43,0,0,1,13.4,16.67A131.48,131.48,0,0,1,190,109c.79,1.79-1.86,3.36-2.65,1.55-6.17-14-14.75-26.39-25-37.72-2.67-3-5.36-5.88-7.91-8.94-2.14-2.56-4.77-5.34-5.89-8.54C147.32,51.93,148.93,48.75,150.49,45.79Z" fill="#d3d8c6"/>
                <path d="M130.67,26.65A218.32,218.32,0,0,1,146.2,5c1.25-1.53,3.41.65,2.18,2.17a208.79,208.79,0,0,0-13.74,18.93c-2,3.13-4,6.33-5.81,9.57-.9,1.57-1.85,3.13-2.61,4.78a7.72,7.72,0,0,0-.21,6.23c2.38,6.78,6,13.24,9.17,19.66s6.28,12.77,8.84,19.4a78.89,78.89,0,0,1,5.4,22.88c.13,2-2.94,2-3.08,0-1-15-7.82-28.66-14.4-41.91-1.66-3.34-3.32-6.67-4.9-10a66.65,66.65,0,0,1-4.32-10.16c-1-3.55.21-6.54,1.92-9.64Q127.51,31.7,130.67,26.65Z" fill="#d3d8c6"/>
                <path d="M90.85,15.4c4.59-2.82,9.45-5.22,14.2-7.76l16.62-8.89c1.74-.94,3.3,1.72,1.55,2.65C114.12,6.27,105,11,95.94,16c-7.24,4-15,9.32-15.29,18.45s5.76,17.33,10.76,24.36a176,176,0,0,1,14.71,23.86,90.48,90.48,0,0,1,9.08,29.07c.24,2-2.84,1.94-3.08,0C109.71,92.11,99.16,75.14,88,59.3c-5.07-7.2-10.7-15.65-10.42-24.84C77.85,25.77,83.86,19.7,90.85,15.4Z" fill="#d3d8c6"/>
                <path d="M58-10.28A1.54,1.54,0,0,1,60.7-8.73c-8.12,13.94-14.29,31.24-10,47.43,2.23,8.52,7.86,14.86,12.67,22a69.69,69.69,0,0,1,9.69,23c2.23,9.29,3.16,18.83,4,28.32.18,2-2.89,2-3.07,0-1.62-17.37-3.52-35.51-13.68-50.27-4.79-7-10.14-13.28-12.46-21.58-2.18-7.83-2-16.13-.33-24A88.2,88.2,0,0,1,58-10.28Z" fill="#d3d8c6"/>
                <path d="M23.62,65.07Q29.38,69.68,35,74.43C38.07,77,41.22,79.62,43.37,83c2.26,3.6,2.73,7.77,2.76,11.93,0,5-.12,10-.32,15-.08,2-3.15,2-3.07,0q.27-6.83.31-13.65c0-4.32-.16-8.57-2.67-12.26C38.19,80.85,35,78.38,32,75.89q-5.22-4.38-10.55-8.64C19.91,66,22.09,63.85,23.62,65.07Z" fill="#d3d8c6"/>
              </g>
            </g>
          </g>
          <g>
            <path d="M17.5,125.8C19,116,15,107.6,15.91,95c.37-4.74.47-9.7,2.79-13.84,4.52-8.09,15.21-9.78,24.44-10.57l82.27-7.08c8.89-.77,19.27-.94,25,5.91C155,74.94,153,83,154,90.1a142.63,142.63,0,0,1,1,26.25c-.19,2.25-.42,4.62-1.75,6.45-1.58,2.18-4.35,3.1-7,3.72-13.06,3.07-31.74,4.78-45.15,5.19-30.11.92-49,6.31-79.07,7.45C14,140.26,17.5,125.8,17.5,125.8Z" fill="#bf469a"/>
            <path d="M133.43,113.91c2.63-.61,5.4-1.53,7-3.72,1.33-1.83,1.56-4.2,1.75-6.45a141.65,141.65,0,0,0-1-26.24c-.67-4.48-.12-9.32-.76-13.67a17.12,17.12,0,0,1,10,5.57C155,74.94,153,83,154,90.1a142.63,142.63,0,0,1,1,26.25c-.19,2.25-.42,4.62-1.75,6.45-1.58,2.18-4.35,3.1-7,3.72-13.06,3.07-31.74,4.78-45.15,5.19-30.11.92-49,6.31-79.07,7.45-7.42,1-5.16-10.9-4.7-13,25.53-1.69,43.59-6.19,70.86-7C101.69,118.7,120.37,117,133.43,113.91Z" fill="#a13982"/>
            <g clip-path="url(#clip-path-2)">
              <g>
                <path d="M45.94,91.46q-3.09-4.69-6.23-9.36Q32.57,71.48,25.25,61c-1-1.48-3.3.16-2.27,1.65q6.15,8.81,12.17,17.7,3,4.52,6.07,9.06c1,1.42,1.9,2.83,2.83,4.26s2.11,3.13,1.94,5a10.71,10.71,0,0,1-1.9,4.33c-.94,1.54-1.94,3-3,4.51-1.89,2.72-3.89,5.37-5.86,8a142,142,0,0,0-10.69,16.34,120.38,120.38,0,0,0-8.86,20.5c-.56,1.7,2,2.88,2.55,1.17A127.62,127.62,0,0,1,37.62,117c2.16-2.91,4.35-5.82,6.39-8.82,1.71-2.52,3.86-5.28,4.59-8.28C49.38,96.75,47.63,94,45.94,91.46Z" fill="#ba6ca6"/>
                <path d="M62.25,72.31a197,197,0,0,0-16-18.24c-1.27-1.28-3,.89-1.78,2.16a191.53,191.53,0,0,1,14.17,16q3.16,4,6.12,8.17c1,1.35,2,2.69,2.8,4.11a7.13,7.13,0,0,1,.75,5.65C66.7,96.5,64,102.68,61.69,108.8S57.12,121,55.38,127.21a71.8,71.8,0,0,0-2.86,21.26c0,1.8,2.84,1.52,2.79-.27-.39-13.72,4.55-26.73,9.35-39.35,1.21-3.18,2.42-6.36,3.56-9.56a61.65,61.65,0,0,0,3-9.62c.57-3.31-.78-5.92-2.6-8.58Q65.57,76.6,62.25,72.31Z" fill="#ba6ca6"/>
                <path d="M97.42,58.55c-4.42-2.15-9.06-3.9-13.6-5.79L67.94,46.17c-1.67-.69-2.84,1.85-1.17,2.54,8.69,3.62,17.43,7.13,26.08,10.85,6.93,3,14.46,7.13,15.52,15.39s-3.69,16.26-7.6,23.09a159.65,159.65,0,0,0-11.24,23,82.54,82.54,0,0,0-5.66,27.21c0,1.8,2.75,1.51,2.79-.27.44-18.06,8.52-34.4,17.25-49.79,4-7,8.33-15.17,7.25-23.49C110.15,66.82,104.15,61.84,97.42,58.55Z" fill="#ba6ca6"/>
                <path d="M124.93,32.31A1.41,1.41,0,0,0,122.65,34c8.62,11.94,15.76,27.1,13.34,42.19-1.27,7.94-5.81,14.2-9.56,21.1A63.86,63.86,0,0,0,119.68,119c-1.2,8.63-1.19,17.38-1.15,26.08,0,1.81,2.8,1.52,2.79-.27-.08-15.93,0-32.57,8-46.88,3.74-6.75,8-13,9.39-20.71a46.87,46.87,0,0,0-1.83-21.86A80.5,80.5,0,0,0,124.93,32.31Z" fill="#ba6ca6"/>
                <path d="M162.89,97.69q-4.81,4.69-9.51,9.51c-2.54,2.62-5.17,5.27-6.82,8.56-1.74,3.48-1.79,7.3-1.45,11.09.42,4.54,1,9.08,1.63,13.61.24,1.78,3,1.52,2.79-.28-.57-4.11-1.08-8.23-1.5-12.36-.4-3.92-.62-7.8,1.33-11.38,1.71-3.12,4.43-5.65,6.89-8.18q4.35-4.45,8.81-8.79C166.35,98.21,164.17,96.44,162.89,97.69Z" fill="#ba6ca6"/>
              </g>
            </g>
          </g>
          <g>
            <path d="M198.74,168.75c-2.49-9.91.78-18.88-1.47-31.7-.85-4.8-1.45-9.87-4.24-13.88-5.43-7.82-16.54-8.48-26.06-8.36l-84.9,1c-9.16.11-19.81,1-24.95,8.55-4.16,6.13-1.27,14.16-1.66,21.55a145.39,145.39,0,0,0,1.58,27c.42,2.29.9,4.69,2.43,6.43,1.84,2.08,4.76,2.74,7.51,3.11,13.67,1.83,33,1.71,46.72.79,30.89-2.08,50.74,1.54,81.65-.3C203.79,183.19,198.74,168.75,198.74,168.75Z" fill="#e6883e"/>
            <path d="M104.28,174.43c30.89-2.08,50.74,1.55,81.65-.3,8.44.3,3.38-14.14,3.38-14.14-2.48-9.91.79-18.88-1.46-31.69-.67-3.77-1.2-7.7-2.73-11.15a17,17,0,0,1,7.91,6c2.79,4,3.39,9.08,4.24,13.88,2.25,12.82-1,21.79,1.47,31.7,0,0,5,14.44-3.39,14.14-30.91,1.84-50.76-1.78-81.65.3-13.76.92-33,1-46.72-.79-2.75-.37-5.67-1-7.51-3.11a11.64,11.64,0,0,1-2.29-5.7l.38,0C71.23,175.48,90.52,175.36,104.28,174.43Z" fill="#d87848"/>
            <g clip-path="url(#clip-path-3)">
              <g>
                <path d="M166.19,136.46q2.7-5.11,5.44-10.2,6.24-11.58,12.68-23a1.44,1.44,0,0,1,2.48,1.45q-5.4,9.63-10.67,19.33-2.67,4.93-5.31,9.88c-.82,1.55-1.65,3.09-2.46,4.65s-1.85,3.42-1.49,5.28a11,11,0,0,0,2.38,4.24c1.11,1.48,2.29,2.92,3.49,4.33,2.21,2.59,4.52,5.1,6.8,7.62a145.44,145.44,0,0,1,12.57,15.65,124.08,124.08,0,0,1,11.13,20.08c.74,1.68-1.75,3.15-2.49,1.46a131.19,131.19,0,0,0-23.47-35.39c-2.51-2.77-5-5.52-7.43-8.39-2-2.4-4.47-5-5.52-8C163.21,142.22,164.72,139.25,166.19,136.46Z" fill="#e89b40"/>
                <path d="M147.59,118.51a203.14,203.14,0,0,1,14.57-20.28c1.18-1.44,3.2.61,2,2A196.85,196.85,0,0,0,151.31,118q-2.84,4.41-5.45,9c-.84,1.48-1.73,2.95-2.44,4.49a7.22,7.22,0,0,0-.2,5.85c2.23,6.36,5.61,12.42,8.6,18.45s5.89,12,8.3,18.2a74.21,74.21,0,0,1,5.06,21.47c.13,1.85-2.76,1.84-2.88,0-1-14.08-7.35-26.89-13.52-39.33-1.55-3.13-3.11-6.26-4.6-9.43a62.82,62.82,0,0,1-4.05-9.53c-.92-3.33.2-6.14,1.8-9Q144.62,123.24,147.59,118.51Z" fill="#e89b40"/>
                <path d="M110.23,108c4.3-2.65,8.87-4.9,13.33-7.28l15.58-8.34c1.64-.88,3.1,1.61,1.46,2.49-8.53,4.56-17.12,9-25.6,13.7-6.79,3.75-14.08,8.75-14.34,17.31s5.41,16.26,10.09,22.86a165.39,165.39,0,0,1,13.81,22.38,84.89,84.89,0,0,1,8.51,27.28c.23,1.84-2.66,1.82-2.88,0C127.93,179.92,118,164,107.56,149.14c-4.76-6.75-10-14.68-9.78-23.31C98,117.68,103.67,112,110.23,108Z" fill="#e89b40"/>
                <path d="M79.45,83.86a1.44,1.44,0,0,1,2.49,1.45c-7.62,13.08-13.41,29.31-9.42,44.51,2.09,8,7.37,13.94,11.89,20.62A65.49,65.49,0,0,1,93.5,172c2.09,8.71,3,17.67,3.79,26.57.17,1.85-2.71,1.84-2.88,0-1.52-16.3-3.3-33.32-12.84-47.17-4.49-6.53-9.51-12.46-11.68-20.24a48.06,48.06,0,0,1-.31-22.56A82.49,82.49,0,0,1,79.45,83.86Z" fill="#e89b40"/>
                <path d="M47.15,154.56q5.4,4.32,10.69,8.78c2.86,2.42,5.82,4.87,7.84,8.08,2.12,3.37,2.56,7.28,2.59,11.19,0,4.7-.12,9.4-.3,14.09-.07,1.85-3,1.86-2.88,0,.16-4.27.27-8.54.29-12.81,0-4-.15-8-2.5-11.5-2.06-3-5.1-5.34-7.87-7.68q-4.89-4.12-9.9-8.11C43.67,155.44,45.72,153.41,47.15,154.56Z" fill="#e89b40"/>
              </g>
            </g>
          </g>
        </g>
      </g>
    </g>
  </g>
</svg>
