<svg xmlns="http://www.w3.org/2000/svg" width="3in" height="3in" viewBox="0 0 216 216">
  <g style="isolation: isolate">
    <g id="sushi">
      <g>
        <g opacity="0.16" style="mix-blend-mode: darken">
          <path d="M188.29,151.53a26.23,26.23,0,0,0-7.46-.05c.3-1.34-.26-2.62-2.91-3.23-3.46-.79-7.21,0-10.71.75-30.29,6.15-63,2.75-93.93-1.71-5.76-.83-12-1.66-17.37-.08a10.64,10.64,0,0,0-4.54,2.64,32.32,32.32,0,0,0-5.27.73c-6.27,1.45-10,6.16-5.18,8.69a16.62,16.62,0,0,0,5.61,1.6c21.34,2.56,40.82,1.87,65.86,1.41,24.58-.46,39.13-.08,63.67-.78,2.74-.07,11.93-1.44,11.84-2.86C187.9,158.64,196.34,153,188.29,151.53Z" fill="#231f20"/>
        </g>
        <g>
          <path d="M182.53,143.94a32.39,32.39,0,0,0,5.53-11.71,7.16,7.16,0,0,1,4.81-1.95,21.8,21.8,0,0,1-1.36-14c-1,.77-2.12-1-1.8-2.28s1.28-2.32,1.4-3.63-1.36-2.38-2-1.64v-.56a21.2,21.2,0,0,0-1.3-12.86l-.45.17a31.27,31.27,0,0,0-1.24-3.18l1.54-1.15a12.81,12.81,0,0,0-2.36-.54c-4.83-9.23-13.76-15.47-23.95-15.47H63.77c-10,0-18.71,6-23.61,14.83a5.78,5.78,0,0,0-3-1.11c-2.49-.1-5,3.21-3.44,5.39a17.56,17.56,0,0,0,1.55,1.56c1.3,1.51,1.23,4,.34,5.85a14.45,14.45,0,0,1-3.91,4.46L36,107.21v5a98.79,98.79,0,0,0-2.58,22.23l4-.93a31.79,31.79,0,0,0,7.93,13.52c0,1.18.08,2.35.11,3.52,0,.83.12,1.79.76,2.23a2.06,2.06,0,0,0,1.62.13c1.35-.28,2.69-.62,4-1a25,25,0,0,0,12,3.09h8.52c1.56,1.34,3.76.84,5.83,0H87.3a3.07,3.07,0,0,1,.27.74A7.55,7.55,0,0,1,88,155h18c2.29,1.06,4.34.5,6.8.71,3.23.26,6.56.76,9.53-.71h22a50.77,50.77,0,0,0,12.72,2.34,10.67,10.67,0,0,1,1.24-2.34h3a25.4,25.4,0,0,0,14.78-4.85c1.47.38,2.93.83,4.36,1.33C181.16,149,181.85,146.46,182.53,143.94Z" fill="#ededee"/>
          <path d="M45.88,137.6a11.11,11.11,0,0,1,1.24,2.34,50.85,50.85,0,0,0,12.72-2.34h22c3,1.47,6.3,1,9.53.7,2.46-.2,4.51.36,6.8-.7h18a7.5,7.5,0,0,1,.42.74,3.08,3.08,0,0,1,.28-.74h9.18c2.07.84,4.26,1.34,5.83,0h8.52a25.06,25.06,0,0,0,12-3.09c1.33.39,2.67.73,4,1a2,2,0,0,0,1.62-.12,2.75,2.75,0,0,0,.75-2.23c0-1.17.08-2.35.11-3.52a31.57,31.57,0,0,0,7.93-13.53l4,.94a99.37,99.37,0,0,0-2.58-22.23v-5l4.33-1.12a14.45,14.45,0,0,1-3.91-4.46c-.89-1.84-1-4.34.34-5.85.47-.54,1.08-.92,1.5-1.51a29,29,0,0,1,14.82,13.73,12.81,12.81,0,0,1,2.36.54l-1.54,1.15a31.27,31.27,0,0,1,1.24,3.18l.45-.17a21.2,21.2,0,0,1,1.3,12.86v.56c.65-.74,2.13.43,2,1.64s-1.08,2.35-1.4,3.63.83,3,1.8,2.28a21.8,21.8,0,0,0,1.36,14,7.16,7.16,0,0,0-4.81,1.95,32.39,32.39,0,0,1-5.53,11.71c-.68,2.52-1.37,5-2.05,7.56-1.43-.5-2.89-.95-4.36-1.33A25.4,25.4,0,0,1,161.34,155h-3a10.67,10.67,0,0,0-1.24,2.34A50.77,50.77,0,0,1,144.38,155h-22c-3,1.47-6.3,1-9.53.71-2.46-.21-4.51.35-6.8-.71H88a7.55,7.55,0,0,0-.43.74,3.07,3.07,0,0,0-.27-.74H78.12c-2.07.84-4.27,1.34-5.83,0H63.77a25,25,0,0,1-12-3.09c-1.33.39-2.67.73-4,1a2.06,2.06,0,0,1-1.62-.13c-.64-.44-.73-1.4-.76-2.23,0-1.17-.07-2.34-.11-3.52a31.24,31.24,0,0,1-6.6-9.83,24,24,0,0,0,4.17.37Z" fill="#e3e6ec"/>
          <path d="M111.64,100.63c-27.54.67-51.64,7.58-72.28,3.19-10.18-3-25.07-17.4-28.87-26.56A5.27,5.27,0,0,1,10,73.5c.5-1.35,6.51-5.32,17-9.07,12.7-4.52,47.49-9.66,85.22-9.46,38,0,66.92,6.74,80.13,11.6,10.95,4,17.4,8.15,18,9.52a5.11,5.11,0,0,1-.07,3.75c-2.8,9.08-16.14,23.15-26,25.85C164.19,109.56,140.11,100.46,111.64,100.63Z" fill="#dae0d4"/>
          <path d="M36.82,95.36c20.64,4.39,44.74-2.53,72.28-3.19,28.47-.17,52.55,8.92,72.73,5.06,9.17-2.51,21.33-14.84,25.25-23.85,2,1.21,3.11,2.17,3.37,2.71a5.11,5.11,0,0,1-.07,3.75c-2.8,9.08-16.14,23.15-26,25.85-20.18,3.87-44.26-5.23-72.73-5.06-27.54.67-51.64,7.58-72.28,3.19-10.18-3-25.07-17.4-28.87-26.56A5.27,5.27,0,0,1,10,73.5a1.36,1.36,0,0,1,.27-.41C16,81.92,28.13,92.83,36.82,95.36Z" fill="#d3d8c6"/>
          <path d="M189,78.5c-11.85-4.89-24.63-7.45-37.28-9.26a310.79,310.79,0,0,0-35.79-3c-8.81-.24-17.61.1-26.4.7-11.17.77-22.33,1.9-33.39,3.64-5.17.81-10.32,1.75-15.41,3-2.2.53-4.39,1.12-6.56,1.8q-1.43.45-2.82,1l-1.22.47c-.54.21-.57.23-1.05.44-.74.33-1.46.68-2.16,1.06-1.94,1-3.67-1.9-1.73-3a51.57,51.57,0,0,1,11-4.13C41,69.91,46,68.9,51,68c11.32-2,22.77-3.25,34.22-4.15,9-.71,18.11-1.23,27.17-1.1a319.47,319.47,0,0,1,35,2.44c13,1.63,26.14,4,38.52,8.4,1.38.5,2.75,1,4.1,1.59a1.76,1.76,0,0,1,1.2,2.1A1.72,1.72,0,0,1,189,78.5Z" fill="#d3d8c6"/>
          <path d="M178,88.86a231.2,231.2,0,0,0-25.8-6.48c-9.17-1.8-18.42-3.22-27.72-4.14a206,206,0,0,0-51.37,1.7,292.32,292.32,0,0,0-35.61,7.77c-2.13.61-3-2.69-.91-3.29A271,271,0,0,1,96.91,74.09c17.65-.89,35.29,1.1,52.63,4.31a236.8,236.8,0,0,1,29.4,7.16c2.09.67,1.2,4-.9,3.3Z" fill="#d3d8c6"/>
        </g>
      </g>
    </g>
  </g>
</svg>
