<svg xmlns="http://www.w3.org/2000/svg" width="3in" height="3in" viewBox="0 0 216 216">
  <g style="isolation: isolate">
    <g id="sushi">
      <g>
        <ellipse cx="114.38" cy="168.01" rx="63.09" ry="22.37" fill="#231f20" opacity="0.16" style="mix-blend-mode: darken"/>
        <g>
          <path d="M173.52,59.88V160.57c0,13.7-28.12,24.81-62.8,24.81s-62.79-11.11-62.79-24.81V59.88C65.62,27.83,164.26,36.72,173.52,59.88Z" fill="#bcbec0"/>
          <ellipse cx="110.72" cy="72.11" rx="54.84" ry="16.2" fill="#7a8333"/>
          <path d="M173.52,59.88V160.57c0,13.7-28.12,24.81-62.8,24.81s-62.79-11.11-62.79-24.81V59.88C60.58,92.56,160.89,92,173.52,59.88Z" fill="#808285"/>
          <path d="M163.84,150.51c0-.29.15-3.52.15-5.12V71.18c4.49-3.19,7.82-7,9.53-11.3V160.57c0,13.7-28.12,24.81-62.8,24.81-30.27,0-55.53-8.46-61.47-19.73,11.42,6.2,29.92,10.24,50.81,10.24C134.74,175.89,163.84,164.22,163.84,150.51Z" fill="#6d6e71"/>
          <path d="M47.93,61.54c0,13.7,28.11,24.81,62.79,24.81s62.8-11.11,62.8-24.81-28.12-24.82-62.8-24.82S47.93,47.83,47.93,61.54Zm5.81,0c0-11.4,25.51-20.63,57-20.63s57,9.23,57,20.63-25.51,20.62-57,20.62S53.74,72.93,53.74,61.54Z" fill="#636466"/>
          <g opacity="0.5">
            <path d="M106.33,67.08a51.21,51.21,0,0,1,12.58-1.34,23.47,23.47,0,0,1,5.36.5c1.07.27,3.14,1,3.28,2.32,0,0,.12.32.09.36a6.15,6.15,0,0,1-1,.1l-1.47.14c-1.14.1-2.28.19-3.42.26-2.12.14-4.24.23-6.37.29-4.24.1-8.5,0-12.74-.21-1.06-.06-2.12-.13-3.18-.22a3.84,3.84,0,0,1-1.22-.13c-.09,0-.4-.05-.46-.14-.29-.45.29-.86.55-1.07a25.09,25.09,0,0,1,4.49-2.67,40,40,0,0,1,10.06-3.42,40.57,40.57,0,0,1,20.82,1.32c.78.26,1.54.55,2.3.86s2,.66,2.37,1.43c.85,1.69-2,3.47-3.12,4.2A40.25,40.25,0,0,1,124.48,74a86.39,86.39,0,0,1-24.35,3.21,85.66,85.66,0,0,1-12.48-1c-1.86-.3-10.56-1.7-8.58-5.11.87-1.49,3.1-2.23,4.6-2.84a48.44,48.44,0,0,1,5.65-1.85,96.39,96.39,0,0,1,12.05-2.22,203.26,203.26,0,0,1,26-1.75c7.95,0,16,.14,22.64,5.19a24.13,24.13,0,0,1,3.84,3.72l.2-1.57c-1.53,1.06-3.52,1.13-5.31,1.38l-6.16.88-12.33,1.76c-8.13,1.15-16.25,2.37-24.44,3-7.91.67-16,.92-23.76-1.28a74.21,74.21,0,0,1-10.91-4.34c-.51-.24-2.09-.69-2-1.28s2-1,2.56-1.12c1.92-.59,3.84-1.14,5.77-1.68a234.84,234.84,0,0,1,26.53-5.67c1.27-.2.73-2.12-.53-1.93A234.53,234.53,0,0,0,77.55,65c-2.16.59-4.31,1.22-6.46,1.87-1.4.42-3.51.76-4.15,2.3s.67,2.58,1.9,3.17c2,.93,3.91,1.83,5.9,2.68a50.75,50.75,0,0,0,12,3.59,67,67,0,0,0,12.66.62,253.37,253.37,0,0,0,26.22-2.81l15.24-2.17,7.64-1.09c2.2-.31,4.65-.38,6.53-1.69a1,1,0,0,0,.2-1.57,25.66,25.66,0,0,0-9.85-7.22c-4.39-1.82-9.18-2.16-13.89-2.24a203.44,203.44,0,0,0-30.61,1.79A86.61,86.61,0,0,0,86.8,65a41.24,41.24,0,0,0-6.36,2.47c-1.42.71-3,1.79-3.46,3.38-1.33,4.29,4.69,6.13,7.71,6.79a76.21,76.21,0,0,0,14,1.54,87.65,87.65,0,0,0,28.46-3.9c4-1.23,8.54-2.82,11.55-5.82,1.19-1.19,2.21-3,1.56-4.66s-2.82-2.37-4.4-3a42.26,42.26,0,0,0-24.15-1.8,41.41,41.41,0,0,0-11.53,4.33c-1.49.84-3.69,1.84-4.4,3.51s.49,2.91,2,3.22a45.93,45.93,0,0,0,7.23.51c2.53.1,5.07.15,7.6.13a101.45,101.45,0,0,0,15.19-.86c1.77-.29,2.05-1.93,1.4-3.4a5.7,5.7,0,0,0-3.38-2.83,18.75,18.75,0,0,0-5.81-.89,52.19,52.19,0,0,0-7.29.22,53.5,53.5,0,0,0-7,1.16c-1.25.29-.72,2.22.53,1.93Z" fill="#828c2c"/>
          </g>
        </g>
      </g>
    </g>
  </g>
</svg>
