<svg xmlns="http://www.w3.org/2000/svg" width="3in" height="3in" viewBox="0 0 216 216">
  <g style="isolation: isolate">
    <g id="sushi">
      <g>
        <ellipse cx="112.27" cy="127.56" rx="86.95" ry="34.24" fill="#231f20" opacity="0.16" style="mix-blend-mode: darken"/>
        <g>
          <ellipse cx="108" cy="122.09" rx="84.49" ry="35.65" fill="#bf469a"/>
          <path d="M180,115.07c0-6.44-4.08-12.48-11.17-17.7,14.64,6.41,23.65,15.12,23.65,24.72,0,19.69-37.83,35.65-84.49,35.65-31.39,0-58.76-7.22-73.33-17.94,15.37,6.73,36.94,10.92,60.85,10.92C142.18,150.72,180,134.76,180,115.07Z" fill="#b24190"/>
          <g>
            <path d="M106.93,49c-.18,7.39,7.07,12.61,13.74,15.8,13.33,6.36,28.42,10.81,37.89,22.14,3.72,4.45,6.38,10.75,3.9,16-2,4.12-6.44,6.29-10.6,8.15L106.93,68.27Z" fill="#507e30"/>
            <path d="M136.8,132.66c6-1.5,12.15-2.73,17-6.47a16.11,16.11,0,0,0,5.2-6.11c1.43-3.33,1.07-7.19-.08-10.62-2.64-7.85-9-13.85-15.8-18.61S129,82.21,122.76,76.74a51.83,51.83,0,0,1-15.49-24.53,71.78,71.78,0,0,0-12.53,39c-.09,4.41.27,9,2.15,13a36.23,36.23,0,0,0,4.43,6.64l13.57,17.42S126.18,135.32,136.8,132.66Z" fill="#578634"/>
            <path d="M106.93,45.25c.64,18.67,3.37,39.14,11.95,48.82,4.07,4.6,9,6.17,13.17,10.51s7.58,13.44,5.72,21.78a16,16,0,0,1-9.15,11.51c-10.28,4.88-23.24,1.74-32.83-5.71l-4.5-18.23,15.64-68.68" fill="#5d8e38"/>
            <path d="M106,46.64c-8.89,15.71-26.45,16.13-39.22,25-20.06,14-18.2,50.76,4,60.31Z" fill="#5d8e38"/>
            <path d="M107.08,44.6c-9,18.66-27.38,25.3-39.95,39C61.51,89.76,56.32,98.78,57,108.94A32.21,32.21,0,0,0,61.64,123c8.54,14.47,23.14,19.66,36,15.47a3.69,3.69,0,0,0,2.42-1.78c.85-1.72.22-4.08-.33-6-3.81-13.62-2.34-29.11.31-43.3s6.41-28.12,7.08-42.79" fill="#6da342"/>
          </g>
          <g opacity="0.16" style="mix-blend-mode: darken">
            <path d="M58.14,115.13c8.59,9.15,23.1,15.13,33.63,11.7.9-.3,3.26-.65,4.34-1.4.42-.29,2-1.62,2-2.14,8.88,5.12,19.15,7.24,27.86,3.1,2.12-1,10.34-5.41,12.12-7.73a19.35,19.35,0,0,0,9.89-4.15,17.19,17.19,0,0,0,5.2-6.11c2.33-4.85-2.13-10.79-2.38-11.39,1.76-1.26,4.86-3.83,5.79-5.79a10.36,10.36,0,0,0,.92-5.44c.34.38.69.74,1,1.14,3.72,4.45,6.38,10.75,3.9,16a12.38,12.38,0,0,1-4.2,4.72c.26.6.5,1.21.71,1.84,1.15,3.43,1.51,7.29.08,10.61a16,16,0,0,1-5.2,6.11c-4.9,3.75-11.07,5-17,6.47-.69.17-1.38.3-2.07.4a16.45,16.45,0,0,1-6.11,4.81c-8.71,4.14-19.34,2.5-28.21-2.62a4.26,4.26,0,0,1-.39,1.47,3.71,3.71,0,0,1-2.42,1.79c-10.52,3.43-22.24.54-30.82-8.61-6.21-4-10.37-10.5-12.44-17.78C56.2,114.48,55.59,113.47,58.14,115.13Z" fill="#231f20"/>
          </g>
        </g>
      </g>
    </g>
  </g>
</svg>
