<svg xmlns="http://www.w3.org/2000/svg" width="3in" height="3in" viewBox="0 0 216 216">
  <g style="isolation: isolate">
    <g id="sushi">
      <g>
        <ellipse cx="110.07" cy="176.78" rx="66.81" ry="15.51" fill="#231f20" opacity="0.16" style="mix-blend-mode: darken"/>
        <g>
          <path d="M186.9,91.06c0,48.57-17,69.36-17,79.25s-27.73,17.9-61.94,17.9-61.94-8-61.94-17.9-17-30.68-17-79.25Z" fill="#d1d3d4"/>
          <path d="M164,163.1c0-9.39,15.27-28.6,16.83-72h6.08c0,48.57-17,69.36-17,79.25s-27.73,17.9-61.94,17.9c-33.66,0-61-7.76-61.9-17.43,9.95,6,31.26,10.22,56,10.22C136.26,181,164,173,164,163.1Z" fill="#bcbec0"/>
          <ellipse cx="108" cy="91.06" rx="78.9" ry="22.8" fill="#b1b3b6"/>
          <path d="M67.74,110.56c44.3,5.82,72.32,4.64,98.71-4.24,3.39-29.17-19.11-47.1-42.7-48S62.79,73.41,67.74,110.56Z" fill="#779a39"/>
          <path d="M76.08,56.76C72.5,42,60.28,20.07,51.63,20.33,48,22,49.44,34.26,51.43,40.93c2.17,7.23,6.63,13.58,8.91,20.78C62.8,69.52,62.59,78,64.85,85.86s8.35,15.7,16.48,15.72a13.06,13.06,0,0,0,12.12-8.91c2.14-6.73-1.52-13.9-6-19.28S78.81,63.23,76.08,56.76" fill="#a46728"/>
          <path d="M88.8,91.15c2.14-6.73-1.52-13.9-6-19.28S74.16,61.71,71.43,55.24c-3-12.34-12-29.61-19.9-34.85l.1-.06C60.28,20.07,72.5,42,76.08,56.76,78.81,63.23,83,68,87.44,73.39s8.15,12.55,6,19.28a13.06,13.06,0,0,1-12.12,8.91A12.83,12.83,0,0,1,75.19,100a12.29,12.29,0,0,0,1.49.09A13.06,13.06,0,0,0,88.8,91.15Z" fill="#996024"/>
          <path d="M119.13,58.32c1.58-.08,3.13-.09,4.62,0,23.59.93,46.09,18.85,42.7,48L161.11,108C164.48,79,142.54,59.47,119.13,58.32Z" fill="#6f9035"/>
          <path d="M40.75,102.83c11.59,6.5,40.46,11,70.12,11.16C112,91.42,93,76.35,75.37,75.51S41.54,86.24,40.75,102.83Z" fill="#81a53e"/>
          <path d="M71.73,75.52c1.2-.06,2.42-.07,3.64,0C93,76.35,112,91.42,110.87,114c-1.25,0-2.5,0-3.74,0C108.18,91.44,89.3,76.41,71.73,75.52Z" fill="#7c9f3b"/>
        </g>
      </g>
    </g>
  </g>
</svg>
