<svg xmlns="http://www.w3.org/2000/svg" xmlns:xlink="http://www.w3.org/1999/xlink" width="3in" height="3in" viewBox="0 0 216 216">
  <defs>
    <mask id="mask" x="29.51" y="61.57" width="85.64" height="53.08" maskUnits="userSpaceOnUse">
      <g>
        <path d="M102.12,104.82a21.33,21.33,0,0,1,1.31-5.2c.69-1.53,1.75-2.75,3.34-2.86a8.09,8.09,0,0,1,4,1.21c.73.38,1.44.8,2.15,1.22l.89.51.43.23.06,0,.17.07a1,1,0,0,1,.61,1.2.86.86,0,0,1-1.07.67,30.08,30.08,0,0,1-3.24-1.78,10,10,0,0,0-3.51-1.41,3.24,3.24,0,0,0-.44,0h-.23a2.35,2.35,0,0,0-.35.11h0L106,99,106,99a.94.94,0,0,0-.1.1c-.13.16-.27.31-.39.49a6.63,6.63,0,0,0-.54,1,20.46,20.46,0,0,0-1.15,4.87,13.62,13.62,0,0,1-2,5.61.82.82,0,0,1-1.23,0,1.1,1.1,0,0,1,0-1.38A11.94,11.94,0,0,0,102.12,104.82Z" fill="#edc443"/>
        <path d="M97.18,84.06c1.73-1.43,4.13-1.28,6.14-.94,3.29.56,6.37,2.14,9.39,3.62a1,1,0,0,1,.31,1.33.83.83,0,0,1-1.18.34,40.21,40.21,0,0,0-7.69-3.14,11.62,11.62,0,0,0-3.8-.41c-.19,0-.36,0-.46,0a4.34,4.34,0,0,0-.62.16,2.44,2.44,0,0,0-.88.41l-.19.13-.12.1a3.76,3.76,0,0,0-.34.35l-.14.18,0,0,0,0-.27.47c0,.08-.07.17-.11.25l-.06.14a.86.86,0,0,1-.05.15c0,.11-.07.21-.1.32-.09.36-.16.72-.22,1.09v.14l0,.27c0,.21,0,.43,0,.64,0,.43,0,.86,0,1.29,0,.87.11,1.73.21,2.6,0,.15,0,0,0,.18s0,.26,0,.39.07.48.1.72l.18,1.34c.13.9.25,1.79.31,2.69a.87.87,0,1,1-1.73,0c0-.36-.07-.72-.11-1.09v-.12c0-.1,0-.2,0-.3s0-.41-.08-.62c-.12-.89-.25-1.79-.36-2.69a23.47,23.47,0,0,1-.17-5.74A6.5,6.5,0,0,1,97.18,84.06Z" fill="#edc443"/>
        <path d="M80.22,79a12.11,12.11,0,0,0,1.49,5.22c1.53,3,3.84,5.69,4.69,9.11a.88.88,0,1,0,1.68-.51C87.13,89,84.56,86.14,83,82.7A7.86,7.86,0,0,1,82,78.06a3.55,3.55,0,0,1,.45-1.2l.11-.17,0,0,.2-.24a4.85,4.85,0,0,1,.49-.52h0l.12-.1.29-.21a6.18,6.18,0,0,1,.64-.4l.34-.18.05,0,.13-.06a11.5,11.5,0,0,1,1.46-.51,16.49,16.49,0,0,1,3.31-.56c4.53-.38,9,.36,13.54.59,1.12.06,1.11-1.88,0-1.94-2.44-.12-4.88-.44-7.32-.59a38.34,38.34,0,0,0-7.65.16A10.92,10.92,0,0,0,81.9,74.7,5.84,5.84,0,0,0,80.22,79Zm3.1-3.08c.09-.08,0,0,0,0Z" fill="#edc443"/>
        <path d="M71.86,70.13a15.56,15.56,0,0,1,6.33-3.07.88.88,0,0,1,1.07.67,1,1,0,0,1-.61,1.2,14.54,14.54,0,0,0-5.24,2.35A9,9,0,0,0,70,75.59a8.1,8.1,0,0,0,.71,6.16c1.15,2.33,2.42,4.58,3.54,6.92A38.16,38.16,0,0,1,77.06,97c.26,1.21-1.41,1.73-1.67.51a36.12,36.12,0,0,0-2.48-7.53c-1.14-2.42-2.45-4.74-3.64-7.13a9.61,9.61,0,0,1,2.59-12.68Z" fill="#edc443"/>
        <path d="M57.15,74.38A13.37,13.37,0,0,0,57.31,81a21.93,21.93,0,0,0,2.81,6c.61,1,1.26,1.89,1.93,2.8l1,1.31a2.51,2.51,0,0,1,.3.47.69.69,0,0,1,0,.1A1.07,1.07,0,0,0,63.42,93a.82.82,0,0,0,1.23,0c1.09-1.06.08-2.54-.59-3.46s-1.44-2-2.11-3c-2.31-3.5-4.27-7.75-3-12.17a22.64,22.64,0,0,1,2.46-5.07,23.37,23.37,0,0,0,2.52-5.57.88.88,0,1,0-1.67-.52A24.06,24.06,0,0,1,59.52,69,20.44,20.44,0,0,0,57.15,74.38Zm6.23,17.37s0,.09,0,.09S63.37,91.79,63.38,91.75Z" fill="#edc443"/>
        <path d="M42.71,79.14a23.31,23.31,0,0,1,2.6-8.36c1.44-2.93,3.15-5.7,4.42-8.74a.83.83,0,0,1,1.18-.35A1.06,1.06,0,0,1,51.22,63c-2.1,5.07-5.73,9.54-6.66,15.16a11.91,11.91,0,0,0,1.07,7.14A26.84,26.84,0,0,0,50,91.52c1.87,2.08,3.9,4,5.81,6,.82.86-.41,2.23-1.22,1.38C51.06,95.14,47,91.72,44.46,87A14.23,14.23,0,0,1,42.71,79.14Z" fill="#edc443"/>
        <path d="M29.55,85.73c.11-2.32.41-4.62.55-6.94a1,1,0,0,1,.87-1,.94.94,0,0,1,.87,1c-.25,3.87-1,7.84-.41,11.71a8.64,8.64,0,0,0,2,4.79,8.74,8.74,0,0,0,4.4,2.28c1.87.46,3.78.59,5.68.87a1,1,0,0,1,.86,1c0,.47-.4,1-.86,1-3.63-.54-7.71-.54-10.73-3.17S29.36,89.8,29.55,85.73Z" fill="#edc443"/>
      </g>
    </mask>
    <mask id="mask-2" x="87.36" y="64.03" width="81.49" height="96.51" maskUnits="userSpaceOnUse">
      <g>
        <path d="M123.89,147.45a28.28,28.28,0,0,0-6.4-.82c-2,.07-3.89.64-4.76,2.21a8.1,8.1,0,0,0-.56,4.57c.08.89.21,1.78.34,2.66.06.37.11.74.16,1.11,0,.18,0,.35,0,.53v.07s0,.18,0,.21a1.12,1.12,0,0,0,1,1.1c.58.08,1.25-.28,1.25-.8a30.25,30.25,0,0,0-.46-4,9.83,9.83,0,0,1,.09-4.13,3.43,3.43,0,0,1,.19-.44l.09-.17,0,0,0,0a4,4,0,0,1,.28-.32l0,0,0,0,.24-.15.11-.06.15-.05a6.38,6.38,0,0,1,.72-.19,7.63,7.63,0,0,1,1.35-.14,26.92,26.92,0,0,1,6,.83,18.29,18.29,0,0,0,7.17.3.87.87,0,0,0,.58-1.24,1.33,1.33,0,0,0-1.52-.56A16.19,16.19,0,0,1,123.89,147.45Z" fill="#edc443"/>
        <path d="M103.12,133.93c-2.4,1.16-3.37,3.65-3.94,5.82-.93,3.55-.63,7.3-.4,11,0,.52.77.91,1.33.86a1,1,0,0,0,.94-1,40.24,40.24,0,0,1,.12-9.05,12.19,12.19,0,0,1,1.34-4,4.85,4.85,0,0,1,.28-.45c.14-.19.3-.38.46-.56a3.22,3.22,0,0,1,.87-.72l.24-.13.17-.09a5.1,5.1,0,0,1,.55-.19l.26-.07,0,0h0l.65-.08h.71l.4,0a11.58,11.58,0,0,1,1.31.23l.1,0,.07,0,.31.09.73.22c.48.16,1,.34,1.43.54,1,.38,1.88.82,2.79,1.28a1,1,0,0,1,.19.09l.41.21.76.39,1.41.75c.94.49,1.88,1,2.85,1.41A1.2,1.2,0,0,0,121,140c.23-.5-.11-1-.67-1.27-.4-.17-.78-.36-1.17-.55l0,0-.07,0-.32-.17-.65-.33c-.94-.5-1.88-1-2.83-1.48a30.12,30.12,0,0,0-6.31-2.52A8.69,8.69,0,0,0,103.12,133.93Z" fill="#edc443"/>
        <path d="M99.9,114.68A12.75,12.75,0,0,0,94,120a39.5,39.5,0,0,0-3.78,7.66c-1,2.52-1.79,5.11-2.8,7.63-.46,1.14,1.7,1.94,2.16.79,1.87-4.65,3.16-9.48,5.72-13.9a18.39,18.39,0,0,1,2.18-3.11,12.49,12.49,0,0,1,1.26-1.26l.13-.12,0,0,.36-.27a7.84,7.84,0,0,1,.74-.48l.38-.2.16-.08h0a7.06,7.06,0,0,1,.81-.29l.36-.1h0l.25,0a5,5,0,0,1,1.55,0,9.44,9.44,0,0,1,4.72,2.86c3.07,3,5,6.78,8.81,9.3,1.2.79,2.56-.68,1.36-1.48-3.4-2.26-5.25-5.69-7.92-8.47a14.31,14.31,0,0,0-5.11-3.66A7.86,7.86,0,0,0,99.9,114.68Zm.65,1.92Z" fill="#edc443"/>
        <path d="M99.55,102.67a18.7,18.7,0,0,0-6.4,5.12.9.9,0,0,0,.25,1.36A1.3,1.3,0,0,0,95,109a17.6,17.6,0,0,1,5.09-4.33,12,12,0,0,1,6.39-1.65A10,10,0,0,1,113,106.3c2,2.12,4,4.32,6,6.41a43.75,43.75,0,0,0,7.9,6.23c1.23.76,2.59-.72,1.36-1.48a40.26,40.26,0,0,1-7.2-5.59c-2.17-2.14-4.12-4.42-6.23-6.61a12.78,12.78,0,0,0-7.7-4.06A13.93,13.93,0,0,0,99.55,102.67Z" fill="#edc443"/>
        <path d="M104.11,89.76a32.76,32.76,0,0,1-7.74.39,1,1,0,1,0-.21,1.9,31.44,31.44,0,0,0,7.39-.26,30.83,30.83,0,0,1,6.8-.39c5.52.52,9.33,4.24,12.13,8,.82,1.1,1.57,2.23,2.32,3.35s1.87,2.69,3.57,2a.88.88,0,0,0,.57-1.24,1.34,1.34,0,0,0-1.4-.59l-.08-.09a2.28,2.28,0,0,1-.38-.5l-1-1.5c-.71-1-1.44-2.09-2.22-3.1a24.75,24.75,0,0,0-5.39-5.32,16.81,16.81,0,0,0-7.26-2.87A27.17,27.17,0,0,0,104.11,89.76Zm23.58,13.29s0,0-.09,0S127.7,103,127.69,103.05Z" fill="#edc443"/>
        <path d="M123.32,77a30.93,30.93,0,0,0-10.53-.81c-3.94.24-7.83.84-11.81.86a.94.94,0,0,0-.94,1.06,1.26,1.26,0,0,0,1.33.86c6.63,0,13.32-1.87,20-.5a14.48,14.48,0,0,1,7.44,4,28,28,0,0,1,4.83,7c1.44,2.74,2.6,5.57,4,8.34.57,1.17,2.67.5,2.1-.67-2.51-5.13-4.41-10.64-8.52-15.16A17.08,17.08,0,0,0,123.32,77Z" fill="#edc443"/>
        <path d="M136.85,66.39c-2.63-.85-5.34-1.49-8-2.29a1.22,1.22,0,0,0-1.49.47,1,1,0,0,0,.67,1.28c4.42,1.34,9.19,2.22,13.22,4.39a9.9,9.9,0,0,1,4.37,4,8.48,8.48,0,0,1,.47,5.38,60.92,60.92,0,0,1-1.71,6.08,1,1,0,0,0,.67,1.28c.53.19,1.35,0,1.49-.48,1.11-3.88,3-8,1.52-12.12S141.47,67.87,136.85,66.39Z" fill="#edc443"/>
      </g>
    </mask>
  </defs>
  <g style="isolation: isolate">
    <g id="sushi">
      <g>
        <ellipse cx="110.37" cy="144.94" rx="65.51" ry="30.75" fill="#231f20" opacity="0.16" style="mix-blend-mode: darken"/>
        <g>
          <ellipse cx="106.62" cy="73.64" rx="30.9" ry="15.19" fill="#6da342"/>
          <g>
            <path d="M50.67,70.55c6.19,0,10.89-.94,18.56-.87,8-.07,12.37.86,18.56.87,5.16,0,9.61,2.88,13.93,6.46,3.34,2.76,4.93,6.86,6.59,10.94,2.33,5.72,6.32,13.61,5.25,20.09-.55,3.31-3.88,8.15-7.41,6.14-3-1.72-3.38-7.11-4.69-10.17-1.73-4.05-4.12-7.63-7.86-9.54-7.17-3.65-14-5.17-24.37-5.47-10.4.3-17.2,1.82-24.37,5.47" fill="#e6883e"/>
            <path d="M44.86,90.23c7.17-3.65,14-5.16,24.37-5.47,10.4.31,17.2,1.82,24.37,5.47,3.74,1.91,6.13,5.49,7.86,9.54,1.31,3.06,1.67,8.45,4.69,10.17,3.53,2,6.86-2.82,7.41-6.14l0-.24a15.89,15.89,0,0,1,0,4.52c-.55,3.31-3.88,8.15-7.41,6.14-3-1.72-3.38-7.11-4.69-10.17-1.73-4-4.12-7.63-7.86-9.54-7.17-3.65-14-5.17-24.37-5.47-10.4.3-17.2,1.82-24.37,5.47" fill="#d87848"/>
            <g mask="url(#mask)">
              <path d="M50.67,70.55c6.19,0,10.89-.94,18.56-.87,8-.07,12.37.86,18.56.87,5.16,0,9.61,2.88,13.93,6.46,3.34,2.76,4.93,6.86,6.59,10.94,2.33,5.72,6.32,13.61,5.25,20.09-.55,3.31-3.88,8.15-7.41,6.14-3-1.72-3.38-7.11-4.69-10.17-1.73-4.05-4.12-7.63-7.86-9.54-7.17-3.65-14-5.17-24.37-5.47-10.4.3-17.2,1.82-24.37,5.47" fill="#e89b40"/>
            </g>
          </g>
          <g>
            <path d="M121.79,107.77c5.24-10.37,10.13-16.6,17.57-22.34,3.89-3,9-3.93,14.32-4,4-.06,10.19,1.79,13.53-.55,3.9-2.74.08-8.08-3.35-10-6.7-3.74-17.36-3-24.82-3-5.33,0-10.64-.08-15.28,2.15-6,2.89-11.32,6.2-13.75,11.4-2.93,6.24-6.18,10.61-9.72,18.37-3.87,8.09-4.87,12.84-7.78,19.09-2.42,5.2-1.33,10.87.62,16.71,1.5,4.49,5.31,7.78,9.08,11.14,5.26,4.7,12.16,12,19.87,13.54,4,.81,10.9-.56,10.32-4.94-.48-3.76-6.31-6.34-9.1-8.92-3.69-3.41-6.55-7.29-6.91-11.85C115.71,125.87,117.23,118.38,121.79,107.77Z" fill="#e6883e"/>
            <path d="M159.15,69.13c3.43,1.91,7.24,7.25,3.34,10-3.33,2.34-9.51.49-13.53.55-5.32.08-10.43,1-14.32,4-7.44,5.73-12.33,12-17.57,22.34-4.56,10.61-6.08,18.09-5.4,26.83.36,4.56,3.22,8.44,6.91,11.85,2.79,2.58,8.62,5.16,9.11,8.91.57,4.39-6.37,5.76-10.32,4.95l-.29-.06a20.48,20.48,0,0,0,5,1.82c3.95.81,10.9-.56,10.33-5-.49-3.75-6.32-6.34-9.11-8.91-3.69-3.41-6.55-7.29-6.91-11.85-.68-8.74.84-16.22,5.4-26.84,5.24-10.36,10.13-16.6,17.57-22.34,3.89-3,9-3.93,14.32-4,4-.06,10.2,1.79,13.53-.55,3.9-2.74.09-8.08-3.35-10a20.32,20.32,0,0,0-5-1.89Z" fill="#d87848"/>
            <g mask="url(#mask-2)">
              <path d="M121.79,107.77c5.24-10.37,10.13-16.6,17.57-22.34,3.89-3,9-3.93,14.32-4,4-.06,10.19,1.79,13.53-.55,3.9-2.74.08-8.08-3.35-10-6.7-3.74-17.36-3-24.82-3-5.33,0-10.64-.08-15.28,2.15-6,2.89-11.32,6.2-13.75,11.4-2.93,6.24-6.18,10.61-9.72,18.37-3.87,8.09-4.87,12.84-7.78,19.09-2.42,5.2-1.33,10.87.62,16.71,1.5,4.49,5.31,7.78,9.08,11.14,5.26,4.7,12.16,12,19.87,13.54,4,.81,10.9-.56,10.32-4.94-.48-3.76-6.31-6.34-9.1-8.92-3.69-3.41-6.55-7.29-6.91-11.85C115.71,125.87,117.23,118.38,121.79,107.77Z" fill="#e89b40"/>
            </g>
          </g>
          <path d="M172.52,80.07v60.44c0,16.68-29.36,30.21-65.58,30.21s-65.58-13.53-65.58-30.21V80.07C84.18,108.61,127.89,109.21,172.52,80.07Z" fill="#383208"/>
          <path d="M162.94,121.38V85.86c3.19-1.78,6.38-3.7,9.58-5.79v60.44c0,16.68-29.36,30.21-65.58,30.21s-65.58-13.53-65.58-30.21V137.1c11.52,8.69,32.29,14.49,56,14.49C133.58,151.59,162.94,138.06,162.94,121.38Z" fill="#322c03"/>
          <path d="M44.67,93C47,94.29,49.62,95.29,52,96.55c1,.71,2.05,1.39,3.17,2a11.46,11.46,0,0,1,2.31,2.45,5.65,5.65,0,0,0,1.73,2,4.22,4.22,0,0,0,2.42.28c.88-.07,1.78-.19,2.67-.31a101.43,101.43,0,0,0,20.5,5.51,7.14,7.14,0,0,0,3.54.73,6.65,6.65,0,0,0,.78-.1,138.13,138.13,0,0,0,17.84,1.14c1.91,0,3.79-.05,5.65-.12l7.36,3.76c2.55,1.3,2.85-2.62,5.52-3.64a24.87,24.87,0,0,0,3.62-1.77,108.89,108.89,0,0,0,14.28-3.32,11.21,11.21,0,0,0,3.12.89,6.06,6.06,0,0,0,6.16-4.36,57.08,57.08,0,0,0,8-4.35h.09c2.2-.07,4.72-.88,5.42-2.92a7.64,7.64,0,0,0,.29-1.72,25.81,25.81,0,0,0,2.9-3.42c3.07-.83,7.61,0,8.65-2.94-2.66-1.45-3-5.06-2.67-8s.78-6.34-1.17-8.64-5.59-2.63-7.25-5.08l-.15,0c-4.33-5.55-12.56-6.57-18.36-10.76a3.45,3.45,0,0,1-2.37,2c-2.26-.77-4.64-1.48-7.11-2.11a20.84,20.84,0,0,0-4.3-2.82,17.17,17.17,0,0,0-6.78-.9H113.26q-3.12-.14-6.32-.14-3.39,0-6.69.15L88,50a17.74,17.74,0,0,0-5.49.58c-1.33.43-2.54,1.17-3.86,1.64-2.26.79-4.73.75-7.07,1.3a9,9,0,0,0-1.12.34l-1.86-1a24,24,0,0,1-15.41,2.29c.57,2.89.93,6.4-1.37,8.29A10.5,10.5,0,0,1,48.27,65c-4.36,1.41-8.8,5.07-8.12,9.53.17,1.11.66,2.21.44,3.31s-1.17,2-1.78,3C36.17,85.12,40.2,90.56,44.67,93ZM78.39,80.53c1.12-.6,1.25-2.12,1.12-3.36s-.33-2.66.5-3.62,2.36-1.11,3.06-2.13h.06c1.83-2.33,5.31-2.75,7.75-4.51a1.45,1.45,0,0,0,.91.8c1-.35,2.1-.67,3.22-1a8.36,8.36,0,0,1,1.69-1.08,7.29,7.29,0,0,1,2.87-.38h5.8c.87,0,1.74-.06,2.63-.06h.81l1.15,0c.42,0,.85,0,1.27,0h5.18a7.51,7.51,0,0,1,2.32.24c.56.18,1.07.49,1.63.68a27,27,0,0,0,3,.55l.48.14.78-.42a10.24,10.24,0,0,0,6.51,1c-.24,1.21-.4,2.68.58,3.47a4.38,4.38,0,0,0,1.48.64c1.84.59,3.72,2.12,3.43,4a3.92,3.92,0,0,0-.18,1.39,4.16,4.16,0,0,0,.75,1.25c1.11,1.81-.59,4.08-2.48,5.11-1,.54-2.09,1-3.09,1.48-.42.3-.86.58-1.33.86a5,5,0,0,0-1,1,2.44,2.44,0,0,1-.73.83,1.84,1.84,0,0,1-1,.12c-.37,0-.75-.08-1.13-.13a43.32,43.32,0,0,1-8.65,2.31,3.06,3.06,0,0,1-1.5.3,1.86,1.86,0,0,1-.33,0,58.72,58.72,0,0,1-7.53.48c-.8,0-1.6,0-2.39,0l-3.1,1.57c-1.08.55-1.2-1.1-2.33-1.52a9.88,9.88,0,0,1-1.53-.74,47.73,47.73,0,0,1-6-1.39,4.73,4.73,0,0,1-1.32.37A2.56,2.56,0,0,1,89.1,87a23.47,23.47,0,0,1-3.39-1.82h0c-.93,0-2-.37-2.29-1.22a2.93,2.93,0,0,1-.12-.72A11.48,11.48,0,0,1,82,81.76C80.74,81.41,78.83,81.76,78.39,80.53Z" fill="#ededee"/>
          <g>
            <path d="M131.69,70.93a2.85,2.85,0,0,1-.71-2.68c1.8.58,3.61,2.06,3.43,3.87a6.18,6.18,0,0,0-1.24-.55A4.38,4.38,0,0,1,131.69,70.93Z" fill="#e3e6ec"/>
            <path d="M124.6,66.5l-.78.42-.48-.14a27,27,0,0,1-3-.55c-.56-.19-1.07-.5-1.63-.68a7.51,7.51,0,0,0-2.32-.24h-5.18c-.42,0-.85,0-1.27,0l-1.15,0H108c-.89,0-1.76,0-2.63.06h-5.8a7.29,7.29,0,0,0-2.87.38A8.36,8.36,0,0,0,95,66.75c-1.12.28-2.2.6-3.22,1a1.45,1.45,0,0,1-.91-.8c-2.44,1.76-5.92,2.18-7.75,4.51h-.06c-.7,1-2.25,1.18-3.06,2.13s-.62,2.37-.5,3.62a6.09,6.09,0,0,1,0,1.21c-1.27-.23-2.93,0-3.34-1.16,1.13-.61,1.26-2.12,1.13-3.37s-.33-2.66.49-3.62,2.36-1.1,3.07-2.13h.06c1.83-2.32,5.3-2.75,7.75-4.51a1.42,1.42,0,0,0,.91.8c1-.35,2.09-.66,3.22-.95a8.36,8.36,0,0,1,1.69-1.08A7.42,7.42,0,0,1,97.37,62h5.81c.86,0,1.74-.06,2.63-.06h.81l1.15,0c.42,0,.85,0,1.26,0h5.19a7.45,7.45,0,0,1,2.31.24c.57.18,1.08.49,1.63.69a29.68,29.68,0,0,0,3,.54,3.68,3.68,0,0,1,.47.15l.79-.43a10.22,10.22,0,0,0,6.5,1c-.24,1.21-.39,2.68.58,3.47h0A10.29,10.29,0,0,1,124.6,66.5Z" fill="#e3e6ec"/>
            <path d="M173.17,75a19,19,0,0,0,0-6.24,5.75,5.75,0,0,1,1,.91c1.95,2.3,1.48,5.67,1.17,8.64a13.51,13.51,0,0,0,.21,4.53C173.17,81.32,172.87,77.89,173.17,75Z" fill="#e3e6ec"/>
            <path d="M42.48,89.69c2.34,1.29,5,2.29,7.31,3.55,1,.7,2.05,1.38,3.16,2a11.69,11.69,0,0,1,2.31,2.45,5.69,5.69,0,0,0,1.74,2,4.28,4.28,0,0,0,2.41.29c.89-.08,1.78-.19,2.68-.31a100.62,100.62,0,0,0,20.5,5.5,7,7,0,0,0,3.54.73,4.91,4.91,0,0,0,.77-.1A138.37,138.37,0,0,0,104.74,107c1.91,0,3.79,0,5.66-.12l7.36,3.77c2.54,1.29,2.85-2.63,5.52-3.65a23.42,23.42,0,0,0,3.62-1.77,108.73,108.73,0,0,0,14.27-3.32,11,11,0,0,0,3.12.89,6.05,6.05,0,0,0,6.17-4.36,57.4,57.4,0,0,0,8-4.34h.09c2.2-.06,4.72-.87,5.43-2.92a7.63,7.63,0,0,0,.28-1.72A25.28,25.28,0,0,0,167.19,86c3-.8,7.3-.07,8.53-2.67a5,5,0,0,0,2.31,3c-1,2.93-5.58,2.11-8.65,2.94a25.81,25.81,0,0,1-2.9,3.42,7.64,7.64,0,0,1-.29,1.72c-.7,2-3.22,2.85-5.42,2.92h-.09a57.08,57.08,0,0,1-8,4.35,6.06,6.06,0,0,1-6.16,4.36,11.21,11.21,0,0,1-3.12-.89,108.89,108.89,0,0,1-14.28,3.32,24.87,24.87,0,0,1-3.62,1.77c-2.67,1-3,4.94-5.52,3.64l-7.36-3.76c-1.86.07-3.74.12-5.65.12a138.13,138.13,0,0,1-17.84-1.14,6.65,6.65,0,0,1-.78.1,7.14,7.14,0,0,1-3.54-.73A101.43,101.43,0,0,1,64.28,103c-.89.12-1.79.24-2.67.31a4.22,4.22,0,0,1-2.42-.28,5.65,5.65,0,0,1-1.73-2,11.46,11.46,0,0,0-2.31-2.45C54,97.94,53,97.26,52,96.55c-2.36-1.26-5-2.26-7.31-3.54a14.17,14.17,0,0,1-6.07-6.36A15.24,15.24,0,0,0,42.48,89.69Z" fill="#e3e6ec"/>
            <path d="M175.84,83.06a2.21,2.21,0,0,1-.12.27c-.05-.15-.11-.3-.15-.46A2.61,2.61,0,0,0,175.84,83.06Z" fill="#e3e6ec"/>
            <path d="M129.51,67.62a10.58,10.58,0,0,0,1.59-.16c0,.25-.09.52-.12.79h0A4.31,4.31,0,0,1,129.51,67.62Z" fill="#e3e6ec"/>
          </g>
        </g>
      </g>
    </g>
  </g>
</svg>
