<svg xmlns="http://www.w3.org/2000/svg" xmlns:xlink="http://www.w3.org/1999/xlink" width="3in" height="3in" viewBox="0 0 216 216">
  <defs>
    <mask id="mask" x="10.78" y="40.16" width="198.57" height="104.26" maskUnits="userSpaceOnUse">
      <g>
        <path d="M180.74,125.11c.67-3.48,1.26-7,2.87-10.21,1.51-3,3.86-5.42,7.35-5.63,3.07-.18,6.15,1.13,8.87,2.39,1.6.73,3.15,1.56,4.71,2.38.65.34,1.3.68,2,1l.94.45.13.06.38.15a1.94,1.94,0,0,1,1.33,2.34,1.92,1.92,0,0,1-2.34,1.33,70.15,70.15,0,0,1-7.12-3.51c-2.38-1.2-5.33-2.58-7.71-2.77a7.7,7.7,0,0,0-1,0l-.37,0h-.13a7.27,7.27,0,0,0-.77.2l-.07,0,0,0-.45.25-.18.13-.21.19c-.29.31-.59.62-.85.95a11.68,11.68,0,0,0-1.18,1.94c-1.49,2.94-1.92,6.36-2.54,9.56-.78,4-1.85,7.79-4.37,11a1.91,1.91,0,0,1-2.69,0,2,2,0,0,1,0-2.69C179.41,132,180.1,128.4,180.74,125.11Z" fill="#edc443"/>
        <path d="M169.88,84.33c3.8-2.8,9.09-2.51,13.49-1.84,7.23,1.09,14,4.19,20.63,7.1a1.92,1.92,0,0,1,.68,2.61,1.94,1.94,0,0,1-2.6.68c-5.49-2.4-11-4.85-16.88-6.18a28.9,28.9,0,0,0-8.34-.8c-.42,0-.8.07-1,.11a12.69,12.69,0,0,0-1.36.3,5.71,5.71,0,0,0-1.92.8l-.42.27-.27.19a9.73,9.73,0,0,0-.74.69c-.11.11-.21.23-.32.35l-.05.06,0,0c-.21.3-.41.61-.59.93-.09.16-.17.32-.25.49l-.13.28c0,.08-.1.25-.11.29-.08.21-.15.41-.21.62a17.41,17.41,0,0,0-.48,2.14c0,.08,0,.13,0,.16a.94.94,0,0,1,0,.12c0,.17,0,.35,0,.53,0,.42-.07.84-.08,1.26,0,.84,0,1.69,0,2.53.07,1.7.25,3.41.47,5.1,0,.3,0,0,.05.36s.07.51.1.76l.21,1.42c.14.88.28,1.76.41,2.64.27,1.76.54,3.52.68,5.28a1.91,1.91,0,1,1-3.81,0c-.06-.71-.14-1.43-.23-2.14a.51.51,0,0,1,0-.1l0-.13c0-.2,0-.4-.08-.59l-.18-1.22c-.27-1.76-.56-3.52-.8-5.29a41.34,41.34,0,0,1-.36-11.27A12.36,12.36,0,0,1,169.88,84.33Z" fill="#edc443"/>
        <path d="M132.64,74.33c0,3.62,1.55,7.16,3.29,10.27,3.34,6,8.43,11.17,10.3,17.89.65,2.36,4.32,1.35,3.67-1-2.08-7.47-7.73-13-11.23-19.8-1.4-2.7-2.75-6-2.06-9.12a6.84,6.84,0,0,1,1-2.36l.24-.33.05,0c.14-.17.28-.33.43-.49a11.54,11.54,0,0,1,1.09-1l0,0,.26-.19c.21-.15.43-.29.65-.43.45-.28.92-.54,1.39-.78l.75-.35.11,0,.3-.12a28.19,28.19,0,0,1,3.2-1,41.36,41.36,0,0,1,7.27-1.1c10-.74,19.81.71,29.73,1.17,2.46.11,2.44-3.7,0-3.81-5.36-.25-10.71-.87-16.07-1.16a92.53,92.53,0,0,0-16.81.31c-4.9.62-10.08,1.8-13.88,5.15A11,11,0,0,0,132.64,74.33Zm6.82-6Z" fill="#edc443"/>
        <path d="M114.29,57a36,36,0,0,1,13.9-6,1.9,1.9,0,1,1,1,3.67,34,34,0,0,0-11.51,4.63c-3.19,2-6.19,5-7.45,8.46-1.47,4.08-.56,8.27,1.56,12.11,2.52,4.56,5.32,9,7.77,13.58a68.6,68.6,0,0,1,6.13,16.27c.58,2.38-3.09,3.4-3.67,1a63.83,63.83,0,0,0-5.44-14.78c-2.49-4.77-5.38-9.31-8-14-2.45-4.41-3.76-9.5-2.27-14.46C107.63,63.07,110.7,59.62,114.29,57Z" fill="#edc443"/>
        <path d="M82,65.31a23.69,23.69,0,0,0,.36,13A41.3,41.3,0,0,0,88.5,90.12c1.35,1.89,2.78,3.71,4.24,5.51.7.86,1.4,1.72,2.11,2.57a5,5,0,0,1,.67.92s0,.07.09.19a1.91,1.91,0,0,0,2.85,2.53c2.39-2.08.18-5-1.3-6.79S94,91.2,92.52,89.2C87.45,82.33,83.15,74,86,65.3c1.17-3.61,3.34-6.8,5.39-10A43.2,43.2,0,0,0,96.9,44.4c.7-2.36-3-3.35-3.68-1-1.24,4.16-3.69,7.75-6,11.36A38.25,38.25,0,0,0,82,65.31ZM95.67,99.44c0,.1.07.18,0,.17S95.64,99.52,95.67,99.44Z" fill="#edc443"/>
        <path d="M50.27,74.67c.52-5.86,2.91-11.3,5.71-16.41,3.16-5.76,6.93-11.2,9.7-17.17a1.92,1.92,0,0,1,2.61-.68A2,2,0,0,1,69,43C64.35,53,56.38,61.75,54.34,72.79a21.16,21.16,0,0,0,2.34,14A53,53,0,0,0,66.32,99c4.12,4.09,8.56,7.82,12.78,11.82,1.78,1.69-.92,4.38-2.7,2.69C68.61,106.1,59.68,99.38,54.12,90A25.67,25.67,0,0,1,50.27,74.67Z" fill="#edc443"/>
        <path d="M21.37,87.61c.24-4.56.9-9.08,1.22-13.62a2,2,0,0,1,1.9-1.91A1.92,1.92,0,0,1,26.4,74c-.54,7.59-2.18,15.39-.9,23A16.31,16.31,0,0,0,30,106.39c2.64,2.5,6.19,3.72,9.67,4.48,4.1.91,8.3,1.16,12.46,1.71a2,2,0,0,1,1.9,1.91c0,.92-.88,2-1.9,1.9-8-1.06-16.92-1.06-23.56-6.24C21.72,104.84,21,95.62,21.37,87.61Z" fill="#edc443"/>
      </g>
    </mask>
  </defs>
  <g style="isolation: isolate">
    <g id="sushi">
      <g>
        <g opacity="0.16" style="mix-blend-mode: darken">
          <path d="M185.76,150.13a29.22,29.22,0,0,0-7.42,0c.3-1.18-.26-2.3-2.89-2.83-3.44-.69-7.18,0-10.66.65-30.11,5.38-62.61,2.41-93.39-1.49-5.72-.72-11.91-1.46-17.27-.07a10.94,10.94,0,0,0-4.51,2.31,35.4,35.4,0,0,0-5.24.64c-6.24,1.26-10,5.39-5.15,7.6a18.29,18.29,0,0,0,5.57,1.4c21.22,2.24,40.59,1.64,65.48,1.23,24.44-.4,38.92-.06,63.31-.68,2.73-.06,11.87-1.26,11.78-2.51C185.37,156.34,193.76,151.39,185.76,150.13Z" fill="#231f20"/>
        </g>
        <g>
          <path d="M46.24,145.31a28.72,28.72,0,0,1-4.93-10.43A6.4,6.4,0,0,0,37,133.15a19.47,19.47,0,0,0,1.21-12.49c.86.68,1.88-.9,1.6-2s-1.14-2.06-1.25-3.23,1.21-2.12,1.79-1.46v-.5A19,19,0,0,1,41.54,102l.4.15A30.15,30.15,0,0,1,43,99.3l-1.37-1a11.75,11.75,0,0,1,2.11-.49C48.08,89.58,56,84,65.11,84H152c8.87,0,16.66,5.31,21,13.21a5.12,5.12,0,0,1,2.7-1c2.21-.09,4.4,2.85,3.06,4.8a18.1,18.1,0,0,1-1.38,1.39c-1.16,1.34-1.1,3.57-.31,5.21a12.93,12.93,0,0,0,3.49,4l-3.86,1v4.48a88.24,88.24,0,0,1,2.3,19.79l-3.52-.83a28.25,28.25,0,0,1-7.06,12c0,1-.07,2.09-.1,3.13,0,.74-.11,1.6-.67,2a1.86,1.86,0,0,1-1.45.11c-1.2-.24-2.39-.55-3.58-.89A22.33,22.33,0,0,1,152,155.17H144.4c-1.4,1.2-3.35.76-5.2,0H131a3.23,3.23,0,0,0-.25.66,7,7,0,0,0-.37-.66H114.35c-2,1-3.86.45-6,.63-2.87.24-5.84.69-8.49-.63H80.2a44.76,44.76,0,0,1-11.32,2.09,9.71,9.71,0,0,0-1.11-2.09H65.11a22.6,22.6,0,0,1-13.17-4.31c-1.31.33-2.61.74-3.88,1.18Q47.15,148.68,46.24,145.31Z" fill="#ededee"/>
          <path d="M55.32,139.77c1.39,1.19,3.35.76,5.19,0h8.17a3.23,3.23,0,0,1,.25.66,5.38,5.38,0,0,1,.38-.66h16a18.72,18.72,0,0,0,6.29,2,15.58,15.58,0,0,0,8.25-2h19.61a45.29,45.29,0,0,0,11.32,2.09,9.71,9.71,0,0,1,1.11-2.09h2.67a22.71,22.71,0,0,0,13.17-4.31c1.3.33,2.6.74,3.88,1.18.6-2.24,1.21-4.49,1.82-6.73a29,29,0,0,0,4.93-10.43,6.3,6.3,0,0,1,4.27-1.73,19.49,19.49,0,0,1-1.21-12.49c-.86.68-1.88-.9-1.6-2s1.14-2.06,1.25-3.23-1.21-2.12-1.79-1.46V98a18.93,18.93,0,0,0-1.16-11.45l-.4.15c-.24-.73-.52-1.44-.81-2.13a25.07,25.07,0,0,1,16,12.63,5.12,5.12,0,0,1,2.7-1c2.21-.09,4.4,2.85,3.06,4.8a18.1,18.1,0,0,1-1.38,1.39c-1.16,1.34-1.1,3.57-.31,5.21a12.93,12.93,0,0,0,3.49,4l-3.86,1v4.48a88.24,88.24,0,0,1,2.3,19.79l-3.52-.83a28.25,28.25,0,0,1-7.06,12c0,1-.07,2.09-.1,3.13,0,.74-.11,1.6-.67,2a1.86,1.86,0,0,1-1.45.11c-1.2-.24-2.39-.55-3.58-.89A22.33,22.33,0,0,1,152,155.17H144.4c-1.4,1.2-3.35.76-5.2,0H131a3.23,3.23,0,0,0-.25.66,7,7,0,0,0-.37-.66H114.35c-2,1-3.86.45-6,.63-2.87.24-5.84.69-8.49-.63H80.2a44.76,44.76,0,0,1-11.32,2.09,9.71,9.71,0,0,0-1.11-2.09H65.11a22.6,22.6,0,0,1-13.17-4.31c-1.31.33-2.61.74-3.88,1.18q-.91-3.36-1.82-6.73a27.49,27.49,0,0,1-3.51-6.14,21.19,21.19,0,0,0,5,.6Z" fill="#e3e6ec"/>
          <path d="M108.8,94C86,94.63,71,97.61,55.28,104.78c-8.22,3.74-13.47,10.78-17.27,18.73-2.87,6-3.67,16.6-10.3,20-7.75,3.94-15-5.55-16.26-12.07C9.1,118.7,17.85,103.2,23,92c3.65-8,7.15-16.07,14.47-21.5,9.49-7,19.27-12.67,30.59-12.68C81.62,57.79,92,56,108.8,56.09c17.67-.14,27.17,1.7,40.76,1.71,11.32,0,21.1,5.65,30.59,12.68C187.47,75.91,191,84,194.62,92c5.12,11.22,13.87,26.72,11.52,39.44-1.21,6.52-8.51,16-16.26,12.07-6.63-3.38-7.43-14-10.3-20-3.8-8-9.05-15-17.27-18.73C146.56,97.61,131.63,94.63,108.8,94Z" fill="#e6883e"/>
          <path d="M11.45,123.1c1.21,6.52,8.51,16,16.26,12.06,6.63-3.37,7.43-14,10.3-20,3.8-8,9.05-15,17.27-18.73C71,89.28,86,86.31,108.8,85.71c22.83.6,37.76,3.57,53.51,10.75,8.22,3.74,13.47,10.77,17.27,18.73,2.87,6,3.67,16.6,10.3,20,7.75,4,15.05-5.54,16.26-12.06,0-.16,0-.31.07-.47a28,28,0,0,1-.07,8.87c-1.21,6.52-8.51,16-16.26,12.06-6.63-3.37-7.43-14-10.3-20-3.8-8-9.05-15-17.27-18.73-15.75-7.18-30.68-10.15-53.51-10.75C86,94.71,71,97.68,55.28,104.86,47.06,108.6,41.81,115.63,38,123.59c-2.87,6-3.67,16.6-10.3,20-7.75,3.95-15-5.54-16.26-12.06a28,28,0,0,1-.07-8.87C11.41,122.79,11.42,122.94,11.45,123.1Z" fill="#d87848"/>
          <g mask="url(#mask)">
            <path d="M108.51,94c-22.83.6-37.76,3.58-53.51,10.75-8.22,3.74-13.47,10.78-17.27,18.73-2.87,6-3.67,16.6-10.3,20-7.76,3.94-15.06-5.55-16.26-12.07C8.82,118.7,17.57,103.2,22.68,92c3.66-8,7.15-16.07,14.47-21.5,9.5-7,19.28-12.67,30.6-12.68,13.59,0,23.92-1.85,40.76-1.71,17.67-.14,27.18,1.7,40.76,1.71,11.33,0,21.1,5.65,30.6,12.68C187.19,75.91,190.68,84,194.34,92c5.11,11.22,13.86,26.72,11.51,39.44-1.2,6.52-8.5,16-16.25,12.07-6.64-3.38-7.44-14-10.31-20-3.8-8-9-15-17.26-18.73C146.28,97.61,131.34,94.63,108.51,94Z" fill="#e89b40"/>
          </g>
        </g>
      </g>
    </g>
  </g>
</svg>
