<svg xmlns="http://www.w3.org/2000/svg" width="3in" height="3in" viewBox="0 0 216 216">
  <g style="isolation: isolate">
    <g id="sushi">
      <g>
        <g opacity="0.16" style="mix-blend-mode: darken">
          <path d="M39.83,188.4,80.17,188c3.51,0,7.08-.08,10.41.11a87.47,87.47,0,0,1,12,1.63c4,.76,8.31,1.59,9.38,2.71a60.29,60.29,0,0,0,8.07-.11c1.78-.82,1.53-1.8-.65-2.55-1.26-.43-3.21-.89-2.41-1.38s4.15-.68,6.85-.73q26.11-.52,52.29-.83a52.44,52.44,0,0,1,9.78.47,5,5,0,0,1,2.28,1c2.88,2.2,5.77,4.53,2.8,6.77-8.27.84-18.95.25-26.42,1.36-4.41.65-6.55,1.74-9.53,2.67a41.38,41.38,0,0,1-13.26,1.54c-5.56-.28-7.43-1.63-9.13-2.73s-6-2.36-11.64-2L134.1,198c.64.1,1.34.22,1.39.39s-1,.4-2,.51a179.44,179.44,0,0,1-22,1.15c4.49-1.77-3.14-3.84-12.14-4.48s-19.1-.43-28.51-.82a282.16,282.16,0,0,1-35.51-4.1c-2.14-.35-4.46-.77-4.51-1.33s4-1.08,5.61-.63" fill="#231f20"/>
        </g>
        <g>
          <g>
            <path d="M102.7,63.62c3.16-1.89,5.28-5.14,7.59-8a23.77,23.77,0,0,0,3.5-23.26c-.2-.5-.53-1.08-1.07-1.07a1.4,1.4,0,0,0-1,.66c-5.57,7-7.36,11.78-10.5,20.15.79-7.54.15-11.44-1-18.93-.08-.54-.27-1.19-.81-1.32a1.28,1.28,0,0,0-.67.08,9.14,9.14,0,0,0-5.14,4.84,19.55,19.55,0,0,0-1.65,7C91.43,50.36,91.43,59,96.72,63,96.72,63,99.65,65.45,102.7,63.62Z" fill="#e89b40"/>
            <path d="M94,55.61s2.93,2.48,6,.65,5.28-5.14,7.58-8a23.79,23.79,0,0,0,5-16.95.7.7,0,0,1,.14,0c.54,0,.87.57,1.07,1.07a23.79,23.79,0,0,1-3.5,23.27c-2.31,2.86-4.43,6.11-7.59,8s-6-.66-6-.66c-2.84-2.12-4.14-5.59-4.67-9.36A9.87,9.87,0,0,0,94,55.61Z" fill="#d87848"/>
            <path d="M100.65,133.94q.61-3.9,1.11-7.81c.77-.62,1.41-1.26,1.33-2.19a10.16,10.16,0,0,0-.7-1.85,2.47,2.47,0,0,1-.09-.52c0-.32.07-.63.11-.95.41-1.35,1.83-2.51,3.12-3.36-1.58-2.17-.16-5.11-.22-7.76a17.84,17.84,0,0,0-1.43-5.35c0-.1-.07-.2-.1-.3q.47-7.77.74-15.54a13.12,13.12,0,0,1,2.22-3,3.7,3.7,0,0,1-1.9-1.62c.1-1.55.2-3.35.25-5.24a3.53,3.53,0,0,1,1.25-1,3.36,3.36,0,0,1-1.22-.66,54.75,54.75,0,0,0-.26-6.22c1-4,2.19-8.26-4.72-8.73a12.11,12.11,0,0,0-1.48,0c-2-1.95-7.74,3.49-8.62,5-1.74,3-2.27,6.51-2.77,9.93-.26,1.81-.53,3.61-.79,5.42A7.8,7.8,0,0,1,86.09,84a17.35,17.35,0,0,1-1.19,2,16.53,16.53,0,0,0-1.45,4.58c-1.72,7.42-5.29,14.29-8.84,21.07-1,1.88-2,3.76-3,5.65a15.87,15.87,0,0,1-3.75,5.25,4,4,0,0,0-3.38,3.31,4.12,4.12,0,0,1-.4,1.89,3.37,3.37,0,0,1-1.42.92c-3.08,1.4-5.15,4.21-7.45,6.64s-5.37,4.67-8.75,4.32a8,8,0,0,0-2.38-.16c-2.33.46-2.77,3.65-4.76,4.89a16.94,16.94,0,0,0-2.28,1.19c-1.25,1.12-.83,2.95-.81,4.68a22.59,22.59,0,0,0-1.68,2.35,32.78,32.78,0,0,0-1.71,3.14,17.31,17.31,0,0,0-2,1.83A10.38,10.38,0,0,0,29,166.25a23,23,0,0,0,1.1,3.81,19.82,19.82,0,0,0,3.08,9.33c.26,1.17.49,2.35.65,3.54l5.29,2.26.12.08-.33,2c3.3-1,6.29,2.63,9.75,2.87a14.74,14.74,0,0,0,3.65-.47c1.67.36,3.37.69,5.09.95a9.83,9.83,0,0,0,1.78.35c.57.05,1.14.07,1.71.07a29.51,29.51,0,0,0,13.53-1.5,2.33,2.33,0,0,0,1.73.51c1.83-.35,2.87-3.65,4.37-2.58A4,4,0,0,1,84,185.31c1.67-1.34,2.09-3.42,2.4-5.6a47,47,0,0,0,4.79-8.58c2-1.12,4-2.12,4.16-4.19a14.52,14.52,0,0,0-.54-3.09,5.1,5.1,0,0,1,3.54-5.41,6.65,6.65,0,0,1-2.18-2.67c.9-3.66,1.65-7.21,2.33-10.45a18.48,18.48,0,0,1,2.22-2c.83-.63,1.78-1.31,2-2.32a3.68,3.68,0,0,0-.29-1.81Z" fill="#ebb342"/>
            <path d="M111.74,39.31c-.54,7.62-5.83,13.94-10.68,19.55-.26.3-.82,1-1.27,1-.68,0-1-1.32-1.17-1.83A30.78,30.78,0,0,1,98,52.41c-.29-4.26-.19-8.38-.45-12.69h0a34.64,34.64,0,0,0-1.45,11.37c.1,1.89.24,3.78.46,5.65A7.53,7.53,0,0,0,98,60.92c1.9,2.14,4.06-.34,5.25-1.88a64.41,64.41,0,0,0,6-8.36,19.05,19.05,0,0,0,2.52-11.37Z" fill="#d87848"/>
            <path d="M31.81,157.4l-.33,2c3.3-1,6.28,2.63,9.75,2.88a15.24,15.24,0,0,0,3.65-.48c1.66.36,3.37.69,5.09.95a8.37,8.37,0,0,0,1.78.35,16.3,16.3,0,0,0,1.71.07A29.37,29.37,0,0,0,67,161.68a2.28,2.28,0,0,0,1.73.51c1.83-.35,2.87-3.65,4.37-2.57a4,4,0,0,1,3.51-2.18c1.67-1.34,2.09-3.42,2.4-5.59a47.06,47.06,0,0,0,4.79-8.59c2-1.12,4-2.12,4.16-4.19a14.32,14.32,0,0,0-.54-3.08A5.11,5.11,0,0,1,91,130.57a6.62,6.62,0,0,1-2.18-2.66c.9-3.67,1.64-7.22,2.33-10.46a16.93,16.93,0,0,1,2.22-2c.83-.64,1.78-1.31,2-2.32A3.72,3.72,0,0,0,95,111.3l-1.74-5.23q.61-3.9,1.11-7.81c.77-.62,1.41-1.26,1.33-2.18a10.25,10.25,0,0,0-.7-1.86,2.36,2.36,0,0,1-.09-.52c0-.32.07-.63.11-1,.41-1.35,1.83-2.51,3.12-3.36-1.58-2.17-.16-5.11-.22-7.76a17.64,17.64,0,0,0-1.44-5.35l-.09-.3c.29-4.81.51-9.63.7-14.45a1.69,1.69,0,0,1,1.58.37,9.1,9.1,0,0,1,1.48,0c6.91.47,5.75,4.73,4.72,8.72a55,55,0,0,1,.26,6.23,3.35,3.35,0,0,0,1.22.65,3.45,3.45,0,0,0-1.25,1c0,1.89-.15,3.69-.25,5.23a3.67,3.67,0,0,0,1.89,1.62,13.62,13.62,0,0,0-2.21,3q-.28,7.77-.74,15.54c0,.1.06.2.1.3a17.92,17.92,0,0,1,1.43,5.35c.06,2.65-1.36,5.6.22,7.77-1.29.84-2.71,2-3.12,3.35,0,.32-.07.64-.11,1a2.45,2.45,0,0,0,.09.53,9.89,9.89,0,0,1,.7,1.85c.08.92-.56,1.57-1.33,2.18q-.49,3.91-1.11,7.81l1.74,5.23a3.72,3.72,0,0,1,.29,1.82c-.18,1-1.13,1.69-2,2.32a16.33,16.33,0,0,0-2.22,2c-.68,3.23-1.43,6.79-2.33,10.45a6.72,6.72,0,0,0,2.18,2.67,5.09,5.09,0,0,0-3.54,5.41,14.41,14.41,0,0,1,.54,3.09c-.17,2.07-2.2,3.06-4.16,4.19a47.31,47.31,0,0,1-4.79,8.58c-.31,2.17-.73,4.26-2.4,5.6a4,4,0,0,0-3.51,2.17c-1.5-1.07-2.54,2.23-4.37,2.58a2.3,2.3,0,0,1-1.73-.52,29.51,29.51,0,0,1-13.53,1.51,16.31,16.31,0,0,1-1.71-.08,8.37,8.37,0,0,1-1.78-.35c-1.72-.26-3.43-.59-5.09-1a15.24,15.24,0,0,1-3.65.48c-3.46-.24-6.45-3.89-9.75-2.88l.33-2-.12-.07-5.29-2.27c-.16-1.19-.39-2.36-.65-3.53a19.9,19.9,0,0,1-3.08-9.33,23.32,23.32,0,0,1-1.1-3.81c-.55-3-.1-6.36,1.94-8.69a5,5,0,0,1,.4-.4l.38.16Z" fill="#e89b40"/>
          </g>
          <g>
            <path d="M106.82,49.12c-3.35-2.35-5.44-6.11-7.77-9.47a26.44,26.44,0,0,1-2-26.06c.26-.54.68-1.15,1.27-1.11a1.53,1.53,0,0,1,1,.82c5.62,8.19,7.22,13.64,10,23.17-.28-8.42.74-12.69,2.61-20.9.13-.59.4-1.3,1-1.39a1.36,1.36,0,0,1,.74.14A10.13,10.13,0,0,1,119,20.09,21.79,21.79,0,0,1,120.3,28c.07,7.35-.62,16.92-6.79,20.89C113.51,48.88,110.06,51.39,106.82,49.12Z" fill="#e89b40"/>
            <path d="M97.19,35.91c2.32,3.36,4.42,7.13,7.76,9.48s6.69-.25,6.69-.25c6.18-4,6.87-13.54,6.79-20.88a24.08,24.08,0,0,0-.9-6.88,12.15,12.15,0,0,1,1.5,2.71A21.79,21.79,0,0,1,120.3,28c.07,7.35-.62,16.92-6.79,20.89,0,0-3.45,2.51-6.69.24s-5.44-6.11-7.77-9.47a24.86,24.86,0,0,1-2.61-4.91C96.68,35.14,96.92,35.53,97.19,35.91Z" fill="#d87848"/>
            <path d="M103.46,127.21c-.26-2.91-.45-5.83-.61-8.74-.8-.75-1.46-1.51-1.3-2.53a11.25,11.25,0,0,1,.92-2,2.4,2.4,0,0,0,.15-.57c0-.36,0-.71,0-1.06-.35-1.53-1.83-2.93-3.2-4,1.93-2.28.59-5.66.87-8.59.19-2,1.2-3.92,2-5.81,0-.11.08-.22.13-.33.07-5.76.22-11.52.42-17.27a14.87,14.87,0,0,0-2.21-3.45,4.14,4.14,0,0,0,2.23-1.64c0-1.73,0-3.73.14-5.83a4,4,0,0,0-1.3-1.21,3.7,3.7,0,0,0,1.4-.63,59.31,59.31,0,0,1,.79-6.87c-.83-4.51-1.76-9.33,5.93-9.29a10.45,10.45,0,0,1,1.63.13c2.35-2,8.3,4.48,9.16,6.24,1.68,3.47,2,7.4,2.27,11.22.15,2,.29,4,.44,6.07a8.35,8.35,0,0,0,.3,1.93,18.22,18.22,0,0,0,1.15,2.35,18,18,0,0,1,1.24,5.2c1.31,8.36,4.72,16.25,8.1,24l2.82,6.5a17.57,17.57,0,0,0,3.74,6.12,4.45,4.45,0,0,1,3.47,3.93,4.63,4.63,0,0,0,.3,2.14,3.62,3.62,0,0,0,1.5,1.12c3.3,1.8,5.36,5.09,7.72,8s5.57,5.6,9.35,5.48a9.4,9.4,0,0,1,2.65,0c2.54.69,2.78,4.27,4.88,5.81a17.61,17.61,0,0,1,2.43,1.5c1.3,1.33.68,3.33.52,5.25a25.53,25.53,0,0,1,1.68,2.73,38.12,38.12,0,0,1,1.64,3.62,19.15,19.15,0,0,1,2.05,2.19c2.06,2.75,2.3,6.48,1.45,9.78a26.67,26.67,0,0,1-1.52,4.14A22.14,22.14,0,0,1,174.6,183c-.38,1.27-.73,2.56-1,3.86l-6,2.09-.15.07.21,2.26c-3.58-1.39-7.18,2.41-11,2.4a16.53,16.53,0,0,1-4-.82c-1.87.27-3.79.49-5.72.64a9.6,9.6,0,0,1-2,.25,17.23,17.23,0,0,1-1.9-.06c-5.25.09-10.43-.58-14.87-2.75a2.54,2.54,0,0,1-2,.43c-2-.53-2.89-4.27-4.63-3.2a4.39,4.39,0,0,0-3.72-2.69c-1.74-1.62-2-4-2.21-6.4a53.28,53.28,0,0,1-4.62-9.89c-2.08-1.4-4.25-2.67-4.27-5a15.8,15.8,0,0,1,.85-3.38,5.7,5.7,0,0,0-3.5-6.28,7.31,7.31,0,0,0,2.63-2.78c-.7-4.13-1.24-8.13-1.74-11.77a19.32,19.32,0,0,0-2.29-2.41c-.87-.77-1.87-1.59-2-2.73a4.27,4.27,0,0,1,.46-2C101.89,131,102.67,129.09,103.46,127.21Z" fill="#ebb342"/>
            <path d="M98.75,21.47C98.74,30,104.09,37.38,109,44c.26.35.81,1.22,1.31,1.26.76,0,1.25-1.38,1.44-1.94A33.72,33.72,0,0,0,113,37.08c.67-4.69.88-9.26,1.51-14h0a38.48,38.48,0,0,1,.71,12.73c-.27,2.08-.57,4.16-1,6.22a8.3,8.3,0,0,1-2,4.51c-2.28,2.22-4.47-.7-5.67-2.51a72,72,0,0,1-5.93-9.73,21.14,21.14,0,0,1-1.89-12.8Z" fill="#d87848"/>
            <path d="M129.92,188.5a9.54,9.54,0,0,0,1.93-.1c1.86,0,3.7-.09,5.51-.22a16,16,0,0,0,3.77,1.06c3.69.28,7.38-3.1,10.71-1.53,0-.73,0-1.45-.05-2.17l.15-.06,5.91-1.58c.35-1.22.77-2.43,1.23-3.62a21.23,21.23,0,0,0,4.67-9.34,25.09,25.09,0,0,0,1.74-3.85c1-3.09,1.07-6.67-.72-9.44a17.07,17.07,0,0,0-1.8-2.23,36.24,36.24,0,0,0-1.32-3.57,24.87,24.87,0,0,0-1.41-2.72c.28-1.82,1-3.69-.15-5a15.65,15.65,0,0,0-2.21-1.61c-1.91-1.61-1.89-5-4.26-5.87a8.53,8.53,0,0,0-2.53-.2c-3.62-.15-6.51-3-8.56-5.88s-3.8-6.18-6.83-8.13a3.55,3.55,0,0,1-1.36-1.18,4.57,4.57,0,0,1-.13-2.06,4.27,4.27,0,0,0-3.05-4,16.74,16.74,0,0,1-3.15-6.1l-2.25-6.4c-2.69-7.68-5.41-15.45-6.08-23.52a17.56,17.56,0,0,0-.83-5,17.08,17.08,0,0,1-.94-2.32,7.79,7.79,0,0,1-.15-1.87c0-1.94,0-3.88,0-5.82,0-3.67,0-7.44-1.39-10.87a19.25,19.25,0,0,0-4.82-5.73c2.41-1.76,8.21,4.57,9,6.3,1.68,3.47,2,7.4,2.27,11.23.15,2,.29,4,.44,6.06a8.52,8.52,0,0,0,.3,1.94,17.49,17.49,0,0,0,1.15,2.34,18.12,18.12,0,0,1,1.24,5.2c1.31,8.36,4.72,16.26,8.1,24l2.82,6.5a17.57,17.57,0,0,0,3.74,6.12,4.46,4.46,0,0,1,3.47,3.93,4.63,4.63,0,0,0,.3,2.14,3.64,3.64,0,0,0,1.5,1.13c3.3,1.79,5.36,5.08,7.72,8s5.57,5.6,9.35,5.49a8.71,8.71,0,0,1,2.65,0c2.54.69,2.78,4.26,4.88,5.8a17.61,17.61,0,0,1,2.43,1.5c1.3,1.34.68,3.34.52,5.25a25.68,25.68,0,0,1,1.68,2.74,36.84,36.84,0,0,1,1.64,3.61,19.15,19.15,0,0,1,2.05,2.19c2.06,2.75,2.3,6.48,1.45,9.79a26.56,26.56,0,0,1-1.52,4.13A22.14,22.14,0,0,1,174.6,183c-.38,1.28-.73,2.56-1,3.86l-6,2.09-.15.07.21,2.26c-3.58-1.38-7.18,2.41-11,2.4a16.53,16.53,0,0,1-4-.82c-1.87.27-3.79.5-5.72.65a9.59,9.59,0,0,1-2,.24c-.63,0-1.27,0-1.9,0-5.25.08-10.43-.59-14.87-2.75a2.54,2.54,0,0,1-2,.42c-2-.53-2.89-4.27-4.63-3.2a4,4,0,0,0-.45-.81,41,41,0,0,0,7.06,1C128.71,188.4,129.32,188.47,129.92,188.5Z" fill="#e89b40"/>
          </g>
        </g>
      </g>
    </g>
  </g>
</svg>
